<svg width="54" height="43" viewBox="0 0 54 43" fill="none" xmlns="http://www.w3.org/2000/svg">
<path d="M1.83984 4.06999C2.02984 4.32999 2.41982 4.00997 2.31982 4.04997C2.28982 3.86997 1.91984 4.06999 1.83984 4.06999Z" fill="#00B14F"/>
<path d="M4.1001 10.8798C3.9801 10.6098 3.9501 11.1398 4.1001 10.8798Z" fill="#00B14F"/>
<path d="M5.16016 14.53C5.31016 14.5 5.50017 14.2699 5.67017 14.1799L5.41016 13.97C5.36016 14.14 5.36016 14.44 5.16016 14.53Z" fill="#00B14F"/>
<path d="M5.68018 14.1798L6.07007 14.4999C5.97007 14.1299 5.83018 14.0998 5.68018 14.1798Z" fill="#00B14F"/>
<path d="M5.68994 16.0901L5.28003 15.98L5.93005 16.21L5.68994 16.0901Z" fill="#00B14F"/>
<path d="M6.10999 17.1002C5.76999 17.0302 5.72999 17.5 5.48999 17.38C5.63999 17.64 5.96 17.8 6.25 17.94C6.05 17.75 5.99999 17.5002 6.10999 17.1002Z" fill="#00B14F"/>
<path d="M6.68994 18.1899C6.57994 18.0999 6.42 18.0199 6.25 17.9399C6.36 18.0399 6.48994 18.1299 6.68994 18.1899Z" fill="#00B14F"/>
<path d="M5.93994 15.6899L6.29004 15.3899C6.29004 15.3899 6.25999 15.28 6.23999 15.23C6.15999 15.29 5.95994 15.4299 5.93994 15.6899Z" fill="#00B14F"/>
<path d="M6.30005 15.3701H6.29004C6.34004 15.5601 6.37001 15.68 6.39001 15.73C6.38001 15.68 6.35005 15.5701 6.30005 15.3701Z" fill="#00B14F"/>
<path d="M6.22998 15.1799V15.22C6.22998 15.22 6.28998 15.1799 6.22998 15.1799Z" fill="#00B14F"/>
<path d="M6.20996 14.4399L6.65002 14.8L6.58997 14.3401C6.48997 14.3901 6.35996 14.5199 6.20996 14.4399Z" fill="#00B14F"/>
<path d="M6.86011 14.97L6.66016 14.8L6.68018 14.98L6.86011 14.97Z" fill="#00B14F"/>
<path d="M6.80994 17.3201C7.04994 17.4401 7.13988 17.6401 7.24988 17.8601C7.24988 17.5901 7.19987 17.3101 7.10987 17.0701C6.96987 17.0801 6.70994 17.0501 6.80994 17.3101V17.3201Z" fill="#00B14F"/>
<path d="M6.6001 16.3602L6.64014 16.39C6.64014 16.39 6.6701 16.3302 6.6001 16.3602Z" fill="#00B14F"/>
<path d="M8.04004 20.1299C8.04004 20.1299 8.07998 20.0901 8.09998 20.0701L8.03003 20.0901V20.1399L8.04004 20.1299Z" fill="#00B14F"/>
<path d="M7.16016 17.01C7.17016 16.8 7.03012 16.7199 6.87012 16.6599C6.96012 16.7799 7.0401 16.9201 7.1001 17.0801C7.1601 17.0801 7.20016 17.07 7.16016 17.01Z" fill="#00B14F"/>
<path d="M7.09993 18.76C7.14993 18.63 7.17992 18.5001 7.20992 18.3601C7.11992 18.5001 6.97993 18.76 7.09993 18.76Z" fill="#00B14F"/>
<path d="M6.54002 16.5L6.50999 16.48C6.44999 16.57 6.48002 16.55 6.54002 16.5Z" fill="#00B14F"/>
<path d="M6.54004 16.5C6.63004 16.58 6.76 16.6199 6.87 16.6599C6.8 16.5599 6.72 16.4699 6.63 16.3999C6.61 16.4299 6.57004 16.47 6.54004 16.5Z" fill="#00B14F"/>
<path d="M7.84998 19.24L7.73999 19.0801C7.73999 19.3001 7.64995 19.5001 7.44995 19.8701C7.73995 20.1001 7.90003 20.1101 8.03003 20.0901L7.78003 19.21L7.85999 19.25L7.84998 19.24Z" fill="#00B14F"/>
<path d="M7.87012 20.28L7.41016 20.3401L8.15015 20.53L7.87012 20.28Z" fill="#00B14F"/>
<path d="M7.8501 21.27L8.16016 21.4199L8.24011 21.1699L7.8501 21.27Z" fill="#00B14F"/>
<path d="M21.0698 39.4399C21.5998 39.5399 22.4099 39.7101 22.1599 39.3401L21.8398 39.03C21.5598 39.3 21.2998 39.4099 21.0698 39.4399Z" fill="#00B14F"/>
<path d="M11.64 30.3501C11.57 30.6601 11.57 30.8901 11.62 31.0801C11.75 30.6901 12.01 30.3201 11.64 30.3501Z" fill="#00B14F"/>
<path d="M48.5402 21.8101C48.6102 21.6701 48.5602 21.6001 48.4302 21.5701C48.3602 21.7001 48.3602 21.8001 48.5402 21.8101Z" fill="#00B14F"/>
<path d="M11.62 31.0701C11.53 31.3601 11.51 31.6601 11.88 31.8101C11.91 31.7501 11.9101 31.6999 11.9301 31.6399C11.8001 31.4799 11.67 31.3101 11.62 31.0701Z" fill="#00B14F"/>
<path d="M7.66992 2.17993C7.75992 2.17993 7.89991 2.23002 8.02991 2.27002C7.97991 2.22002 7.86992 2.18993 7.66992 2.17993Z" fill="#00B14F"/>
<path d="M9.34 24.8601C9.28 24.8501 9.25 24.6801 9.34 24.8601Z" fill="#00B14F"/>
<path d="M9.41992 24.5C9.39992 24.59 9.37988 24.69 9.37988 24.79C9.39988 24.74 9.40992 24.65 9.41992 24.5Z" fill="#00B14F"/>
<path d="M9.24017 24.6101C9.24017 24.5401 9.23015 24.4799 9.22015 24.4299C9.14015 24.4299 9.11017 24.4701 9.24017 24.6101Z" fill="#00B14F"/>
<path d="M9.45007 25.1201C9.40007 25.0101 9.39013 24.9 9.38013 24.8C9.37013 24.85 9.35008 24.8701 9.33008 24.8701C9.35008 24.9201 9.39007 24.9999 9.45007 25.1299V25.1201Z" fill="#00B14F"/>
<path d="M52.27 17.79L52.64 17.75C51.74 17.33 50.65 17.3399 49.67 17.3899C49.63 17.2699 50.04 17.26 50.2 17.23C49.24 16.57 48.77 16.47 46.65 16.54L47.13 16.1799C46.79 16.2099 46.5001 15.91 45.9301 15.54C45.3801 15.18 44.53 14.76 43.6 14.74C43.65 14.7 43.73 14.6201 43.9 14.6101C43.37 14.5801 42.92 14.4099 42.45 14.1699C42.13 13.9799 41.87 13.75 41.59 13.55C41.05 13.16 40.55 12.95 40.04 13.72L39.13 13.8701C40.08 14.3501 38.73 14.56 39.03 14.98C38.6 14.94 38.2 14.1199 38.71 14.1899L38.76 14.3C39.24 13.47 37.64 13.56 37.87 12.96C35.9 12.33 34.17 11.17 32.36 10.5L32.33 11.26L31.71 11C31.6 10.78 31.67 10.3801 32.12 10.5701C32.02 10.1001 31.2401 10.63 31.1801 10.78C30.3901 10.19 31.81 10.1 31.54 9.97998L31.15 9.8999L31.21 10.01C30.81 10.19 30.68 10.48 30.15 10.25C29.85 9.99 30.12 9.75994 29.99 9.68994C30.01 9.63994 29.97 9.6001 29.79 9.6001L29.01 9.26001L29.13 9.86011C28.83 9.89011 28.07 9.54007 27.29 9.32007C26.54 9.02007 25.72 8.83988 25.5 8.62988L25.96 8.22998L25.13 8.02002C24.98 7.91002 24.93 7.91997 24.91 7.96997C24.76 7.94997 24.8399 8.30007 24.4399 8.32007C23.8799 8.17007 23.95 7.85998 23.74 7.47998L23.85 7.42993L23.49 7.25C23.21 7.18 24.28 8.1201 23.29 8.1001C23.33 7.9501 23.04 7.05011 22.67 7.36011C23 7.45011 23 7.65006 22.89 7.81006C22.71 7.69006 22.52 7.55007 22.4 7.32007L22.52 7.15991C22.46 7.13991 22.4 7.13012 22.35 7.12012C22.34 7.07012 22.3201 7.03999 22.3101 6.98999C22.3201 7.03999 22.3201 7.08011 22.3101 7.11011C21.5201 6.88011 20.68 6.71005 19.84 6.55005C19.08 6.20005 18.33 5.56988 17.42 5.37988C17.35 5.50988 17.42 5.75992 17.23 5.91992C17.17 5.89992 17.11 5.89012 17.05 5.87012L16.71 4.94995C16.43 4.94995 16.14 5.83009 15.88 5.09009C15.9 5.25009 15.92 5.49999 15.73 5.48999C15.33 5.18999 14.91 4.97003 14.46 4.78003C14.42 4.08003 13.94 3.95994 13.34 3.93994C13 3.92994 12.65 3.94991 12.28 3.90991C11.77 3.81991 11.3 3.67988 10.86 3.37988C10.98 3.48988 11 3.59992 11.01 3.66992C10.54 3.31992 10 3.13002 9.51001 3.02002C9.07001 2.74002 8.66003 2.39996 8.28003 1.95996C8.52003 2.39996 8.28 2.35002 8 2.27002C8.13 2.39002 7.91997 2.62009 7.83997 2.84009C7.79997 2.84009 7.75997 2.83007 7.71997 2.82007L6.94995 1.91992C6.61995 2.36992 6.06995 1.87995 5.69995 1.94995C5.23995 1.71995 4.84001 1.65012 4.26001 1.62012C4.37001 1.74012 4.68996 2.00007 4.57996 2.07007C3.82996 1.44007 2.97 0.760049 2 0.550049L2.27002 0.800049L0.969971 0.310059L1.09998 0.73999C2.34998 1.91999 2.19 2.16012 2.13 2.62012C2.06 3.07012 2.10999 3.78002 3.35999 4.77002C2.82999 4.62002 3.08001 5.70989 3.01001 6.13989C3.09001 6.17989 3.18995 6.24988 3.31995 6.37988C2.90995 6.46988 3.18004 7.02004 3.54004 7.54004C3.90004 8.08004 4.35004 8.5699 4.42004 8.8999C4.37004 9.3199 4.02002 9.13989 3.65002 8.88989C4.19002 9.40989 4.21997 10.0199 4.21997 10.6799C4.21997 10.7799 4.21997 10.87 4.21997 10.97C4.18997 10.93 4.16 10.8801 4.12 10.8201C4.1 10.8601 4.08995 10.8799 4.06995 10.8999C4.08995 10.9599 4.12002 11.0299 4.15002 11.1799C4.17002 11.1599 4.18996 11.1499 4.20996 11.1499C4.20996 11.3099 4.20996 11.4701 4.20996 11.6101C4.20996 11.7201 4.21998 11.8199 4.22998 11.8899C4.22998 11.9099 4.25001 11.9199 4.26001 11.9399C4.20001 12.0899 4.22998 12.31 4.09998 12.25C4.34998 12.57 4.48002 12.4599 4.65002 12.1799C4.76002 12.1599 4.86999 12.1 4.98999 12.05L5.12 12.1699C5.2 12.0899 5.33998 12.02 5.09998 12.01C5.15998 11.99 5.22003 11.98 5.28003 11.98C5.30003 12.1 5.26997 12.19 5.21997 12.26L5.12 12.1599C5.12 12.1599 5.06994 12.25 5.18994 12.29C4.89994 12.59 4.11997 12.47 4.83997 13.02C4.85997 12.89 4.83995 12.68 4.94995 12.72C5.14995 12.96 6.42002 13.02 6.77002 13.28C6.56002 13.33 6.42005 13.49 6.05005 13.3C6.20005 13.38 6.37004 13.5101 6.54004 13.5601C6.63004 13.8501 6.99002 14.07 7.27002 14.26C7.21002 14.37 7.14998 14.48 7.09998 14.53C7.19998 14.46 7.27999 14.3901 7.35999 14.3301C7.59999 14.5101 7.70006 14.6701 7.31006 14.8601L6.83997 14.97C7.82997 15.83 6.84001 15.4899 7.76001 16.3899L7.82996 16.3501C7.91996 16.8601 8.57994 16.9099 7.93994 17.4099L7.78003 17.28C7.85003 17.55 7.90997 17.7101 7.96997 17.8501C7.91997 17.8301 7.86006 17.81 7.81006 17.76C8.20006 18.56 7.49998 17.6 7.47998 18.28C7.34998 18.14 7.27996 18.0001 7.20996 17.8701C7.20996 18.0401 7.21005 18.2001 7.18005 18.3701L7.19995 18.3401C7.23995 18.2901 7.27 18.2601 7.25 18.3101L7.26001 18.3201C7.32001 18.3101 7.37005 18.3 7.43005 18.3C7.43005 18.57 7.34001 18.3701 7.26001 18.3201C7.24001 18.3201 7.21995 18.3201 7.19995 18.3301L7.71997 19.0901C7.71997 18.8901 7.62994 18.68 7.43994 18.3C7.74994 18.3 7.99999 18.4599 8.23999 18.4299C8.24999 18.4599 8.26003 18.48 8.28003 18.51C8.24003 18.61 8.24004 18.94 8.42004 18.96C8.13004 19.08 8.17996 19.4501 8.32996 19.8301C8.23996 19.9101 8.14996 19.9901 8.07996 20.0701C8.18996 20.0401 8.29995 20.0201 8.44995 20.0901C8.58995 20.3701 8.74004 20.61 8.79004 20.71C8.70004 20.2 9.03997 20.3299 9.33997 20.3799C8.94997 20.8399 8.96997 21.0501 9.46997 21.3101C9.21997 21.4301 8.95999 21.5499 8.73999 21.6899C8.71999 21.6199 8.69995 21.55 8.69995 21.47C8.33995 21.8 8.57 21.7001 8.5 21.8701C8.23 22.1101 8.08996 22.4 8.20996 22.8C8.27996 22.64 8.26996 22.43 8.45996 22.45C8.63996 22.47 8.54001 22.71 8.51001 22.79C8.65001 22.81 8.70999 22.63 8.85999 22.55C8.87999 22.6 8.89003 22.6499 8.91003 22.6899C8.74003 23.0499 8.89006 23.27 9.06006 23.54C9.06006 23.72 9.03996 23.93 8.82996 24.25C9.01996 24.17 9.12995 23.9399 9.19995 24.4199C9.25995 24.4199 9.35002 24.44 9.40002 24.46C9.40002 24.48 9.40002 24.48 9.40002 24.5V24.47C9.40002 24.47 9.46004 24.47 9.42004 24.46C9.47004 24.32 9.54 24.1999 9.63 24.1299C9.69 24.1299 9.76006 24.1599 9.81006 24.1799C9.44006 24.5199 10.97 24.85 9.87 24.96C10.1 25.19 10.28 25.48 10.45 25.78C10.27 26.03 10.1499 26.2799 9.81995 25.9099L10 26.48C9.88 26.89 9.94997 27.3801 10.22 27.6001C10.22 27.9001 10.93 28.11 10.51 27.99L11.08 28.78L10.98 28.8301C11.23 29.7201 12.31 30.3799 11.9 31.6399C12.11 31.8999 12.35 32.1499 12.4 32.6899L12.0699 32.9099C12.3299 33.2399 12.1 34.17 12.54 34.2C12.12 34.59 12.21 35.0201 12.46 35.5601C12.83 36.4601 13.3001 37.31 13.4301 37.97L13.86 37.6599C14.11 38.4499 14.49 39.1 14.95 39.79L15.1 39.5C15.14 39.73 15.17 39.99 15.2 40.25C15.32 41.17 15.5099 42.2199 15.9399 42.4199C15.9399 42.4199 15.9399 42.4199 15.9399 42.4299C15.9499 42.4299 15.96 42.4299 15.97 42.4299C15.98 42.4299 15.99 42.44 16 42.45C16.46 42.55 17.25 41.8299 17.91 41.1799C18.62 40.4799 19.19 39.8599 19.78 39.9099C20.06 39.5399 20.26 39.48 20.49 39.46C20.46 39.48 20.44 39.5 20.42 39.53C20.45 39.52 20.5 39.49 20.54 39.46C20.69 39.46 20.85 39.4599 21.02 39.4399C20.86 39.4099 20.72 39.3999 20.6 39.4199C20.83 39.2699 21.16 38.9899 21.45 38.6799L21.79 39.04C21.79 39.04 21.84 39 21.87 38.98C22.3 38.92 22.04 38.6099 21.71 38.3799C21.84 38.2099 21.94 38.0301 21.99 37.8601C22.66 38.3601 22.43 37.2701 23.13 37.8101C23.06 37.3801 24.05 36.8701 23.71 36.0801C23.78 36.1701 23.87 36.17 23.76 36.25C24.05 36.18 24.3401 36.11 24.4301 35.77L24.86 36.22L24.9399 35.1899C25.4599 35.3099 25.7 35.41 25.64 36C26.01 34.91 26.11 35.3801 26.37 34.3701L26.55 34.72C26.77 34.56 26.86 33.8801 27.17 34.0701C28.09 34.3801 29.78 32.55 31.48 32.3C30.6 31.48 32.37 32.3501 31.95 31.5601C32.17 31.7401 32.44 31.7601 32.35 32.1001C32.88 31.4501 33.6 31.8299 33.66 30.8899C33.89 31.0799 33.73 31.3199 33.89 31.4199C33.91 31.3299 33.98 31.0799 34.14 31.1799C34.3 31.2799 34.16 31.4401 34.12 31.6101C34.79 31.1301 34.4 30.3699 34.03 29.6699C34.58 29.7699 34.73 29.61 34.7 29.01C34.96 29.15 35.3101 29.2601 34.9301 29.6101C35.1901 29.4901 36.61 29 36.29 28.45C36.45 28.54 36.6501 28.2799 36.6801 28.1699C37.2401 27.8599 37.3199 27.88 37.8199 27.49H37.62C37.42 26.71 37.97 27.07 38.35 26.72L38.38 26.79C39.66 26.64 38.66 26.3 39.97 26.22L39.66 25.8501C39.2 24.9201 40.84 25.8199 41.2 25.1299L40.85 25.03C40.97 24.54 42.46 25.6701 42.84 25.5901C42.96 25.6201 42.81 25.7799 42.75 25.8899C43.88 25.8899 42.52 25.29 43.05 24.79C43.34 25.01 43.3701 25.6099 43.8101 25.4099C43.8501 25.4199 43.8999 25.4101 43.9399 25.3701C43.9899 25.3101 44.05 25.2399 44.13 25.1599C44.31 24.9499 44.4899 24.6899 44.6899 24.4299C45.0899 23.9099 45.49 23.4401 46.23 23.3601C45.79 23.3301 45.4 23.2699 45.61 22.8999C45.86 22.6799 46.52 22.5601 47.13 22.3601C47.73 22.1601 48.28 21.8901 48.01 21.5801C48.19 21.5501 48.31 21.5601 48.4 21.5801C48.61 21.2001 49.46 20.49 48.96 20.28C50.55 20.25 51.03 19.7201 51.25 19.3201C51.49 18.9101 51.51 18.62 53.21 18.45L53.5699 18.1899L52.24 17.79H52.27ZM10.21 20.8999C10.24 20.8399 10.27 20.78 10.3 20.71C10.1 20.93 9.92003 21.08 9.78003 21.02L9.81995 20.26C9.99995 20.33 10.19 20.44 10.39 20.48C10.36 20.56 10.32 20.64 10.29 20.71C10.35 20.65 10.42 20.57 10.48 20.5C10.54 20.5 10.61 20.5 10.67 20.5L10.78 20.8101C10.6 20.9601 10.4 21.0299 10.2 20.9099L10.21 20.8999ZM11.9 23.9299C11.9 23.9299 11.88 23.9299 11.87 23.9299C11.87 23.8899 11.87 23.8601 11.87 23.8201L11.91 23.9199L11.9 23.9299ZM16.4 36.7L16.45 36.8401C16.39 36.9301 16.32 37.0101 16.26 37.0901C16.3 36.9601 16.35 36.83 16.4 36.7ZM19.0699 37.75L19.1899 37.6799C19.1599 37.7899 19.1099 37.91 19.0699 38.02C19.0699 37.93 19.0699 37.84 19.0699 37.75ZM6.89001 13.46C6.89001 13.46 6.89002 13.46 6.90002 13.45C6.90002 13.45 6.90002 13.46 6.90002 13.47H6.89001V13.46ZM10.4399 26.8101C10.4399 26.8101 10.46 26.8101 10.47 26.8101C10.4 27.1801 10.4299 27.0501 10.4399 26.8101ZM16.15 42.3C16.15 42.3 16.18 42.26 16.2 42.23L16.13 42.3101C16.13 42.3101 16.06 42.3501 16.03 42.3601C16.01 42.3301 15.99 42.3 15.98 42.26V42.1599C15.98 42.1599 15.98 42.22 15.98 42.25C15.93 42.14 15.9001 42.0001 15.9301 41.8301C15.9401 41.8701 15.96 41.8999 15.97 41.9399C15.99 42.0499 16.02 42.15 16.04 42.25C16.05 42.25 16.07 42.23 16.08 42.22C16.08 42.23 16.09 42.25 16.1 42.27C16.18 42.21 16.27 42.1301 16.35 42.0701C16.38 42.0501 16.41 42.04 16.45 42.01C16.37 42.17 16.26 42.2601 16.16 42.3201L16.15 42.3ZM29.84 9.8501L29.92 10.01C29.59 10.04 29.71 9.9501 29.84 9.8501ZM24.49 34.3301L24.92 34.0601L24.97 35.0801C24.89 34.8701 24.7 34.6101 24.49 34.3301ZM34 29.25C33.86 29.21 33.81 28.9799 33.78 28.6899C33.76 28.7599 33.74 28.8399 33.74 28.8999C33.59 28.8799 33.5001 28.7999 33.4301 28.6899L33.76 28.48C33.76 28.55 33.77 28.6199 33.78 28.6899C33.8 28.6099 33.83 28.5199 33.85 28.4299L34 28.3401C34.21 28.4301 34.39 28.51 34.5 28.53L33.99 29.25H34Z" fill="#00B14F"/>
<path d="M8.43018 22.95L8.69006 23.3201C8.60006 23.1301 8.67008 23.0199 8.71008 22.8899C8.61008 22.9399 8.48018 23.0699 8.43018 22.9399V22.95Z" fill="#00B14F"/>
<path d="M9.87004 25.3798C9.92004 25.2098 9.35002 25.47 9.48002 25.33C8.94002 25.35 10.39 26.0398 9.87004 25.3798Z" fill="#00B14F"/>
<path d="M6.43018 1.16992L6.12012 0.830078L6.25012 1.23999L6.43018 1.16992Z" fill="#00B14F"/>
<path d="M5.44006 1.62012L5.56018 0.97998L5.14014 1.44995C5.24014 1.44995 5.42006 1.45012 5.44006 1.62012Z" fill="#00B14F"/>
<path d="M2.81006 6.24989C2.96006 6.34989 3.02005 6.27977 3.05005 6.12977C2.92005 6.06977 2.84006 6.09989 2.81006 6.24989Z" fill="#00B14F"/>
</svg>
