<svg width="510" height="311" viewBox="0 0 510 311" fill="none" xmlns="http://www.w3.org/2000/svg">
<path d="M9.53009 4.62012L9.30005 4.71008C9.41005 4.71008 9.50009 4.68012 9.53009 4.62012Z" fill="#20BB65"/>
<path d="M1.95013 8.23999C1.95013 8.23999 1.91014 8.22997 1.89014 8.21997L1.95013 8.23999Z" fill="#20BB65"/>
<path d="M2.28997 4.03001C2.04997 5.13001 1 5.48996 1.51 6.60996C1.45 7.15996 1.77 7.71997 1.95 8.23997C2.82 8.40997 2.03 8.94001 2.76 9.16001L2.29998 9.32994C2.54998 9.40994 2.72998 9.50999 2.48998 9.63999H2.34997C2.72997 9.75999 2.53997 9.95999 2.72997 10.01H2.59002L2.66998 10.1999H2.46996C2.87996 10.4099 2.93998 10.6799 2.79998 10.9399L3.36999 10.8399C2.78999 11.4399 4.02001 11.46 3.33001 12.03H3.18999C4.79999 12.39 2.29002 13.14 3.84002 13.5C3.65002 13.46 3.54997 13.58 3.40997 13.6C3.61997 13.85 3.76001 14.13 4.89001 13.92C4.91001 14.12 4.57001 14.15 4.14001 14.25C4.63001 14.16 4.86999 14.2899 4.92999 14.4399L4.72997 14.41L4.97997 14.8199L5.89001 14.55C5.67001 14.83 4.76997 14.83 5.03997 15.01L5.80999 14.85C5.72999 15.2 4.60998 15.6299 4.10998 16.0699C4.05998 17.4899 6.34998 18.3899 5.35998 19.9399L4.80999 20.15C3.98999 20.41 6.11999 20.14 5.36999 20.4L5.78997 20.43C5.64997 20.51 5.51999 20.64 5.30999 20.63C5.30999 20.77 5.44997 20.73 5.72997 20.75L5.26 21.04C5.02 21.68 6.13998 21.81 6.10998 22.4C5.28998 23.38 6.65001 24.29 7.46001 24.75C9.00001 25.22 6.3 27.62 8.07 28.04C7.97 28.12 8.25997 28.09 8.34997 28.05L8.64001 28.98C8.64001 28.98 8.73997 29.2599 8.97997 29.5699C9.21997 29.8799 9.58998 30.23 10.11 30.37C11.16 30.68 12.74 30.05 15.22 27.05L15.4 26.99C15.6 26.37 15.58 26.07 14.59 26.17C15.62 25.64 14.54 25.77 14.83 25.52L14.92 25.49C13.99 25.59 15.35 24.66 14.52 24.73C14.61 24.7 14.9 24.58 14.94 24.63C14.73 24.5 14.39 24.3499 15 24.0799C14.65 23.7099 14.69 22.9899 13.59 23.0899L13.77 23.04C13.03 23.14 13.59 22.87 13.18 22.81C13.26 22.77 13.3 22.74 13.33 22.73C12.59 22.8 13.03 22.2499 12.68 22.2099L13.1 22.05L12.88 21.7199L12.84 21.89C11.67 22.25 13.47 21.36 12.63 21.36C12.69 21.07 10.05 21.6799 10.52 21.2199C9.93001 21.2699 11.44 21.04 10.96 20.99C11.56 20.78 11.37 20.95 11.84 20.74C11.49 20.65 12.37 20.24 11.89 20.15L12.36 19.99C11.4 19.97 12.82 19.25 11.93 19.31C11.44 19.13 13.28 18.69 12.26 18.65L12.87 18.3399C12.94 18.1799 12.05 18.47 12.32 18.24C12.73 18.13 12.59 17.9599 13 17.9399C13.55 17.4399 11.9 17.52 12.87 16.79C12.05 16.9 12.47 16.56 11.85 16.64C12.2 16.54 11.8 16.18 12.61 16.24C12.68 16.24 12.67 16.2899 12.54 16.3199L13.02 16.23C13.86 15.76 12.42 15.9 12.49 15.62C12.35 15.73 12.42 15.8199 12.07 15.8299V15.5799L12.49 15.53L12.64 15.13L12.15 15.29C12.36 15.06 13.2 14.81 12.45 14.78C12.04 14.78 11.81 15.0899 11.62 14.9499C11.91 14.6499 12.35 14.2 12.44 13.88C11.88 14.02 11.89 13.94 11.76 13.88L12.25 13.77C11.51 13.6 13.3 13.44 12.7 13.25L13.05 13.2099L12.01 13.3299C10.99 13.2399 13 12.99 11.62 12.93C11.73 13.04 10.55 13.19 10.74 13L11.22 12.9499C11.1 12.8899 10.9 12.8899 10.99 12.8199C11.25 12.8199 11.68 12.72 11.58 12.61L12.19 12.5799L11.28 12.51C11.75 12.24 11.07 12.07 11.72 11.88C11.72 11.88 11.98 11.44 11.24 11.48C11.71 11.48 11.85 11.2399 12.39 11.2199C11.86 11.2099 11.39 10.98 11.92 10.78H11.99C12.49 10.28 11.1 10.17 11.74 9.68003C11.17 9.78003 11.46 9.53003 10.73 9.68003C9.94997 9.36003 12.13 8.74998 9.84002 8.87998C9.69002 8.70998 10.34 8.58996 10.45 8.47996L10.58 8.50999C10.35 8.17999 10.32 8.08004 10.35 7.81004C10.12 7.70004 9.05997 7.79 9.28997 7.52C9.71997 7.56 9.62999 7.46998 9.61999 7.37998C9.68999 7.42998 9.84999 7.43002 10.12 7.29002C9.98999 7.29002 9.91002 7.26998 9.84002 7.24998C9.87002 7.24998 9.89999 7.23997 9.93999 7.23997C9.77999 7.10997 9.64997 7.13995 9.59997 7.21995C9.53997 7.21995 9.45002 7.24 9.34002 7.27C9.87002 7.07 9.25997 6.83999 9.97997 6.75999C9.76997 6.33999 9.01 6.06995 8.7 5.71995C9.07 5.64995 9.39999 5.72004 9.55999 5.81004L9.40997 5.56004C9.94997 5.53004 9.73002 5.68999 9.84002 5.75999C10.68 5.38999 8.93 5.16999 9.7 4.75999L9.27001 4.70994L9.34002 4.68003C9.12002 4.69003 8.80997 4.62994 8.72997 4.57994C9.18997 4.49994 9.80001 4.52995 9.77001 4.34995C10.21 4.17995 9.53001 3.95001 9.27001 3.78001C9.20001 3.89001 8.94001 3.85994 8.77001 3.82994C8.75001 3.73994 9.21 3.66995 9.01 3.59995L9.64001 3.56993C9.05001 3.62993 8.98997 3.35994 8.72997 3.32994C9.18997 3.25994 9.13998 3.45995 9.48998 3.46995C9.41998 3.10995 9.45 3.29003 9.38 2.93003C8.9 2.75003 8.78997 2.98001 8.22997 2.91001C8.09997 2.74001 7.65002 2.57997 8.03002 2.36997L7.46996 2.44993C7.02996 2.12993 7.08997 1.91992 7.65997 1.68992C5.35997 0.479921 3.81 0.309979 2.82 0.499979C1.84 0.689979 1.42998 1.21995 1.42998 1.21995C0.199985 2.28995 1.84001 2.82001 2.33001 4.03001H2.28997Z" fill="#20BB65"/>
<path d="M30.11 45.95L30.02 46.1801C30.09 46.1001 30.13 46.01 30.11 45.95Z" fill="#20BB65"/>
<path d="M45.98 55.9701C45.98 55.9701 46 55.9502 46.02 55.9302C46 55.9402 45.99 55.9501 45.98 55.9701Z" fill="#20BB65"/>
<path d="M27.61 53.98C27.61 53.98 27.5801 54 27.5601 54.01L27.6201 53.98H27.61Z" fill="#20BB65"/>
<path d="M24.75 50.86C25.4 51.78 24.95 52.8099 26.12 53.1899C26.5 53.5999 27.11 53.76 27.61 53.98C28.32 53.46 28.18 54.39 28.84 53.99L28.65 54.4399C28.88 54.3099 29.07 54.24 29 54.52L28.91 54.63C29.25 54.43 29.26 54.71 29.43 54.6L29.34 54.71L29.53 54.77L29.39 54.91C29.83 54.75 30.07 54.89 30.16 55.17L30.48 54.6801C30.53 55.5101 31.37 54.63 31.31 55.53L31.23 55.64C32.57 54.7 31.42 57.02 32.73 56.15C32.57 56.26 32.59 56.42 32.51 56.53C32.83 56.55 33.13 56.6401 33.75 55.6801C33.91 55.8001 33.69 56.07 33.48 56.45C33.75 56.03 34.01 55.95 34.16 56.01L34 56.13L34.47 56.23L34.9 55.39C34.95 55.74 34.33 56.3899 34.65 56.3199L35.07 55.66C35.26 55.96 34.79 57.07 34.76 57.73C35.73 58.72 37.95 57.71 38.34 59.51L38.1 60.05C37.7 60.81 39.02 59.1099 38.67 59.8199L38.98 59.55C38.94 59.7 38.94 59.89 38.78 60.02C38.88 60.11 38.95 59.9901 39.16 59.8101L39.03 60.35C39.29 60.97 40.17 60.27 40.56 60.71C40.64 61.99 42.21 61.67 43.11 61.45C44.55 60.74 44.14 64.32 45.7 63.42C45.68 63.54 45.87 63.33 45.91 63.24L46.71 63.74C46.71 63.74 47.72 64.2701 48.68 63.8101C49.65 63.3501 50.5 61.87 50.41 57.96L50.5 57.8C50.24 57.19 50.01 56.98 49.32 57.7C49.74 56.63 49.01 57.43 49.06 57.04L49.11 56.96C48.47 57.65 48.87 56.04 48.28 56.65C48.33 56.57 48.47 56.29 48.53 56.3C48.28 56.35 47.92 56.46 48.19 55.84C47.67 55.79 47.2 55.22 46.44 56.05L46.54 55.89C46.06 56.46 46.28 55.89 45.94 56.12C45.97 56.04 45.98 55.99 45.99 55.96C45.5 56.51 45.43 55.8 45.15 56.01L45.34 55.61L44.94 55.53L45.03 55.6801C44.43 56.7501 45.11 54.8699 44.5 55.4399C44.34 55.1799 42.85 57.45 42.88 56.79C42.5 57.24 43.42 56.0199 43.03 56.3199C43.32 55.7499 43.3 56.01 43.49 55.53C43.18 55.71 43.51 54.81 43.1 55.08L43.32 54.64C42.61 55.3 43.12 53.79 42.52 54.45C42.04 54.66 43.04 53.05 42.28 53.75L42.49 53.1C42.42 52.94 42 53.77 42.02 53.41C42.23 53.04 42.02 53.02 42.29 52.71C42.31 51.97 41.2 53.18 41.36 51.97C40.86 52.63 40.9 52.09 40.53 52.59C40.7 52.27 40.15 52.31 40.77 51.76C40.82 51.72 40.85 51.75 40.77 51.87L41.04 51.46C41.28 50.53 40.37 51.66 40.22 51.4C40.2 51.58 40.31 51.6 40.08 51.85L39.91 51.67L40.16 51.34L39.98 50.95L39.76 51.41C39.74 51.09 40.14 50.32 39.6 50.84C39.31 51.14 39.39 51.51 39.14 51.55C39.12 51.13 39.09 50.51 38.92 50.21C38.64 50.71 38.58 50.65 38.45 50.7L38.71 50.27C38.07 50.68 39.2 49.28 38.64 49.58L38.85 49.3L38.22 50.13C37.45 50.81 38.65 49.18 37.65 50.14C37.8 50.14 37.11 51.09 37.09 50.83L37.38 50.45C37.25 50.49 37.12 50.64 37.12 50.53C37.3 50.34 37.52 49.96 37.37 49.96L37.77 49.5L37.09 50.11C37.22 49.58 36.62 49.95 36.93 49.35C36.93 49.35 36.79 48.86 36.3 49.42C36.62 49.08 36.54 48.82 36.9 48.4C36.53 48.78 36.03 48.9599 36.25 48.4399L36.3 48.4C36.26 47.68 35.24 48.6001 35.31 47.8101C34.99 48.2901 35 47.91 34.61 48.55C33.84 48.9 34.88 46.9 33.41 48.65C33.18 48.64 33.54 48.0801 33.54 47.9301L33.65 47.86C33.25 47.8 33.16 47.7601 32.98 47.5601C32.74 47.6601 32.08 48.49 32.05 48.15C32.37 47.86 32.24 47.8601 32.17 47.8101C32.26 47.7901 32.36 47.68 32.44 47.38C32.35 47.47 32.28 47.5201 32.22 47.5601C32.24 47.5301 32.25 47.51 32.28 47.48C32.07 47.51 32.01 47.63 32.03 47.72C31.99 47.77 31.94 47.8399 31.89 47.9399C32.1 47.4099 31.53 47.7 31.96 47.12C31.51 46.98 30.79 47.37 30.32 47.36C30.52 47.04 30.79 46.84 30.97 46.8L30.68 46.74C31.02 46.32 30.99 46.6001 31.12 46.5601C31.42 45.6901 30.08 46.82 30.3 45.97L29.97 46.25L30 46.1801C29.86 46.3501 29.6 46.5401 29.51 46.5601C29.77 46.1701 30.2 45.73 30.04 45.64C30.22 45.2 29.58 45.56 29.28 45.62C29.31 45.75 29.11 45.92 28.97 46.02C28.89 45.97 29.15 45.5799 28.97 45.6899L29.37 45.21C29.01 45.68 28.77 45.54 28.58 45.71C28.85 45.32 28.95 45.5 29.2 45.25C28.89 45.06 29.04 45.15 28.73 44.96C28.27 45.19 28.36 45.43 27.93 45.79C27.72 45.77 27.3 45.9799 27.4 45.5699L27.08 46.03C26.54 46.14 26.44 45.95 26.65 45.38C24.2 46.22 23.01 47.24 22.47 48.09C21.93 48.94 22.04 49.6 22.04 49.6C21.99 51.24 23.5 50.4 24.72 50.88L24.75 50.86Z" fill="#20BB65"/>
<path d="M74.0901 65.75L74.11 65.99C74.13 65.89 74.1401 65.79 74.0901 65.75Z" fill="#20BB65"/>
<path d="M93.01 69.1199C93.01 69.1199 93.02 69.0898 93.03 69.0698C93.01 69.0898 93.01 69.0999 93.01 69.1199Z" fill="#20BB65"/>
<path d="M75.31 74.0601C75.31 74.0601 75.29 74.09 75.28 74.11L75.32 74.0601H75.31Z" fill="#20BB65"/>
<path d="M71.52 72.55C72.48 73.07 72.51 74.19 73.68 74C74.17 74.2 74.77 74.0801 75.3 74.0601C75.71 73.2901 75.96 74.19 76.39 73.55V74.04C76.55 73.82 76.69 73.69 76.74 73.96L76.71 74.09C76.93 73.76 77.05 74.01 77.16 73.85L77.13 73.99L77.32 73.97L77.25 74.16C77.58 73.84 77.84 73.86 78.04 74.08L78.14 73.51C78.5 74.24 78.91 73.0999 79.2 73.9399L79.17 74.08C80.02 72.69 79.85 75.27 80.7 73.96C80.59 74.12 80.68 74.26 80.64 74.4C80.94 74.29 81.23 74.26 81.45 73.14C81.64 73.19 81.54 73.52 81.49 73.96C81.58 73.47 81.78 73.29 81.94 73.29L81.84 73.47L82.3 73.38L82.38 72.4399C82.56 72.7499 82.23 73.58 82.49 73.4L82.63 72.63C82.92 72.84 82.89 74.04 83.1 74.66C84.32 75.22 86.02 73.48 86.98 75.03L86.94 75.62C86.83 76.47 87.47 74.42 87.39 75.21L87.59 74.84C87.61 75 87.66 75.17 87.56 75.35C87.68 75.4 87.71 75.26 87.84 75.02L87.9 75.5699C88.34 76.0599 88.93 75.11 89.43 75.39C89.91 76.56 91.26 75.75 92.03 75.26C93.17 74.13 93.85 77.66 95.04 76.33C95.06 76.45 95.18 76.19 95.19 76.1L96.09 76.33C96.09 76.33 97.19 76.5399 97.97 75.8199C98.75 75.0999 99.18 73.44 97.95 69.72L97.99 69.54C97.56 69.03 97.26 68.9 96.82 69.79C96.91 68.64 96.43 69.62 96.37 69.24L96.39 69.15C95.98 69.99 95.87 68.34 95.49 69.1C95.51 69.01 95.56 68.6999 95.63 68.6899C95.4 68.8099 95.09 69.02 95.16 68.36C94.64 68.47 93.99 68.07 93.53 69.09L93.58 68.91C93.3 69.6 93.33 68.9799 93.08 69.3199C93.08 69.2299 93.08 69.18 93.08 69.15C92.79 69.83 92.49 69.18 92.29 69.46L92.34 69.02L91.93 69.0699L92.06 69.1801C91.84 70.3901 91.87 68.38 91.47 69.12C91.23 68.93 90.56 71.5601 90.37 70.9301C90.15 71.4801 90.62 70.0301 90.36 70.4301C90.45 69.8001 90.51 70.05 90.53 69.54C90.29 69.81 90.31 68.85 90 69.24L90.06 68.75C89.61 69.6 89.57 68.01 89.23 68.84C88.85 69.2 89.24 67.35 88.76 68.26L88.73 67.58C88.6 67.45 88.5 68.38 88.39 68.03C88.47 67.61 88.24 67.67 88.39 67.28C88.14 66.57 87.52 68.09 87.23 66.91C86.99 67.71 86.84 67.18 86.66 67.78C86.71 67.42 86.2 67.64 86.59 66.92C86.62 66.86 86.66 66.88 86.64 67.02L86.75 66.54C86.64 65.59 86.18 66.96 85.94 66.77C85.99 66.94 86.1 66.92 85.98 67.24L85.75 67.13L85.87 66.73L85.55 66.4301L85.51 66.9399C85.37 66.6499 85.46 65.79 85.14 66.46C84.98 66.84 85.19 67.17 84.98 67.29C84.8 66.91 84.53 66.33 84.26 66.12C84.19 66.69 84.11 66.65 84 66.75L84.08 66.26C83.63 66.88 84.16 65.16 83.74 65.64L83.83 65.3L83.56 66.3101C83.09 67.2301 83.59 65.27 83.02 66.53C83.16 66.47 82.88 67.62 82.76 67.38L82.89 66.91C82.78 66.99 82.72 67.19 82.68 67.08C82.78 66.83 82.84 66.4 82.69 66.45L82.89 65.87L82.49 66.6899C82.4 66.1499 81.98 66.73 82.03 66.05C82.03 66.05 81.69 65.65 81.46 66.36C81.63 65.92 81.44 65.7099 81.61 65.1899C81.41 65.6799 81.02 66.04 81.01 65.47L81.05 65.41C80.71 64.76 80.13 66.02 79.86 65.26C79.76 65.83 79.61 65.48 79.52 66.21C78.95 66.84 79.06 64.58 78.44 66.79C78.22 66.87 78.32 66.22 78.25 66.08L78.32 65.97C77.92 66.08 77.82 66.08 77.56 65.97C77.38 66.16 77.14 67.19 76.95 66.89C77.12 66.49 77 66.55 76.91 66.53C76.98 66.48 77.03 66.33 76.97 66.03C76.93 66.15 76.88 66.23 76.85 66.29C76.85 66.26 76.85 66.2299 76.87 66.1899C76.69 66.2999 76.69 66.44 76.74 66.51C76.72 66.57 76.71 66.65 76.71 66.77C76.67 66.2 76.27 66.71 76.41 66C75.93 66.06 75.45 66.73 75.01 66.91C75.05 66.54 75.21 66.23 75.35 66.12L75.06 66.1899C75.18 65.6699 75.28 65.92 75.38 65.84C75.26 64.92 74.54 66.53 74.35 65.67L74.18 66.0699V66C74.12 66.22 73.97 66.5 73.9 66.55C73.95 66.08 74.15 65.5 73.96 65.49C73.92 65.02 73.5 65.6101 73.26 65.8101C73.34 65.9101 73.26 66.16 73.17 66.3C73.08 66.3 73.13 65.83 73.01 66.01L73.15 65.39C73.05 65.98 72.76 65.96 72.67 66.2C72.73 65.73 72.91 65.84 73.01 65.51C72.63 65.48 72.82 65.49 72.44 65.46C72.13 65.87 72.33 66.0501 72.11 66.5601C71.91 66.6401 71.63 67.02 71.53 66.61L71.46 67.17C71.03 67.51 70.85 67.4 70.77 66.79C69 68.69 68.47 70.16 68.4 71.16C68.33 72.16 68.72 72.6899 68.72 72.6899C69.4 74.1399 70.31 72.69 71.58 72.54L71.52 72.55Z" fill="#20BB65"/>
<path d="M123.1 71.6199L123.17 71.8499C123.17 71.7399 123.16 71.6499 123.1 71.6199Z" fill="#20BB65"/>
<path d="M142.43 71.5598C142.43 71.5598 142.43 71.5298 142.45 71.5098C142.44 71.5298 142.43 71.5498 142.43 71.5598Z" fill="#20BB65"/>
<path d="M125.87 79.54C125.87 79.54 125.86 79.58 125.85 79.6L125.88 79.54H125.87Z" fill="#20BB65"/>
<path d="M121.91 78.7899C122.94 79.0999 123.19 80.1999 124.28 79.7899C124.79 79.8899 125.35 79.6599 125.86 79.5499C126.12 78.7099 126.52 79.5499 126.82 78.8599L126.92 79.3398C127.02 79.0998 127.14 78.9398 127.23 79.1998V79.3398C127.37 78.9798 127.53 79.1999 127.61 79.0199V79.1599L127.78 79.0999L127.75 79.2999C128.01 78.9199 128.27 78.9098 128.5 79.0898V78.5099C128.97 79.1699 129.17 77.9799 129.61 78.7399V78.8799C130.19 77.3399 130.48 79.9098 131.08 78.4498C131.01 78.6298 131.11 78.7499 131.1 78.8899C131.37 78.7199 131.66 78.6299 131.67 77.4899C131.86 77.4999 131.82 77.8499 131.85 78.2799C131.85 77.7799 132.02 77.5699 132.18 77.5399L132.11 77.7299L132.55 77.5499L132.47 76.6099C132.7 76.8799 132.52 77.7599 132.74 77.5299V76.7499C133.06 76.8999 133.24 78.0799 133.55 78.6499C134.84 78.9699 136.21 76.9598 137.41 78.3198L137.47 78.9099C137.5 79.7699 137.79 77.6399 137.84 78.4299L137.98 78.0399C138.02 78.1899 138.1 78.3599 138.04 78.5499C138.17 78.5799 138.17 78.4399 138.26 78.1799L138.4 78.7098C138.91 79.1198 139.33 78.0799 139.87 78.2899C140.53 79.3699 141.72 78.3599 142.4 77.7599C143.34 76.4699 144.57 79.8699 145.53 78.3899C145.57 78.5099 145.64 78.2399 145.64 78.1399L146.56 78.2499C146.56 78.2499 147.67 78.3199 148.33 77.4999C148.99 76.6899 149.17 74.9898 147.39 71.4598L147.41 71.2699C146.9 70.8199 146.59 70.7299 146.28 71.6699C146.19 70.5199 145.87 71.5599 145.75 71.1799V71.0898C145.48 71.9798 145.12 70.3599 144.85 71.1599C144.85 71.0699 144.85 70.7499 144.92 70.7299C144.71 70.8799 144.43 71.1398 144.4 70.4698C143.9 70.6498 143.2 70.3499 142.9 71.4199L142.92 71.2299C142.75 71.9499 142.68 71.3398 142.49 71.7098C142.48 71.6198 142.46 71.5799 142.46 71.5399C142.27 72.2599 141.88 71.6598 141.72 71.9698L141.7 71.5199L141.3 71.6299L141.45 71.7198C141.42 72.9498 141.13 70.9599 140.86 71.7499C140.59 71.5999 140.35 74.2998 140.06 73.7098C139.93 74.2798 140.17 72.7798 139.97 73.2198C139.95 72.5798 140.06 72.8199 140 72.3099C139.81 72.6199 139.67 71.6599 139.43 72.0999L139.41 71.5999C139.1 72.5099 138.81 70.9498 138.6 71.8198C138.28 72.2298 138.37 70.3498 138.04 71.3198L137.9 70.6499C137.75 70.5399 137.8 71.4799 137.64 71.1499C137.64 70.7299 137.43 70.8099 137.53 70.4099C137.16 69.7499 136.8 71.3599 136.31 70.2499C136.21 71.0799 135.97 70.5898 135.89 71.2098C135.88 70.8498 135.41 71.1599 135.68 70.3699C135.7 70.3099 135.74 70.3198 135.74 70.4598L135.77 69.9698C135.5 69.0498 135.28 70.4799 135 70.3499C135.08 70.5099 135.19 70.4699 135.12 70.7999L134.87 70.7399L134.92 70.3298L134.55 70.0898L134.6 70.5999C134.42 70.3399 134.35 69.4698 134.15 70.1998C134.06 70.5998 134.32 70.8799 134.13 71.0499C133.89 70.7099 133.52 70.1899 133.21 70.0399C133.24 70.6099 133.15 70.5898 133.07 70.7098V70.2098C132.73 70.9098 132.95 69.1199 132.62 69.6699L132.65 69.3198L132.56 70.3599C132.26 71.3499 132.41 69.3299 132.07 70.6799C132.2 70.5899 132.12 71.7799 131.96 71.5599L132 71.0798C131.91 71.1798 131.88 71.3799 131.82 71.2899C131.88 71.0299 131.85 70.5899 131.72 70.6699L131.81 70.0698L131.55 70.9598C131.36 70.4498 131.06 71.0999 130.98 70.4199C130.98 70.4199 130.57 70.0898 130.47 70.8398C130.56 70.3798 130.33 70.1999 130.41 69.6599C130.3 70.1799 129.98 70.6099 129.86 70.0599L129.88 69.9999C129.43 69.4399 129.07 70.7798 128.67 70.0798C128.67 70.6598 128.46 70.3398 128.5 71.0798C128.05 71.7998 127.74 69.5498 127.54 71.8298C127.34 71.9498 127.32 71.2899 127.22 71.1699L127.27 71.0499C126.9 71.2299 126.79 71.2399 126.52 71.1799C126.38 71.3999 126.33 72.4598 126.09 72.1898C126.18 71.7698 126.08 71.8498 125.99 71.8398C126.05 71.7798 126.07 71.6198 125.96 71.3298C125.94 71.4598 125.91 71.5399 125.89 71.6099C125.89 71.5799 125.89 71.5499 125.89 71.5099C125.73 71.6499 125.76 71.7899 125.83 71.8499C125.83 71.9099 125.83 71.9999 125.85 72.1099C125.71 71.5599 125.41 72.1299 125.41 71.4099C124.95 71.5599 124.6 72.2998 124.2 72.5698C124.17 72.1998 124.27 71.8699 124.38 71.7299L124.1 71.8599C124.12 71.3199 124.27 71.5598 124.35 71.4498C124.05 70.5698 123.66 72.2899 123.3 71.4899L123.21 71.9099L123.19 71.8398C123.19 72.0598 123.09 72.3698 123.03 72.4398C122.99 71.9698 123.07 71.3599 122.88 71.3899C122.75 70.9399 122.45 71.5999 122.25 71.8499C122.35 71.9299 122.31 72.1899 122.25 72.3499C122.16 72.3599 122.12 71.8998 122.04 72.0898V71.4598C122.07 72.0498 121.79 72.0899 121.74 72.3499C121.7 71.8799 121.9 71.9499 121.94 71.5999C121.56 71.6499 121.75 71.6199 121.37 71.6699C121.15 72.1399 121.38 72.2698 121.27 72.8198C121.09 72.9398 120.9 73.3699 120.71 72.9899L120.75 73.5499C120.4 73.9699 120.2 73.8998 120 73.3298C117.3 77.8098 119.2 79.5299 119.2 79.5299C120.15 80.7999 120.73 79.1799 121.93 78.7899H121.91Z" fill="#20BB65"/>
<path d="M172.67 69.95L172.77 70.17C172.76 70.06 172.73 69.97 172.67 69.95Z" fill="#20BB65"/>
<path d="M191.96 67.79C191.96 67.79 191.96 67.76 191.97 67.74C191.96 67.76 191.96 67.78 191.96 67.79Z" fill="#20BB65"/>
<path d="M176.39 77.48C176.39 77.48 176.39 77.52 176.38 77.54L176.4 77.48H176.39Z" fill="#20BB65"/>
<path d="M172.39 77.22C173.45 77.41 173.83 78.46 174.86 77.92C175.38 77.96 175.9 77.66 176.39 77.48C176.55 76.62 177.05 77.4 177.26 76.67L177.42 77.14C177.49 76.89 177.59 76.71 177.71 76.96V77.1C177.83 76.72 178.01 76.92 178.06 76.74V76.88L178.24 76.8V77C178.44 76.59 178.7 76.5399 178.95 76.6899L178.87 76.11C179.42 76.71 179.48 75.49 180 76.21V76.35C180.41 74.77 181 77.29 181.42 75.79C181.37 75.98 181.48 76.08 181.49 76.22C181.74 76.03 182.01 75.91 181.89 74.78C182.08 74.78 182.08 75.12 182.16 75.55C182.11 75.05 182.25 74.83 182.4 74.78L182.35 74.98L182.76 74.76L182.57 73.83C182.83 74.08 182.75 74.97 182.95 74.72L182.86 73.9399C183.19 74.0599 183.5 75.22 183.87 75.76C185.18 75.95 186.32 73.82 187.66 75.05L187.78 75.63C187.9 76.48 187.96 74.33 188.1 75.11L188.19 74.7C188.25 74.85 188.35 75 188.3 75.2C188.43 75.22 188.42 75.0801 188.48 74.8101L188.68 75.3199C189.23 75.6699 189.54 74.6 190.09 74.75C190.85 75.76 191.93 74.62 192.54 73.96C193.35 72.57 194.89 75.82 195.69 74.24C195.74 74.36 195.79 74.07 195.77 73.98H196.69C196.69 73.98 201.1 73.75 196.88 67.13V66.9399C196.33 66.5499 196.01 66.49 195.79 67.47C195.59 66.33 195.37 67.4 195.21 67.05V66.96C195.02 67.88 194.5 66.31 194.31 67.13C194.31 67.04 194.28 66.72 194.34 66.7C194.15 66.87 193.89 67.16 193.79 66.5C193.31 66.74 192.57 66.52 192.38 67.62V67.4301C192.28 68.1701 192.16 67.57 191.99 67.95C191.97 67.86 191.95 67.82 191.95 67.78C191.84 68.51 191.38 67.96 191.26 68.28L191.2 67.84L190.81 67.99L190.97 68.0699C191.07 69.2899 190.58 67.34 190.38 68.17C190.09 68.05 190.13 70.76 189.78 70.2C189.71 70.79 189.78 69.26 189.64 69.72C189.56 69.09 189.69 69.3101 189.57 68.8101C189.41 69.1301 189.17 68.2 188.98 68.66L188.91 68.17C188.7 69.11 188.24 67.59 188.13 68.48C187.85 68.93 187.74 67.04 187.51 68.04L187.3 67.39C187.14 67.3 187.3 68.22 187.09 67.92C187.05 67.5 186.85 67.61 186.9 67.2C186.46 66.58 186.27 68.22 185.66 67.16C185.65 67.99 185.35 67.53 185.34 68.16C185.29 67.8 184.85 68.16 185.03 67.35C185.05 67.28 185.09 67.2901 185.1 67.4301L185.08 66.9399C184.7 66.0499 184.64 67.5 184.35 67.39C184.45 67.54 184.55 67.49 184.52 67.83L184.26 67.79V67.37L183.87 67.17L183.98 67.67C183.77 67.43 183.61 66.5799 183.48 67.3199C183.43 67.7299 183.73 67.98 183.55 68.16C183.27 67.84 182.84 67.36 182.51 67.24C182.6 67.81 182.51 67.8 182.44 67.92L182.38 67.4301C182.12 68.1501 182.14 66.3499 181.87 66.9399V66.59L181.89 67.63C181.7 68.64 181.62 66.62 181.43 68C181.55 67.9 181.61 69.08 181.43 68.89V68.41C181.34 68.52 181.33 68.72 181.26 68.63C181.29 68.37 181.21 67.93 181.09 68.03L181.11 67.42L180.96 68.33C180.71 67.84 180.48 68.51 180.33 67.85C180.33 67.85 179.89 67.5601 179.87 68.3101C179.9 67.8401 179.66 67.69 179.67 67.15C179.62 67.68 179.35 68.14 179.17 67.6L179.19 67.54C178.67 67.02 178.48 68.39 177.99 67.75C178.07 68.32 177.82 68.03 177.94 68.76C177.58 69.53 177 67.34 177.07 69.63C176.89 69.77 176.78 69.12 176.67 69.01L176.7 68.89C176.35 69.11 176.25 69.14 175.97 69.12C175.86 69.36 175.94 70.4101 175.67 70.1801C175.71 69.7501 175.62 69.84 175.52 69.85C175.57 69.78 175.58 69.62 175.43 69.35C175.43 69.48 175.41 69.56 175.39 69.63C175.39 69.6 175.38 69.57 175.38 69.53C175.24 69.69 175.28 69.82 175.36 69.87C175.36 69.93 175.38 70.02 175.41 70.13C175.2 69.6 174.97 70.21 174.88 69.49C174.44 69.7 174.18 70.48 173.82 70.79C173.74 70.42 173.8 70.0901 173.9 69.9301L173.64 70.09C173.59 69.56 173.77 69.77 173.84 69.65C173.44 68.82 173.25 70.5699 172.8 69.8199L172.76 70.25L172.73 70.1801C172.75 70.4001 172.69 70.71 172.64 70.79C172.54 70.33 172.55 69.72 172.36 69.76C172.17 69.33 171.96 70.02 171.79 70.29C171.9 70.36 171.89 70.62 171.86 70.79C171.77 70.81 171.67 70.3501 171.62 70.5601L171.55 69.9301C171.64 70.5201 171.36 70.59 171.35 70.85C171.25 70.39 171.46 70.44 171.45 70.08C171.08 70.17 171.26 70.13 170.89 70.22C170.73 70.71 170.98 70.81 170.93 71.37C170.76 71.51 170.63 71.96 170.39 71.6L170.5 72.15C170.2 72.61 170 72.56 169.72 72.02C167.61 76.77 169.72 78.27 169.72 78.27C170.82 79.42 171.19 77.75 172.33 77.21L172.39 77.22Z" fill="#20BB65"/>
<path d="M222.13 63.73L222.24 63.95C222.22 63.84 222.19 63.76 222.13 63.73Z" fill="#20BB65"/>
<path d="M241.4 60.7498C241.4 60.7498 241.4 60.7197 241.41 60.6997C241.4 60.7197 241.4 60.7398 241.4 60.7498Z" fill="#20BB65"/>
<path d="M226.25 71.04C226.25 71.06 226.25 71.08 226.24 71.1L226.26 71.04H226.25Z" fill="#20BB65"/>
<path d="M222.27 70.9899C223.33 71.1199 223.76 72.1499 224.75 71.5499C225.27 71.5599 225.77 71.2299 226.24 71.0299C226.35 70.1599 226.89 70.9199 227.06 70.1799L227.24 70.6399C227.3 70.3899 227.39 70.2098 227.52 70.4498V70.5898C227.62 70.2098 227.82 70.3998 227.86 70.2098V70.3499L228.04 70.2599V70.4598C228.23 70.0398 228.48 69.9799 228.74 70.1199L228.64 69.5499C229.22 70.1199 229.22 68.8999 229.77 69.5999V69.7399C230.11 68.1399 230.81 70.6399 231.16 69.1199C231.12 69.3099 231.23 69.4099 231.25 69.5499C231.49 69.3499 231.75 69.2198 231.59 68.0898C231.78 68.0798 231.8 68.4199 231.89 68.8499C231.81 68.3599 231.95 68.1298 232.09 68.0698L232.05 68.2699L232.45 68.0399L232.23 67.1199C232.5 67.3499 232.46 68.2499 232.64 67.9899L232.52 67.2198C232.86 67.3298 233.21 68.4699 233.6 68.9899C234.91 69.1299 235.96 66.9599 237.34 68.1399L237.48 68.7098C237.63 69.5498 237.61 67.4099 237.78 68.1799L237.86 67.7699C237.92 67.9199 238.03 68.0699 237.99 68.2699C238.12 68.2799 238.1 68.1399 238.16 67.8699L238.37 68.3799C238.93 68.7199 239.2 67.6299 239.75 67.7599C240.54 68.7399 241.57 67.5799 242.17 66.8999C242.94 65.4899 244.56 68.6999 245.32 67.0999C245.37 67.2199 245.41 66.9298 245.4 66.8398H246.31C246.31 66.8398 250.7 66.4998 246.35 59.9698V59.7799C245.79 59.3999 245.46 59.3498 245.26 60.3298C245.04 59.1998 244.84 60.2699 244.67 59.9199V59.8298C244.5 60.7498 243.94 59.1899 243.77 60.0199C243.77 59.9299 243.73 59.6098 243.79 59.5898C243.6 59.7698 243.35 60.0599 243.24 59.3999C242.76 59.6499 242.02 59.4499 241.85 60.5499V60.3599C241.77 61.0999 241.62 60.4999 241.47 60.8999C241.45 60.8099 241.42 60.7699 241.42 60.7399C241.33 61.4799 240.85 60.9399 240.74 61.2599L240.66 60.8198L240.28 60.9799L240.44 61.0499C240.57 62.2699 240.03 60.3399 239.85 61.1599C239.56 61.0499 239.68 63.7598 239.31 63.2098C239.26 63.7998 239.29 62.2699 239.16 62.7399C239.06 62.1099 239.19 62.3298 239.07 61.8298C238.92 62.1598 238.65 61.2298 238.47 61.6998L238.39 61.2098C238.21 62.1598 237.7 60.6499 237.62 61.5399C237.36 61.9899 237.18 60.1099 236.99 61.1299L236.76 60.4799C236.6 60.3899 236.78 61.3099 236.57 61.0099C236.52 60.5899 236.32 60.7099 236.35 60.2899C235.89 59.6899 235.75 61.3299 235.11 60.2899C235.13 61.1199 234.81 60.6699 234.83 61.2999C234.76 60.9499 234.34 61.3199 234.49 60.4999C234.5 60.4299 234.55 60.4398 234.56 60.5798L234.52 60.0898C234.11 59.2198 234.1 60.6698 233.81 60.5698C233.91 60.7198 234.01 60.6599 233.99 60.9999L233.73 60.9698V60.5499L233.31 60.3699L233.44 60.8699C233.22 60.6399 233.02 59.7899 232.93 60.5399C232.9 60.9499 233.21 61.1899 233.04 61.3799C232.74 61.0699 232.3 60.6099 231.96 60.5099C232.07 61.0699 231.99 61.0598 231.92 61.1898L231.84 60.6998C231.61 61.4298 231.56 59.6399 231.31 60.2299L231.29 59.8799L231.36 60.9199C231.21 61.9399 231.05 59.9199 230.92 61.2999C231.04 61.1999 231.14 62.3798 230.95 62.1898L230.92 61.7098C230.85 61.8198 230.85 62.0298 230.77 61.9398C230.78 61.6798 230.69 61.2399 230.58 61.3499V60.7399L230.46 61.6499C230.19 61.1699 229.99 61.8498 229.81 61.1998C229.81 61.1998 229.35 60.9299 229.37 61.6799C229.38 61.2099 229.13 61.0699 229.12 60.5299C229.09 61.0599 228.84 61.5299 228.63 60.9999V60.9299C228.1 60.4399 227.96 61.8198 227.45 61.1998C227.55 61.7698 227.29 61.4898 227.45 62.2098C227.13 62.9998 226.44 60.8399 226.62 63.1199C226.44 63.2699 226.31 62.6299 226.19 62.5199L226.22 62.3899C225.88 62.6299 225.78 62.6699 225.5 62.6599C225.4 62.8999 225.53 63.9499 225.25 63.7399C225.27 63.3099 225.18 63.3999 225.09 63.4199C225.14 63.3499 225.13 63.1899 224.97 62.9299C224.97 63.0599 224.96 63.1398 224.94 63.2098C224.94 63.1798 224.93 63.1499 224.92 63.1099C224.79 63.2799 224.84 63.4098 224.92 63.4498C224.92 63.5098 224.94 63.5898 224.98 63.7098C224.74 63.1998 224.54 63.8099 224.42 63.0999C223.99 63.3299 223.77 64.1198 223.43 64.4598C223.33 64.0998 223.37 63.7599 223.46 63.5999L223.21 63.7799C223.13 63.2499 223.32 63.4498 223.39 63.3298C222.94 62.5198 222.85 64.2799 222.36 63.5599L222.34 63.9899L222.31 63.9199C222.34 64.1399 222.31 64.4599 222.26 64.5399C222.14 64.0899 222.1 63.4699 221.92 63.5299C221.71 63.1099 221.53 63.8198 221.38 64.0898C221.5 64.1498 221.5 64.4098 221.48 64.5798C221.39 64.6098 221.27 64.1599 221.22 64.3699L221.12 63.7499C221.24 64.3299 220.97 64.4199 220.97 64.6799C220.85 64.2299 221.06 64.2599 221.03 63.9099C220.66 64.0199 220.85 63.9698 220.48 64.0798C220.35 64.5798 220.6 64.6598 220.59 65.2198C220.43 65.3698 220.32 65.8299 220.06 65.4799L220.21 66.0199C219.94 66.4999 219.73 66.4698 219.43 65.9398C217.63 70.8198 219.83 72.1699 219.83 72.1699C220.99 73.2499 221.25 71.5598 222.35 70.9598L222.27 70.9899Z" fill="#20BB65"/>
<path d="M271.62 56.5L271.73 56.72C271.71 56.61 271.68 56.53 271.62 56.5Z" fill="#20BB65"/>
<path d="M291.04 54.03C291.04 54.03 291.04 54 291.05 53.98C291.04 54 291.04 54.02 291.04 54.03Z" fill="#20BB65"/>
<path d="M275.62 63.9102C275.62 63.9102 275.62 63.9501 275.61 63.9701L275.63 63.9102H275.62Z" fill="#20BB65"/>
<path d="M271.66 63.76C272.72 63.91 273.13 64.96 274.13 64.39C274.64 64.42 275.15 64.1 275.62 63.91C275.74 63.04 276.26 63.82 276.45 63.08L276.62 63.54C276.68 63.29 276.77 63.11 276.9 63.36V63.5C277.01 63.12 277.2 63.32 277.24 63.13V63.27L277.42 63.1899V63.39C277.61 62.98 277.87 62.9199 278.11 63.0699L278.02 62.5C278.58 63.08 278.61 61.87 279.14 62.58V62.72C279.51 61.13 280.15 63.65 280.54 62.14C280.49 62.33 280.61 62.4299 280.62 62.5699C280.86 62.3699 281.13 62.25 280.99 61.12C281.18 61.12 281.19 61.46 281.27 61.89C281.21 61.39 281.35 61.17 281.49 61.12L281.45 61.3199L281.86 61.1L281.66 60.17C281.92 60.41 281.86 61.3 282.05 61.05L281.95 60.27C282.28 60.38 282.61 61.5399 282.98 62.0699C284.27 62.2499 285.39 60.0999 286.72 61.3199L286.84 61.9C286.96 62.75 287.02 60.6 287.15 61.38L287.24 60.97C287.3 61.12 287.4 61.27 287.35 61.47C287.48 61.49 287.47 61.35 287.53 61.08L287.73 61.59C288.27 61.94 288.58 60.87 289.12 61.01C289.87 62.01 290.94 60.87 291.55 60.21C292.37 58.82 293.85 62.08 294.67 60.5C294.71 60.62 294.77 60.33 294.76 60.24H295.67C295.67 60.24 300.06 60.04 296.01 53.38V53.1899C295.47 52.7999 295.15 52.74 294.91 53.72C294.73 52.58 294.49 53.65 294.34 53.3V53.21C294.13 54.13 293.64 52.55 293.44 53.38C293.44 53.29 293.41 52.97 293.48 52.95C293.28 53.12 293.02 53.41 292.93 52.75C292.44 52.99 291.7 52.77 291.5 53.87V53.6801C291.4 54.4201 291.27 53.82 291.11 54.21C291.09 54.12 291.07 54.08 291.07 54.04C290.95 54.77 290.5 54.22 290.37 54.55L290.31 54.11L289.92 54.26L290.08 54.34C290.16 55.56 289.69 53.6099 289.49 54.4399C289.2 54.3199 289.22 57.04 288.88 56.48C288.81 57.07 288.89 55.54 288.74 56C288.66 55.37 288.79 55.59 288.68 55.09C288.52 55.42 288.28 54.4799 288.09 54.9399L288.02 54.45C287.81 55.39 287.35 53.87 287.23 54.76C286.95 55.21 286.84 53.32 286.61 54.33L286.4 53.6801C286.24 53.5901 286.4 54.51 286.19 54.21C286.15 53.79 285.95 53.9 285.99 53.49C285.55 52.88 285.35 54.52 284.74 53.46C284.74 54.29 284.43 53.83 284.43 54.46C284.37 54.1 283.94 54.46 284.12 53.65C284.14 53.58 284.18 53.59 284.19 53.73L284.17 53.24C283.79 52.36 283.73 53.81 283.44 53.7C283.54 53.85 283.64 53.79 283.61 54.14L283.35 54.11V53.6899L282.95 53.5L283.06 54C282.84 53.76 282.68 52.91 282.55 53.65C282.5 54.06 282.81 54.31 282.63 54.49C282.34 54.18 281.91 53.7 281.57 53.59C281.67 54.16 281.58 54.15 281.51 54.27L281.44 53.78C281.19 54.51 281.18 52.71 280.92 53.3V52.95L280.95 53.99C280.77 55.01 280.66 52.98 280.49 54.36C280.61 54.26 280.69 55.44 280.49 55.25L280.47 54.77C280.39 54.88 280.39 55.09 280.32 54.99C280.34 54.73 280.26 54.29 280.14 54.39V53.78L280.01 54.6899C279.75 54.1999 279.53 54.88 279.37 54.22C279.37 54.22 278.91 53.9399 278.91 54.6899C278.94 54.2199 278.69 54.08 278.68 53.53C278.64 54.06 278.37 54.52 278.18 53.99L278.2 53.92C277.66 53.41 277.5 54.79 276.99 54.16C277.08 54.73 276.82 54.45 276.97 55.17C276.63 55.95 275.99 53.7801 276.12 56.0601C275.94 56.2101 275.82 55.56 275.7 55.45L275.73 55.3199C275.38 55.5499 275.28 55.5899 275 55.5699C274.89 55.8099 275 56.86 274.73 56.64C274.76 56.21 274.66 56.3001 274.57 56.3101C274.62 56.2401 274.62 56.0799 274.46 55.8199C274.46 55.9499 274.44 56.03 274.43 56.1C274.43 56.07 274.42 56.04 274.41 56C274.28 56.17 274.32 56.29 274.4 56.34C274.4 56.4 274.42 56.49 274.46 56.6C274.23 56.08 274.02 56.69 273.91 55.98C273.47 56.2 273.24 56.9901 272.89 57.3101C272.8 56.9501 272.84 56.61 272.94 56.45L272.69 56.62C272.62 56.09 272.81 56.3001 272.88 56.1801C272.44 55.3601 272.32 57.12 271.84 56.38L271.82 56.8101L271.79 56.74C271.82 56.96 271.78 57.27 271.73 57.35C271.61 56.89 271.59 56.28 271.41 56.33C271.2 55.9 271.02 56.61 270.85 56.88C270.97 56.95 270.97 57.21 270.94 57.37C270.85 57.4 270.73 56.94 270.69 57.15L270.6 56.53C270.72 57.11 270.44 57.2 270.44 57.46C270.32 57 270.53 57.0399 270.51 56.6899C270.14 56.7899 270.32 56.74 269.95 56.85C269.81 57.35 270.07 57.44 270.05 58C269.89 58.14 269.77 58.6 269.52 58.25L269.66 58.8C269.39 59.27 269.18 59.23 268.87 58.7C267.01 63.52 269.2 64.9301 269.2 64.9301C270.34 66.0401 270.62 64.36 271.72 63.79L271.66 63.76Z" fill="#20BB65"/>
<path d="M321.58 51.3901L321.67 51.6201C321.67 51.5101 321.64 51.4201 321.58 51.3901Z" fill="#20BB65"/>
<path d="M341.22 50.7198C341.22 50.7198 341.23 50.6899 341.24 50.6699C341.23 50.6899 341.22 50.7098 341.22 50.7198Z" fill="#20BB65"/>
<path d="M324.97 59.0698C324.97 59.0698 324.96 59.1099 324.95 59.1299L324.97 59.0698Z" fill="#20BB65"/>
<path d="M321.05 58.64C322.09 58.86 322.41 59.9299 323.44 59.4399C323.95 59.4999 324.47 59.2299 324.96 59.0699C325.15 58.2099 325.61 59.0301 325.85 58.3101L325.98 58.78C326.06 58.53 326.17 58.36 326.28 58.62V58.76C326.41 58.39 326.58 58.6 326.64 58.42V58.5601L326.81 58.49L326.79 58.6899C327.02 58.2899 327.28 58.2601 327.51 58.4301L327.47 57.85C327.98 58.48 328.11 57.27 328.57 58.02V58.16C329.06 56.61 329.48 59.17 329.99 57.7C329.93 57.88 330.03 58 330.03 58.14C330.29 57.96 330.56 57.87 330.53 56.73C330.72 56.73 330.7 57.08 330.74 57.52C330.72 57.02 330.88 56.81 331.03 56.77L330.97 56.97L331.39 56.79L331.28 55.85C331.52 56.11 331.37 57 331.58 56.76L331.55 55.98C331.87 56.12 332.09 57.3 332.41 57.87C333.67 58.17 334.98 56.15 336.18 57.5L336.24 58.09C336.28 58.95 336.54 56.82 336.6 57.61L336.73 57.22C336.77 57.37 336.85 57.54 336.79 57.73C336.92 57.76 336.92 57.62 337 57.36L337.14 57.89C337.64 58.3 338.05 57.26 338.58 57.46C339.22 58.54 340.39 57.53 341.07 56.95C342.03 55.66 343.14 59.08 344.12 57.62C344.15 57.74 344.23 57.47 344.23 57.37L345.13 57.5C345.13 57.5 346.21 57.59 346.9 56.79C347.58 55.99 347.89 54.3 346.25 50.73L346.27 50.54C345.77 50.08 345.46 49.98 345.11 50.92C345.06 49.77 344.7 50.8 344.59 50.42V50.33C344.29 51.21 343.98 49.59 343.68 50.38C343.69 50.29 343.7 49.97 343.77 49.95C343.55 50.1 343.26 50.3501 343.25 49.6801C342.74 49.8601 342.02 49.54 341.69 50.62L341.71 50.4301C341.52 51.1501 341.47 50.54 341.26 50.91C341.25 50.82 341.23 50.78 341.24 50.74C341.04 51.46 340.65 50.85 340.48 51.16V50.71L340.06 50.8199L340.21 50.91C340.17 52.13 339.9 50.1399 339.61 50.9399C339.33 50.7899 339.08 53.49 338.79 52.89C338.66 53.46 338.9 51.96 338.7 52.4C338.69 51.76 338.79 52 338.73 51.49C338.53 51.79 338.39 50.84 338.15 51.27L338.13 50.77C337.82 51.68 337.51 50.12 337.31 50.99C336.98 51.41 337.06 49.52 336.73 50.5L336.58 49.83C336.43 49.72 336.49 50.66 336.32 50.33C336.32 49.91 336.11 50 336.2 49.59C335.81 48.93 335.46 50.5499 334.95 49.4399C334.86 50.2699 334.6 49.78 334.54 50.4C334.52 50.04 334.05 50.3499 334.3 49.5699C334.32 49.5099 334.36 49.52 334.37 49.66L334.39 49.17C334.09 48.25 333.89 49.69 333.61 49.55C333.7 49.71 333.8 49.66 333.74 50L333.48 49.9399L333.52 49.53L333.13 49.3L333.2 49.8101C333.01 49.5501 332.92 48.69 332.72 49.42C332.64 49.83 332.92 50.1 332.72 50.27C332.46 49.93 332.07 49.42 331.75 49.27C331.8 49.84 331.71 49.8199 331.63 49.9399L331.6 49.4399C331.28 50.1399 331.44 48.35 331.12 48.91L331.14 48.5601L331.08 49.6C330.81 50.6 330.88 48.5701 330.59 49.9301C330.72 49.8401 330.69 51.0301 330.52 50.8101L330.55 50.33C330.46 50.43 330.44 50.64 330.38 50.54C330.43 50.28 330.38 49.8401 330.25 49.9301L330.32 49.33L330.1 50.22C329.89 49.71 329.6 50.3699 329.5 49.6899C329.5 49.6899 329.07 49.37 329 50.12C329.07 49.66 328.83 49.49 328.88 48.95C328.79 49.48 328.49 49.91 328.34 49.36L328.36 49.3C327.86 48.75 327.58 50.1099 327.12 49.4399C327.16 50.0199 326.93 49.71 327.01 50.45C326.6 51.2 326.14 48.98 326.08 51.27C325.89 51.4 325.82 50.75 325.71 50.63L325.75 50.51C325.38 50.71 325.28 50.74 324.99 50.7C324.86 50.93 324.89 51.99 324.63 51.75C324.69 51.32 324.59 51.41 324.5 51.41C324.56 51.34 324.57 51.19 324.43 50.91C324.42 51.04 324.4 51.1199 324.37 51.1899C324.37 51.1599 324.37 51.13 324.37 51.09C324.22 51.25 324.26 51.3801 324.33 51.4301C324.33 51.4901 324.33 51.5799 324.37 51.6899C324.18 51.1499 323.92 51.75 323.87 51.03C323.41 51.22 323.12 51.98 322.74 52.29C322.68 51.92 322.75 51.5899 322.86 51.4399L322.59 51.59C322.56 51.05 322.73 51.27 322.81 51.16C322.44 50.31 322.18 52.06 321.75 51.29L321.69 51.72L321.66 51.65C321.67 51.87 321.6 52.18 321.55 52.26C321.47 51.8 321.49 51.18 321.31 51.22C321.13 50.78 320.89 51.47 320.71 51.73C320.82 51.8 320.8 52.06 320.76 52.23C320.67 52.25 320.58 51.79 320.52 51.99L320.47 51.36C320.54 51.95 320.26 52.01 320.24 52.27C320.16 51.81 320.36 51.86 320.37 51.51C319.99 51.59 320.18 51.55 319.8 51.63C319.62 52.12 319.87 52.22 319.8 52.78C319.63 52.91 319.48 53.36 319.25 53L319.35 53.55C319.04 54 318.84 53.95 318.57 53.4C316.36 58.1 318.43 59.64 318.43 59.64C319.48 60.81 319.88 59.16 321.01 58.66L321.05 58.64Z" fill="#20BB65"/>
<path d="M371.97 52.2L372.02 52.4399C372.02 52.3299 372.02 52.24 371.97 52.2Z" fill="#20BB65"/>
<path d="M391.53 54.8199C391.53 54.8199 391.55 54.79 391.56 54.77C391.54 54.79 391.54 54.7999 391.53 54.8199Z" fill="#20BB65"/>
<path d="M374.12 60.3C374.12 60.3 374.1 60.33 374.09 60.36L374.12 60.3Z" fill="#20BB65"/>
<path d="M370.34 59.28C371.32 59.66 371.48 60.7701 372.57 60.4301C373.06 60.5701 373.61 60.38 374.11 60.3C374.43 59.48 374.75 60.3599 375.1 59.6899L375.15 60.1801C375.27 59.9501 375.4 59.7999 375.47 60.0699L375.45 60.21C375.63 59.87 375.77 60.1001 375.86 59.9301L375.84 60.0699L376.02 60.03L375.97 60.22C376.26 59.87 376.52 59.8699 376.72 60.0699L376.77 59.49C377.17 60.19 377.49 59.02 377.82 59.84L377.8 59.98C378.54 58.53 378.52 61.13 379.27 59.76C379.18 59.93 379.27 60.06 379.24 60.2C379.52 60.07 379.81 60.02 379.96 58.89C380.15 58.93 380.07 59.26 380.03 59.7C380.1 59.2 380.29 59.02 380.44 59.01L380.35 59.1899L380.79 59.08L380.84 58.13C381.03 58.43 380.74 59.28 380.99 59.08L381.09 58.3101C381.38 58.5101 381.4 59.7001 381.61 60.3101C382.79 60.8201 384.43 59.05 385.37 60.59L385.33 61.1801C385.22 62.0301 385.85 59.98 385.76 60.77L385.96 60.4C385.97 60.56 386.03 60.73 385.93 60.91C386.05 60.96 386.07 60.82 386.2 60.58L386.25 61.13C386.67 61.62 387.25 60.67 387.73 60.96C388.16 62.14 389.49 61.35 390.26 60.9C391.43 59.81 391.9 63.37 393.12 62.11C393.12 62.24 393.26 61.98 393.28 61.89L394.13 62.1801C394.13 62.1801 395.17 62.4699 395.99 61.8199C396.8 61.1599 397.43 59.56 396.49 55.74L396.55 55.5601C396.15 55.0101 395.85 54.85 395.33 55.71C395.5 54.57 394.95 55.51 394.9 55.13L394.93 55.04C394.46 55.85 394.45 54.2 394.01 54.92C394.04 54.83 394.1 54.52 394.17 54.52C393.93 54.62 393.59 54.82 393.7 54.16C393.16 54.24 392.51 53.8 391.99 54.79L392.05 54.61C391.74 55.29 391.79 54.67 391.52 55C391.52 54.91 391.52 54.86 391.52 54.83C391.19 55.5 390.91 54.83 390.7 55.11L390.77 54.67L390.35 54.7L390.48 54.8199C390.22 56.0199 390.31 54.01 389.88 54.74C389.63 54.54 388.9 57.16 388.72 56.52C388.49 57.06 388.99 55.62 388.72 56.02C388.82 55.39 388.88 55.64 388.91 55.13C388.66 55.4 388.69 54.4299 388.38 54.8199L388.45 54.33C387.98 55.17 387.95 53.59 387.6 54.41C387.21 54.76 387.62 52.9199 387.12 53.8199L387.09 53.13C386.96 53 386.85 53.93 386.74 53.58C386.82 53.16 386.59 53.21 386.74 52.83C386.47 52.12 385.84 53.64 385.53 52.46C385.3 53.26 385.13 52.74 384.96 53.34C385 52.98 384.48 53.21 384.87 52.48C384.9 52.42 384.94 52.44 384.92 52.58L385.03 52.1C384.89 51.14 384.45 52.53 384.19 52.35C384.25 52.52 384.36 52.4999 384.24 52.8199L383.99 52.72L384.1 52.3199L383.75 52.03L383.73 52.54C383.58 52.25 383.64 51.3899 383.33 52.0699C383.18 52.4599 383.41 52.77 383.19 52.9C382.99 52.52 382.69 51.95 382.39 51.75C382.34 52.32 382.26 52.29 382.15 52.39L382.21 51.9C381.78 52.54 382.24 50.8 381.82 51.3L381.9 50.96L381.67 51.98C381.23 52.92 381.65 50.93 381.13 52.22C381.27 52.15 381.05 53.32 380.91 53.08L381.02 52.61C380.92 52.7 380.86 52.89 380.81 52.79C380.9 52.54 380.93 52.1 380.79 52.16L380.96 51.58L380.59 52.42C380.46 51.88 380.07 52.48 380.08 51.8C380.08 51.8 379.7 51.42 379.51 52.14C379.65 51.69 379.44 51.49 379.58 50.96C379.4 51.46 379.03 51.85 378.97 51.28L379 51.22C378.59 50.6 378.09 51.89 377.75 51.16C377.7 51.74 377.51 51.4 377.48 52.14C376.96 52.81 376.85 50.55 376.43 52.8C376.22 52.9 376.26 52.24 376.17 52.11L376.23 52C375.83 52.14 375.72 52.1499 375.45 52.0699C375.29 52.2799 375.15 53.33 374.93 53.04C375.06 52.63 374.95 52.6999 374.85 52.6899C374.92 52.6299 374.95 52.4801 374.86 52.1801C374.83 52.3101 374.79 52.38 374.76 52.45C374.76 52.42 374.76 52.39 374.76 52.35C374.59 52.48 374.6 52.6101 374.67 52.6801C374.66 52.7401 374.66 52.83 374.67 52.95C374.57 52.39 374.22 52.94 374.28 52.22C373.79 52.34 373.38 53.04 372.97 53.28C372.97 52.9 373.09 52.59 373.22 52.45L372.93 52.5601C372.99 52.0301 373.12 52.27 373.22 52.17C372.98 51.27 372.46 52.96 372.15 52.13L372.03 52.54L372.01 52.47C371.99 52.69 371.87 52.99 371.81 53.05C371.81 52.58 371.92 51.98 371.73 51.99C371.62 51.53 371.28 52.17 371.06 52.4C371.16 52.49 371.1 52.74 371.04 52.9C370.94 52.9 370.93 52.44 370.84 52.63L370.89 52C370.87 52.59 370.58 52.61 370.52 52.87C370.51 52.4 370.71 52.48 370.76 52.14C370.37 52.16 370.57 52.15 370.18 52.17C369.93 52.62 370.16 52.7701 370.01 53.3101C369.82 53.4201 369.61 53.8399 369.43 53.4399V54C369.07 54.4 368.88 54.32 368.7 53.74C367.25 55.9 367 57.4399 367.1 58.4399C367.2 59.4399 367.64 59.9 367.64 59.9C368.5 61.21 369.13 59.6401 370.32 59.3101L370.34 59.28Z" fill="#20BB65"/>
<path d="M421.44 62.4902V62.7402C421.47 62.6402 421.48 62.5402 421.44 62.4902Z" fill="#20BB65"/>
<path d="M439.97 69.4401C439.97 69.4401 439.99 69.4201 440.01 69.4001C439.99 69.4101 439.98 69.4201 439.97 69.4401Z" fill="#20BB65"/>
<path d="M421.77 70.8701C421.77 70.8701 421.75 70.9002 421.73 70.9202L421.77 70.8701Z" fill="#20BB65"/>
<path d="M418.32 69.0502C419.19 69.6402 419.1 70.7502 420.23 70.6702C420.67 70.9102 421.26 70.8401 421.76 70.8701C422.25 70.1401 422.37 71.0601 422.86 70.4801L422.8 70.9701C422.97 70.7701 423.13 70.6502 423.13 70.9302L423.08 71.0602C423.33 70.7602 423.41 71.0201 423.54 70.8701L423.49 71.0002H423.67L423.58 71.1702C423.94 70.8802 424.19 70.9402 424.34 71.1702L424.52 70.6201C424.75 71.3801 425.33 70.3102 425.48 71.1702L425.43 71.3002C426.47 70.0502 425.88 72.5702 426.91 71.4102C426.78 71.5602 426.83 71.7001 426.78 71.8301C427.08 71.7701 427.37 71.7801 427.77 70.7201C427.94 70.8001 427.79 71.1102 427.66 71.5302C427.84 71.0602 428.06 70.9301 428.21 70.9501L428.08 71.1101H428.54L428.8 70.1901C428.91 70.5201 428.44 71.2902 428.73 71.1502L429.01 70.4202C429.25 70.6802 428.99 71.8501 429.06 72.4901C430.09 73.2501 432.08 71.9001 432.64 73.6201L432.46 74.1802C432.15 74.9802 433.24 73.1302 432.98 73.8802L433.25 73.5701C433.23 73.7301 433.24 73.9102 433.1 74.0602C433.2 74.1402 433.26 74.0102 433.44 73.8102L433.36 74.3501C433.65 74.9201 434.44 74.1302 434.83 74.5302C434.97 75.7702 436.43 75.3202 437.29 75.0602C438.69 74.2802 438.28 77.8402 439.76 76.9202C439.74 77.0402 439.93 76.8301 439.97 76.7401L440.72 77.2301C440.72 77.2301 441.65 77.7601 442.61 77.3301C443.56 76.8901 444.57 75.5001 444.6 71.5701L444.7 71.4102C444.44 70.7802 444.19 70.5502 443.48 71.2502C443.92 70.1802 443.16 70.9701 443.21 70.5801L443.26 70.5002C442.61 71.1702 443 69.5602 442.39 70.1602C442.44 70.0802 442.58 69.8002 442.65 69.8102C442.39 69.8502 442.02 69.9601 442.28 69.3401C441.74 69.2801 441.2 68.7002 440.46 69.5402L440.56 69.3802C440.09 69.9602 440.29 69.3802 439.95 69.6302C439.98 69.5502 439.98 69.5001 440 69.4701C439.52 70.0401 439.41 69.3302 439.13 69.5402L439.3 69.1302L438.88 69.0602L438.98 69.2101C438.44 70.3101 439 68.3801 438.41 68.9901C438.22 68.7401 436.89 71.1001 436.86 70.4401C436.51 70.9101 437.34 69.6301 436.98 69.9601C437.23 69.3701 437.23 69.6302 437.38 69.1402C437.08 69.3402 437.33 68.4101 436.94 68.7101L437.13 68.2502C436.48 68.9602 436.82 67.4101 436.28 68.1201C435.81 68.3701 436.64 66.6702 435.95 67.4302L436.08 66.7602C435.98 66.6002 435.66 67.4801 435.64 67.1201C435.81 66.7301 435.58 66.7302 435.82 66.3902C435.72 65.6302 434.76 66.9702 434.72 65.7502C434.31 66.4702 434.26 65.9301 433.96 66.4701C434.08 66.1301 433.52 66.2301 434.07 65.6101C434.12 65.5601 434.15 65.5901 434.1 65.7201L434.31 65.2802C434.39 64.3202 433.64 65.5601 433.44 65.3201C433.46 65.5001 433.58 65.5002 433.38 65.7902L433.16 65.6302L433.36 65.2702L433.09 64.9002L432.95 65.3902C432.87 65.0802 433.12 64.2401 432.66 64.8401C432.42 65.1801 432.58 65.5401 432.33 65.6201C432.22 65.2101 432.06 64.5801 431.81 64.3201C431.63 64.8701 431.56 64.8202 431.43 64.8902L431.6 64.4202C431.03 64.9402 431.87 63.3501 431.36 63.7401L431.51 63.4302L431.05 64.3701C430.41 65.1801 431.26 63.3401 430.46 64.4801C430.62 64.4501 430.13 65.5302 430.05 65.2702L430.26 64.8301C430.14 64.8901 430.04 65.0701 430.02 64.9601C430.16 64.7401 430.29 64.3201 430.14 64.3501L430.44 63.8201L429.89 64.5602C429.89 64.0102 429.37 64.5001 429.53 63.8401C429.53 63.8401 429.25 63.3802 428.9 64.0402C429.14 63.6402 428.98 63.3902 429.23 62.9102C428.95 63.3602 428.49 63.6501 428.56 63.0801L428.6 63.0302C428.34 62.3402 427.56 63.5001 427.38 62.7101C427.2 63.2601 427.09 62.8901 426.9 63.6101C426.24 64.1601 426.63 61.9402 425.72 64.0402C425.49 64.0902 425.67 63.4601 425.61 63.3201L425.7 63.2201C425.28 63.2801 425.17 63.2601 424.92 63.1201C424.71 63.2901 424.35 64.2801 424.19 63.9601C424.4 63.5901 424.28 63.6301 424.19 63.6001C424.27 63.5601 424.34 63.4201 424.31 63.1101C424.25 63.2301 424.2 63.3001 424.15 63.3501C424.15 63.3201 424.16 63.2902 424.18 63.2502C423.98 63.3402 423.97 63.4702 424.02 63.5502C424 63.6102 423.97 63.6902 423.96 63.8102C423.98 63.2402 423.52 63.7002 423.73 63.0102C423.23 63.0102 422.67 63.6202 422.21 63.7702C422.29 63.4002 422.48 63.1202 422.63 63.0202L422.32 63.0602C422.49 62.5502 422.57 62.8201 422.68 62.7401C422.64 61.8101 421.76 63.3401 421.64 62.4701L421.43 62.8501V62.7802C421.36 62.9902 421.18 63.2602 421.11 63.3102C421.2 62.8502 421.45 62.2902 421.26 62.2502C421.26 61.7702 420.78 62.3302 420.51 62.5002C420.59 62.6102 420.47 62.8401 420.38 62.9901C420.28 62.9701 420.38 62.5102 420.24 62.6802L420.42 62.0801C420.27 62.6601 419.99 62.6101 419.87 62.8401C419.96 62.3801 420.13 62.5002 420.26 62.1802C419.88 62.1102 420.07 62.1501 419.69 62.0801C419.35 62.4701 419.54 62.6602 419.28 63.1502C419.07 63.2102 418.77 63.5702 418.69 63.1502L418.58 63.7001C418.13 64.0101 417.96 63.8802 417.91 63.2702C416.04 65.0502 415.47 66.5002 415.35 67.5002C415.23 68.5002 415.56 69.0502 415.56 69.0502C416.1 70.5402 417.06 69.1401 418.28 69.0901L418.32 69.0502Z" fill="#20BB65"/>
<path d="M466.95 84.79L466.88 85.03C466.94 84.94 466.98 84.86 466.95 84.79Z" fill="#20BB65"/>
<path d="M482.31 97.5503C482.31 97.5503 482.34 97.5403 482.36 97.5303C482.34 97.5303 482.32 97.5403 482.31 97.5503Z" fill="#20BB65"/>
<path d="M464.74 92.8701C464.74 92.8701 464.71 92.8901 464.69 92.9001L464.74 92.8701Z" fill="#20BB65"/>
<path d="M462.04 90.1401C462.7 90.9401 462.27 91.9801 463.37 92.2201C463.71 92.5801 464.28 92.6901 464.74 92.8701C465.43 92.3301 465.25 93.2401 465.89 92.8401L465.68 93.2902C465.9 93.1502 466.09 93.0901 466 93.3501L465.91 93.4601C466.24 93.2601 466.23 93.5202 466.4 93.4202L466.31 93.5302L466.48 93.5801L466.34 93.7201C466.77 93.5601 466.98 93.7001 467.05 93.9701L467.39 93.5001C467.36 94.3001 468.24 93.4601 468.1 94.3301L468.01 94.4401C469.39 93.5701 468.01 95.7901 469.36 95.0001C469.19 95.1001 469.19 95.2501 469.1 95.3601C469.4 95.3901 469.67 95.5001 470.4 94.6201C470.54 94.7501 470.29 94.9901 470.03 95.3501C470.35 94.9601 470.6 94.9101 470.74 94.9801L470.57 95.0901L471 95.2301L471.54 94.4501C471.54 94.8001 470.85 95.3701 471.16 95.3301L471.66 94.7301C471.8 95.0501 471.18 96.0701 471.03 96.7001C471.74 97.7401 474.06 97.1202 473.99 98.9202L473.63 99.3901C473.07 100.04 474.72 98.6602 474.21 99.2802L474.57 99.0801C474.49 99.2201 474.44 99.3901 474.26 99.4901C474.33 99.6001 474.42 99.4901 474.67 99.3701L474.41 99.8501C474.48 100.48 475.49 100 475.72 100.51C475.41 101.72 476.93 101.79 477.81 101.85C479.4 101.61 477.71 104.78 479.42 104.44C479.35 104.55 479.61 104.42 479.68 104.35L480.19 105.07C480.19 105.07 480.84 105.9 481.88 105.85C482.91 105.79 484.4 104.91 485.88 101.25L486.03 101.14C486.03 100.45 485.87 100.14 484.94 100.53C485.74 99.7002 484.74 100.14 484.93 99.8002L485.01 99.7401C484.15 100.12 485.1 98.7601 484.32 99.0901C484.39 99.0401 484.63 98.8201 484.69 98.8601C484.43 98.8001 484.04 98.7702 484.51 98.2902C484.02 98.0402 483.72 97.2902 482.73 97.8102L482.88 97.7001C482.23 98.0801 482.63 97.6001 482.22 97.7101C482.27 97.6401 482.29 97.6001 482.32 97.5701C481.67 97.9301 481.81 97.2201 481.48 97.3201L481.78 96.9901L481.41 96.7701L481.45 96.9501C480.56 97.7901 481.76 96.1802 480.99 96.5402C480.89 96.2302 478.82 97.9901 479.03 97.3601C478.54 97.6801 479.76 96.7701 479.31 96.9501C479.74 96.4801 479.66 96.7301 479.97 96.3201C479.62 96.4001 480.18 95.6201 479.7 95.7601L480.03 95.3901C479.17 95.8301 480.03 94.4901 479.27 94.9801C478.74 95.0501 480.1 93.7401 479.19 94.2201L479.54 93.6301C479.5 93.4501 478.9 94.1702 479 93.8102C479.29 93.5002 479.07 93.4202 479.41 93.1802C479.57 92.4302 478.2 93.3601 478.58 92.1901C477.95 92.7301 478.09 92.1901 477.62 92.6101C477.85 92.3301 477.28 92.2301 478.01 91.8301C478.07 91.8001 478.09 91.8301 478 91.9401L478.35 91.6001C478.74 90.7101 477.62 91.6401 477.5 91.3501C477.46 91.5301 477.57 91.5701 477.29 91.7701L477.13 91.5502L477.44 91.2701L477.3 90.8301L477.01 91.2501C477.04 90.9301 477.55 90.2201 476.91 90.6301C476.57 90.8701 476.6 91.2701 476.34 91.2601C476.37 90.8301 476.42 90.1801 476.26 89.8501C475.91 90.3101 475.86 90.2401 475.72 90.2701L476.03 89.8801C475.32 90.1901 476.63 88.9602 476.02 89.1602L476.27 88.9102L475.53 89.6501C474.66 90.2101 476.06 88.7502 474.94 89.5602C475.1 89.5802 474.29 90.4502 474.3 90.1702L474.64 89.8301C474.5 89.8501 474.35 89.9901 474.37 89.8701C474.58 89.7001 474.84 89.3501 474.68 89.3301L475.13 88.9202L474.37 89.4401C474.54 88.9101 473.89 89.2201 474.25 88.6401C474.25 88.6401 474.12 88.1101 473.58 88.6301C473.94 88.3201 473.86 88.0402 474.25 87.6602C473.84 88.0002 473.32 88.1201 473.56 87.6101L473.62 87.5801C473.59 86.8301 472.48 87.6801 472.56 86.8601C472.22 87.3301 472.23 86.9402 471.82 87.5602C471.02 87.8602 472.08 85.8701 470.57 87.5801C470.33 87.5501 470.7 87.0101 470.69 86.8501L470.8 86.7802C470.38 86.7002 470.28 86.6502 470.09 86.4302C469.84 86.5202 469.19 87.3601 469.14 87.0001C469.46 86.7101 469.33 86.7102 469.25 86.6602C469.34 86.6402 469.45 86.5301 469.51 86.2301C469.42 86.3201 469.35 86.3702 469.29 86.4102C469.31 86.3802 469.32 86.3601 469.35 86.3201C469.13 86.3501 469.08 86.4702 469.1 86.5602C469.06 86.6102 469.01 86.6802 468.96 86.7902C469.15 86.2602 468.57 86.5501 468.99 85.9501C468.51 85.8001 467.8 86.2001 467.31 86.2001C467.49 85.8701 467.76 85.6601 467.94 85.6101L467.63 85.5602C467.95 85.1302 467.94 85.4001 468.07 85.3701C468.31 84.4701 467.01 85.6702 467.15 84.8002L466.84 85.1001L466.86 85.0302C466.73 85.2102 466.48 85.4101 466.39 85.4401C466.62 85.0301 467.02 84.5601 466.84 84.4801C466.98 84.0201 466.35 84.4101 466.05 84.5001C466.09 84.6301 465.92 84.8202 465.78 84.9302C465.69 84.8902 465.91 84.4701 465.74 84.6001L466.09 84.0801C465.78 84.5901 465.52 84.4601 465.34 84.6501C465.56 84.2401 465.69 84.4101 465.91 84.1301C465.56 83.9601 465.73 84.0401 465.38 83.8701C464.94 84.1401 465.07 84.3802 464.68 84.7802C464.46 84.7802 464.07 85.0401 464.11 84.6101L463.85 85.1101C463.33 85.2801 463.2 85.1101 463.32 84.5201C461 85.7001 460.05 86.9401 459.65 87.8601C459.25 88.7801 459.41 89.3901 459.41 89.3901C459.5 90.9401 460.82 89.8702 462 90.1602L462.04 90.1401Z" fill="#20BB65"/>
<path d="M500.58 123.03L500.4 123.2C500.5 123.15 500.57 123.09 500.58 123.03Z" fill="#20BB65"/>
<path d="M493.69 125.35C493.87 126.35 492.99 127.05 493.82 127.77C493.93 128.24 494.37 128.61 494.68 128.98C495.55 128.85 494.93 129.54 495.69 129.51L495.29 129.79C495.55 129.78 495.74 129.82 495.54 130L495.41 130.05C495.8 130.04 495.66 130.26 495.85 130.25L495.72 130.3L495.84 130.43L495.64 130.48C496.09 130.55 496.2 130.77 496.12 131.04L496.65 130.81C496.22 131.48 497.4 131.2 496.84 131.87L496.71 131.92C498.34 131.87 496.03 133.07 497.58 133.07C497.39 133.07 497.31 133.2 497.18 133.24C497.42 133.42 497.6 133.64 498.67 133.26C498.72 133.44 498.39 133.52 497.98 133.69C498.45 133.52 498.7 133.6 498.78 133.73H498.58L498.88 134.07L499.74 133.68C499.56 133.98 498.67 134.11 498.96 134.24L499.7 133.98C499.65 134.32 498.59 134.87 498.14 135.33C498.2 136.57 500.49 137.25 499.49 138.73L498.94 138.94C498.12 139.19 500.25 138.89 499.49 139.15L499.9 139.17C499.76 139.25 499.62 139.37 499.42 139.35C499.42 139.48 499.56 139.44 499.83 139.46L499.35 139.73C499.07 140.3 500.18 140.42 500.1 140.97C499.19 141.82 500.44 142.68 501.14 143.21C502.61 143.86 499.47 145.61 501.09 146.24C500.98 146.29 501.26 146.32 501.36 146.3L501.4 147.18C501.4 147.18 501.5 148.23 502.4 148.75C503.3 149.26 505.03 149.33 508.26 147.07H508.45C508.82 146.48 508.86 146.14 507.87 145.96C508.99 145.7 507.91 145.52 508.26 145.34H508.35C507.42 145.19 508.96 144.56 508.12 144.41C508.21 144.41 508.52 144.35 508.56 144.41C508.37 144.22 508.06 143.98 508.72 143.83C508.44 143.35 508.6 142.55 507.48 142.45L507.67 142.43C506.92 142.4 507.51 142.21 507.1 142.08C507.18 142.05 507.22 142.02 507.26 142.02C506.52 141.97 507.02 141.45 506.68 141.36L507.11 141.25L506.92 140.87L506.86 141.04C505.66 141.27 507.54 140.56 506.69 140.45C506.77 140.14 504.08 140.51 504.59 140.09C504 140.09 505.52 139.98 505.05 139.89C505.67 139.73 505.46 139.89 505.94 139.71C505.6 139.59 506.49 139.22 506.01 139.09L506.49 138.95C505.53 138.86 506.96 138.18 506.06 138.19C505.58 137.97 507.42 137.58 506.39 137.49L507 137.18C507.06 137 506.18 137.3 506.45 137.05C506.86 136.95 506.72 136.75 507.13 136.74C507.66 136.18 506.01 136.25 506.94 135.45C506.12 135.58 506.52 135.2 505.9 135.3C506.24 135.18 505.81 134.8 506.64 134.84C506.71 134.84 506.71 134.89 506.57 134.93L507.05 134.82C507.85 134.27 506.4 134.46 506.46 134.15C506.33 134.28 506.41 134.37 506.06 134.4L506.04 134.13L506.45 134.06L506.56 133.61L506.09 133.82C506.28 133.56 507.08 133.22 506.33 133.24C505.92 133.27 505.73 133.63 505.52 133.48C505.77 133.13 506.14 132.59 506.18 132.23C505.65 132.44 505.64 132.35 505.5 132.3L505.97 132.13C505.2 132.02 506.96 131.65 506.33 131.5L506.67 131.42L505.66 131.67C504.63 131.7 506.58 131.17 505.19 131.28C505.31 131.38 504.18 131.71 504.33 131.48L504.8 131.36C504.67 131.31 504.47 131.34 504.54 131.25C504.8 131.22 505.21 131.04 505.08 130.94L505.68 130.82L504.76 130.87C505.18 130.5 504.46 130.43 505.06 130.11C505.06 130.11 505.22 129.58 504.49 129.75C504.95 129.67 505.03 129.38 505.56 129.26C505.03 129.34 504.52 129.18 504.99 128.85H505.06C505.41 128.18 504.03 128.35 504.51 127.68C503.98 127.91 504.19 127.58 503.52 127.91C502.68 127.76 504.59 126.57 502.42 127.29C502.23 127.15 502.82 126.86 502.89 126.72H503.02C502.7 126.43 502.63 126.34 502.57 126.05C502.31 126 501.33 126.41 501.46 126.07C501.88 125.98 501.77 125.91 501.73 125.83C501.82 125.86 501.97 125.81 502.17 125.59C502.04 125.63 501.96 125.63 501.89 125.64C501.92 125.63 501.94 125.61 501.98 125.59C501.78 125.5 501.67 125.59 501.65 125.67C501.59 125.69 501.52 125.73 501.42 125.8C501.85 125.43 501.2 125.39 501.85 125.08C501.5 124.71 500.69 124.7 500.26 124.46C500.58 124.26 500.92 124.21 501.1 124.25L500.86 124.05C501.35 123.83 501.21 124.07 501.34 124.1C501.98 123.43 500.26 123.84 500.81 123.14L500.39 123.25L500.44 123.2C500.24 123.3 499.93 123.35 499.84 123.33C500.24 123.08 500.81 122.87 500.7 122.7C501.04 122.36 500.3 122.4 499.99 122.33C499.97 122.46 499.72 122.54 499.55 122.58C499.49 122.5 499.89 122.24 499.67 122.27L500.23 121.98C499.71 122.28 499.54 122.04 499.3 122.12C499.69 121.86 499.73 122.08 500.05 121.94C499.82 121.61 499.94 121.78 499.71 121.45C499.19 121.48 499.2 121.75 498.66 121.91C498.47 121.8 498 121.84 498.24 121.48L497.77 121.79C497.23 121.69 497.19 121.48 497.58 121.02C494.98 120.97 493.56 121.62 492.78 122.25C491.99 122.88 491.84 123.48 491.84 123.48C491.18 124.87 492.84 124.53 493.73 125.34L493.69 125.35Z" fill="#20BB65"/>
<path d="M508.84 173.32L508.6 173.37C508.71 173.38 508.8 173.37 508.84 173.32Z" fill="#20BB65"/>
<path d="M504.88 192.97C504.88 192.97 504.91 192.99 504.92 193C504.91 192.98 504.89 192.97 504.88 192.97Z" fill="#20BB65"/>
<path d="M500.71 175.32C500.71 175.32 500.68 175.3 500.65 175.29L500.71 175.32Z" fill="#20BB65"/>
<path d="M501.77 171.67C501.4 172.63 500.28 172.76 500.61 173.82C500.46 174.29 500.64 174.83 500.71 175.32C501.52 175.66 500.63 175.94 501.3 176.3L500.81 176.33C501.04 176.46 501.18 176.59 500.91 176.64L500.77 176.61C501.11 176.8 500.87 176.92 501.04 177.02L500.9 176.99L500.94 177.16L500.75 177.1C501.1 177.4 501.08 177.65 500.87 177.83L501.45 177.91C500.73 178.26 501.89 178.63 501.06 178.92L500.92 178.89C502.34 179.69 499.74 179.53 501.07 180.34C500.9 180.24 500.77 180.31 500.63 180.28C500.75 180.56 500.78 180.84 501.9 181.07C501.85 181.25 501.52 181.15 501.08 181.09C501.57 181.19 501.74 181.38 501.74 181.53L501.56 181.43L501.64 181.87L502.58 181.98C502.27 182.14 501.44 181.81 501.62 182.06L502.39 182.22C502.18 182.49 500.98 182.43 500.36 182.59C499.78 183.7 501.41 185.45 499.8 186.23L499.22 186.13C498.38 185.94 500.37 186.75 499.59 186.59L499.93 186.82C499.77 186.82 499.59 186.85 499.42 186.74C499.36 186.85 499.49 186.89 499.72 187.04H499.17C498.64 187.39 499.54 188.05 499.19 188.49C497.98 188.78 498.62 190.15 498.98 190.96C499.93 192.25 496.34 192.23 497.43 193.58C497.31 193.57 497.54 193.73 497.63 193.77L497.23 194.55C497.23 194.55 496.8 195.51 497.32 196.41C497.85 197.3 499.32 198.2 503.25 197.83L503.42 197.92C504.03 197.6 504.23 197.32 503.46 196.67C504.57 197 503.71 196.31 504.1 196.32L504.19 196.36C503.45 195.78 505.1 195.99 504.45 195.45C504.53 195.49 504.83 195.6 504.83 195.67C504.76 195.41 504.61 195.05 505.25 195.24C505.25 194.68 505.77 194.08 504.85 193.43L505.02 193.51C504.39 193.11 504.99 193.24 504.7 192.93C504.79 192.94 504.83 192.94 504.87 192.96C504.25 192.55 504.94 192.35 504.7 192.1L505.13 192.22L505.15 191.79L505.01 191.91C503.85 191.51 505.84 191.83 505.16 191.32C505.39 191.09 502.87 190.07 503.52 189.96C503.01 189.67 504.38 190.33 504.01 190.01C504.63 190.18 504.37 190.21 504.87 190.3C504.63 190.02 505.59 190.16 505.24 189.8L505.72 189.92C504.93 189.36 506.51 189.49 505.73 189.05C505.42 188.62 507.22 189.21 506.37 188.62L507.06 188.66C507.2 188.54 506.29 188.35 506.65 188.27C507.06 188.39 507.03 188.15 507.4 188.34C508.14 188.13 506.67 187.36 507.88 187.14C507.11 186.84 507.64 186.71 507.06 186.48C507.41 186.55 507.24 186 507.93 186.46C507.99 186.5 507.96 186.54 507.83 186.5L508.3 186.65C509.27 186.58 507.92 186.02 508.13 185.78C507.95 185.83 507.97 185.95 507.66 185.8L507.78 185.56L508.17 185.71L508.49 185.38L507.98 185.32C508.28 185.19 509.14 185.32 508.48 184.94C508.11 184.76 507.77 184.97 507.66 184.74C508.06 184.57 508.65 184.3 508.86 184C508.29 183.91 508.33 183.83 508.23 183.72L508.72 183.81C508.11 183.33 509.82 183.91 509.35 183.45L509.68 183.55L508.68 183.25C507.78 182.75 509.73 183.29 508.48 182.68C508.54 182.83 507.39 182.53 507.64 182.41L508.1 182.54C508.02 182.43 507.83 182.36 507.94 182.32C508.18 182.42 508.62 182.48 508.57 182.33L509.14 182.54L508.32 182.12C508.86 182.02 508.29 181.59 508.97 181.63C508.97 181.63 509.38 181.26 508.66 181.03C509.1 181.2 509.31 180.99 509.83 181.16C509.34 180.96 508.98 180.56 509.55 180.52L509.61 180.56C510.25 180.17 508.98 179.6 509.74 179.28C509.17 179.21 509.52 179.03 508.78 178.97C508.14 178.41 510.39 178.38 508.16 177.88C508.07 177.66 508.73 177.72 508.86 177.63L508.97 177.7C508.84 177.29 508.84 177.18 508.93 176.9C508.73 176.73 507.69 176.56 507.97 176.34C508.38 176.48 508.31 176.37 508.33 176.27C508.39 176.34 508.54 176.38 508.84 176.29C508.71 176.25 508.64 176.22 508.57 176.18C508.6 176.18 508.63 176.18 508.67 176.19C508.54 176.01 508.41 176.02 508.34 176.09C508.28 176.08 508.19 176.07 508.08 176.09C508.64 176 508.1 175.63 508.82 175.7C508.71 175.2 508.02 174.77 507.78 174.35C508.16 174.35 508.47 174.48 508.6 174.61L508.5 174.31C509.03 174.37 508.79 174.51 508.89 174.61C509.79 174.37 508.11 173.82 508.94 173.52L508.53 173.39L508.6 173.37C508.38 173.35 508.08 173.23 508.02 173.16C508.49 173.16 509.09 173.28 509.08 173.08C509.55 172.97 508.9 172.62 508.67 172.4C508.58 172.5 508.33 172.44 508.17 172.38C508.17 172.28 508.63 172.27 508.44 172.18L509.07 172.23C508.48 172.21 508.45 171.92 508.2 171.86C508.67 171.85 508.59 172.05 508.93 172.1C508.91 171.71 508.92 171.9 508.9 171.51C508.45 171.26 508.3 171.5 507.76 171.35C507.65 171.16 507.23 170.95 507.63 170.77L507.07 170.79C506.67 170.42 506.74 170.22 507.32 170.04C505.14 168.62 503.59 168.42 502.59 168.53C501.59 168.64 501.14 169.08 501.14 169.08C499.84 169.92 501.43 170.51 501.76 171.68L501.77 171.67Z" fill="#20BB65"/>
<path d="M490.67 220.95L490.44 220.87C490.53 220.93 490.61 220.97 490.67 220.95Z" fill="#20BB65"/>
<path d="M477.28 235.72C477.28 235.72 477.29 235.75 477.3 235.77C477.3 235.75 477.29 235.73 477.28 235.72Z" fill="#20BB65"/>
<path d="M482.69 218.39C482.69 218.39 482.67 218.36 482.66 218.34L482.69 218.39Z" fill="#20BB65"/>
<path d="M485.5 215.84C484.67 216.45 483.67 215.99 483.38 217.06C483.01 217.38 482.89 217.94 482.68 218.39C483.19 219.1 482.29 218.88 482.67 219.54L482.24 219.31C482.37 219.54 482.42 219.72 482.16 219.63L482.06 219.54C482.25 219.88 481.98 219.86 482.08 220.03L481.98 219.93L481.92 220.1L481.79 219.95C481.93 220.38 481.79 220.59 481.51 220.64L481.96 221C481.17 220.93 481.96 221.85 481.1 221.67L481 221.57C481.79 222.99 479.66 221.52 480.38 222.9C480.29 222.73 480.14 222.72 480.04 222.62C479.99 222.92 479.87 223.18 480.72 223.95C480.58 224.08 480.35 223.82 480.01 223.55C480.38 223.89 480.42 224.15 480.35 224.28L480.25 224.1L480.09 224.53L480.84 225.11C480.49 225.09 479.95 224.37 479.98 224.69L480.56 225.22C480.23 225.34 479.24 224.67 478.62 224.5C477.55 225.17 478.05 227.52 476.26 227.38L475.81 227C475.18 226.41 476.49 228.12 475.9 227.59L476.08 227.96C475.94 227.88 475.77 227.82 475.68 227.64C475.57 227.7 475.67 227.81 475.79 228.05L475.32 227.77C474.68 227.82 475.11 228.84 474.6 229.06C473.4 228.72 473.26 230.23 473.18 231.13C473.36 232.72 470.24 230.98 470.52 232.7C470.41 232.63 470.54 232.89 470.61 232.96L469.87 233.47C469.87 233.47 469.02 234.12 469.05 235.17C469.09 236.21 469.99 237.68 473.62 239.2L473.73 239.35C474.41 239.35 474.72 239.21 474.34 238.28C475.16 239.1 474.73 238.09 475.06 238.28L475.12 238.36C474.75 237.5 476.09 238.47 475.77 237.69C475.82 237.77 476.03 238 476 238.06C476.06 237.81 476.11 237.42 476.57 237.9C476.83 237.42 477.57 237.14 477.08 236.14L477.19 236.29C476.83 235.64 477.29 236.04 477.19 235.63C477.26 235.69 477.3 235.71 477.32 235.74C476.98 235.08 477.68 235.24 477.58 234.91L477.9 235.22L478.12 234.86L477.94 234.9C477.13 233.98 478.7 235.24 478.36 234.46C478.67 234.38 476.99 232.25 477.61 232.48C477.31 231.98 478.18 233.23 478.01 232.77C478.46 233.22 478.22 233.12 478.62 233.45C478.55 233.09 479.31 233.68 479.19 233.2L479.55 233.55C479.14 232.68 480.45 233.58 479.99 232.82C479.94 232.29 481.2 233.71 480.75 232.77L481.32 233.15C481.5 233.12 480.81 232.49 481.16 232.6C481.45 232.91 481.55 232.69 481.77 233.04C482.51 233.23 481.64 231.84 482.79 232.26C482.27 231.61 482.79 231.77 482.41 231.28C482.68 231.52 482.8 230.96 483.17 231.7C483.2 231.76 483.17 231.78 483.06 231.69L483.39 232.05C484.25 232.48 483.39 231.32 483.68 231.22C483.5 231.17 483.46 231.28 483.27 230.99L483.5 230.85L483.76 231.17L484.2 231.05L483.79 230.74C484.11 230.78 484.79 231.33 484.41 230.67C484.18 230.32 483.79 230.33 483.81 230.08C484.24 230.13 484.88 230.21 485.21 230.08C484.77 229.71 484.84 229.66 484.82 229.52L485.19 229.85C484.92 229.13 486.08 230.5 485.91 229.87L486.15 230.13L485.44 229.36C484.92 228.46 486.32 229.93 485.55 228.77C485.52 228.93 484.7 228.08 484.97 228.1L485.3 228.45C485.29 228.31 485.16 228.16 485.27 228.18C485.43 228.39 485.77 228.67 485.8 228.51L486.18 228.98L485.7 228.2C486.22 228.4 485.95 227.73 486.51 228.12C486.51 228.12 487.05 228.02 486.55 227.45C486.84 227.82 487.13 227.76 487.49 228.17C487.17 227.74 487.07 227.21 487.57 227.48L487.6 227.54C488.35 227.54 487.57 226.41 488.37 226.52C487.92 226.16 488.31 226.19 487.71 225.75C487.44 224.94 489.39 226.09 487.75 224.5C487.79 224.27 488.32 224.66 488.47 224.65L488.53 224.76C488.63 224.35 488.69 224.24 488.91 224.06C488.83 223.81 488.02 223.12 488.38 223.08C488.65 223.41 488.66 223.28 488.72 223.21C488.73 223.3 488.84 223.41 489.14 223.49C489.05 223.39 489.01 223.32 488.97 223.26C489 223.28 489.02 223.29 489.05 223.32C489.04 223.1 488.92 223.04 488.82 223.06C488.77 223.02 488.7 222.97 488.6 222.91C489.13 223.13 488.86 222.53 489.44 222.97C489.61 222.49 489.23 221.76 489.26 221.27C489.58 221.47 489.78 221.74 489.82 221.92L489.89 221.62C490.31 221.95 490.03 221.94 490.06 222.07C490.95 222.34 489.81 221 490.68 221.17L490.39 220.85L490.46 220.87C490.28 220.73 490.09 220.48 490.07 220.39C490.47 220.63 490.92 221.05 491.02 220.88C491.47 221.03 491.11 220.39 491.03 220.08C490.9 220.12 490.72 219.93 490.61 219.8C490.66 219.71 491.06 219.95 490.95 219.77L491.46 220.14C490.96 219.81 491.1 219.55 490.91 219.37C491.32 219.6 491.14 219.73 491.41 219.96C491.6 219.61 491.5 219.78 491.69 219.43C491.43 218.98 491.19 219.11 490.8 218.7C490.8 218.48 490.56 218.08 490.99 218.13L490.5 217.85C490.35 217.32 490.52 217.2 491.11 217.34C489.99 214.99 488.76 214.02 487.86 213.6C486.95 213.18 486.34 213.32 486.34 213.32C484.8 213.35 485.84 214.68 485.52 215.85L485.5 215.84Z" fill="#20BB65"/>
<path d="M453.18 255.09L452.98 254.94C453.04 255.03 453.11 255.09 453.18 255.09Z" fill="#20BB65"/>
<path d="M436.64 265.81C436.64 265.81 436.64 265.84 436.65 265.86C436.65 265.84 436.65 265.82 436.64 265.81Z" fill="#20BB65"/>
<path d="M446.28 250.32C446.28 250.32 446.27 250.28 446.26 250.26V250.32H446.28Z" fill="#20BB65"/>
<path d="M449.81 248.65C448.82 249 447.98 248.26 447.37 249.22C446.91 249.43 446.61 249.94 446.28 250.32C446.56 251.15 445.76 250.69 445.92 251.43L445.56 251.09C445.62 251.34 445.62 251.54 445.39 251.38L445.32 251.26C445.41 251.64 445.15 251.55 445.2 251.74L445.13 251.62L445.02 251.77L444.93 251.59C444.93 252.05 444.74 252.21 444.46 252.19L444.8 252.66C444.04 252.38 444.56 253.49 443.77 253.08L443.7 252.96C444.08 254.54 442.4 252.56 442.73 254.09C442.69 253.9 442.54 253.86 442.47 253.73C442.34 254.01 442.16 254.23 442.77 255.19C442.6 255.28 442.45 254.97 442.19 254.62C442.46 255.04 442.44 255.3 442.33 255.41L442.28 255.21L442.01 255.58L442.59 256.33C442.25 256.22 441.92 255.39 441.86 255.7L442.28 256.36C441.93 256.4 441.14 255.5 440.58 255.18C439.35 255.57 439.26 257.97 437.54 257.42L437.19 256.95C436.72 256.23 437.58 258.2 437.13 257.55L437.22 257.95C437.11 257.84 436.95 257.74 436.91 257.54C436.79 257.58 436.86 257.7 436.91 257.97L436.52 257.59C435.88 257.5 436.06 258.59 435.5 258.68C434.4 258.07 433.91 259.53 433.62 260.38C433.44 261.97 430.76 259.59 430.66 261.34C430.57 261.25 430.64 261.53 430.69 261.61L429.85 261.95C429.85 261.95 428.87 262.41 428.68 263.45C428.49 264.48 429.08 266.1 432.29 268.36L432.36 268.53C433.02 268.68 433.35 268.61 433.18 267.62C433.8 268.59 433.6 267.52 433.88 267.78L433.92 267.87C433.74 266.95 434.84 268.19 434.69 267.36C434.73 267.44 434.88 267.72 434.83 267.77C434.94 267.54 435.07 267.17 435.42 267.74C435.78 267.33 436.55 267.23 436.29 266.14L436.36 266.31C436.15 265.59 436.51 266.09 436.51 265.67C436.56 265.74 436.6 265.77 436.62 265.8C436.43 265.08 437.07 265.4 437.06 265.05L437.3 265.43L437.6 265.13H437.42C436.84 264.05 438.08 265.63 437.92 264.8C438.24 264.79 437.09 262.33 437.64 262.7C437.46 262.14 438.02 263.56 437.96 263.08C438.3 263.62 438.09 263.47 438.39 263.88C438.4 263.52 439.01 264.27 439 263.77L439.27 264.19C439.07 263.25 440.13 264.43 439.86 263.58C439.93 263.06 440.82 264.72 440.61 263.71L441.08 264.21C441.26 264.22 440.74 263.45 441.05 263.64C441.26 264.01 441.4 263.82 441.53 264.21C442.2 264.58 441.68 263.01 442.69 263.7C442.34 262.94 442.81 263.23 442.55 262.66C442.75 262.96 443 262.45 443.18 263.26C443.19 263.33 443.15 263.34 443.08 263.22L443.31 263.65C444.04 264.28 443.47 262.95 443.78 262.92C443.62 262.83 443.55 262.92 443.44 262.6L443.69 262.52L443.86 262.9H444.31L443.99 262.49C444.29 262.61 444.81 263.31 444.6 262.58C444.47 262.19 444.08 262.1 444.16 261.85C444.56 262.01 445.16 262.25 445.51 262.2C445.18 261.73 445.26 261.7 445.27 261.56L445.55 261.97C445.46 261.2 446.25 262.82 446.23 262.18L446.39 262.49L445.9 261.57C445.62 260.58 446.6 262.35 446.15 261.03C446.08 261.17 445.5 260.14 445.76 260.23L445.99 260.66C446.01 260.53 445.93 260.34 446.03 260.39C446.13 260.64 446.39 260.99 446.45 260.85L446.7 261.4L446.43 260.52C446.88 260.85 446.78 260.13 447.22 260.66C447.22 260.66 447.75 260.71 447.43 260.03C447.61 260.46 447.9 260.48 448.14 260.97C447.95 260.47 447.98 259.94 448.4 260.33V260.4C449.13 260.61 448.67 259.3 449.41 259.64C449.07 259.17 449.44 259.31 448.98 258.72C448.94 257.87 450.49 259.52 449.35 257.53C449.45 257.32 449.85 257.84 450 257.88L450.03 258.01C450.24 257.64 450.32 257.56 450.58 257.45C450.58 257.19 449.99 256.3 450.34 256.37C450.51 256.76 450.55 256.64 450.63 256.59C450.62 256.68 450.69 256.82 450.95 256.98C450.89 256.86 450.87 256.78 450.85 256.71C450.87 256.74 450.89 256.76 450.91 256.79C450.95 256.58 450.86 256.49 450.77 256.48C450.74 256.42 450.69 256.36 450.6 256.28C451.04 256.64 450.95 255.99 451.38 256.58C451.67 256.18 451.53 255.37 451.69 254.92C451.94 255.2 452.05 255.53 452.04 255.71L452.19 255.44C452.49 255.88 452.23 255.78 452.22 255.92C452.99 256.45 452.29 254.82 453.06 255.25L452.88 254.86L452.94 254.9C452.81 254.72 452.71 254.42 452.71 254.33C453.02 254.68 453.32 255.22 453.46 255.08C453.84 255.36 453.68 254.65 453.7 254.33C453.57 254.33 453.45 254.1 453.39 253.93C453.46 253.86 453.77 254.21 453.72 254L454.09 254.51C453.72 254.05 453.92 253.84 453.81 253.61C454.12 253.96 453.92 254.02 454.1 254.33C454.38 254.06 454.24 254.19 454.52 253.93C454.41 253.42 454.15 253.47 453.91 252.96C453.99 252.76 453.87 252.3 454.26 252.49L453.88 252.07C453.9 251.52 454.1 251.46 454.62 251.78C454.31 249.2 453.49 247.87 452.77 247.17C452.05 246.48 451.41 246.42 451.41 246.42C449.91 245.98 450.45 247.59 449.76 248.61L449.81 248.65Z" fill="#20BB65"/>
<path d="M409.3 279.99L409.13 279.81C409.18 279.91 409.23 279.98 409.3 279.99Z" fill="#20BB65"/>
<path d="M407.13 273.05C406.09 273.22 405.39 272.34 404.62 273.18C404.13 273.31 403.74 273.75 403.35 274.07C403.48 274.94 402.77 274.34 402.8 275.1L402.51 274.71C402.52 274.97 402.49 275.17 402.29 274.97L402.24 274.84C402.26 275.23 402.02 275.1 402.03 275.29L401.98 275.16L401.85 275.29L401.8 275.1C401.73 275.55 401.5 275.68 401.23 275.61L401.48 276.13C400.78 275.73 401.1 276.9 400.39 276.37L400.34 276.24C400.44 277.86 399.13 275.62 399.18 277.18C399.18 276.99 399.03 276.92 398.98 276.79C398.81 277.05 398.58 277.23 399.03 278.29C398.85 278.35 398.75 278.02 398.55 277.63C398.75 278.09 398.67 278.34 398.55 278.43V278.23L398.21 278.55L398.65 279.39C398.34 279.23 398.15 278.35 398.04 278.65L398.35 279.37C398 279.35 397.37 278.33 396.87 277.91C395.59 278.08 395.09 280.44 393.49 279.61L393.22 279.08C392.88 278.29 393.4 280.38 393.06 279.66L393.08 280.07C392.99 279.94 392.85 279.82 392.84 279.62C392.71 279.64 392.76 279.77 392.77 280.04L392.45 279.6C391.84 279.4 391.83 280.51 391.26 280.51C390.28 279.73 389.55 281.09 389.12 281.87C388.68 283.41 386.43 280.62 386.03 282.33C385.96 282.23 385.98 282.51 386.01 282.6L385.13 282.8C385.13 282.8 384.08 283.1 383.73 284.09C383.38 285.08 383.69 286.77 386.49 289.53L386.53 289.71C387.16 289.96 387.49 289.95 387.49 288.95C387.94 290.01 387.92 288.92 388.16 289.23L388.18 289.32C388.16 288.38 389.03 289.79 389.03 288.94C389.05 289.03 389.16 289.33 389.1 289.37C389.25 289.16 389.43 288.81 389.69 289.44C390.11 289.09 390.89 289.13 390.81 288.01L390.86 288.19C390.78 287.45 391.05 288 391.11 287.58C391.15 287.66 391.18 287.69 391.19 287.73C391.12 286.99 391.7 287.41 391.75 287.07L391.92 287.48L392.26 287.24L392.08 287.21C391.68 286.05 392.64 287.82 392.63 286.97C392.94 287.01 392.22 284.4 392.7 284.85C392.62 284.27 392.93 285.76 392.96 285.28C393.2 285.87 393.02 285.69 393.25 286.14C393.32 285.79 393.79 286.63 393.87 286.14L394.06 286.6C394.02 285.64 394.87 286.98 394.75 286.1C394.91 285.6 395.51 287.39 395.47 286.36L395.85 286.93C396.03 286.98 395.64 286.13 395.92 286.37C396.07 286.77 396.24 286.61 396.3 287.02C396.9 287.5 396.65 285.86 397.52 286.72C397.31 285.92 397.72 286.28 397.56 285.67C397.71 286 398.04 285.54 398.08 286.36C398.08 286.43 398.04 286.43 397.99 286.3L398.14 286.76C398.75 287.51 398.42 286.1 398.73 286.12C398.59 286 398.51 286.08 398.45 285.74L398.71 285.7L398.82 286.1L399.27 286.18L399.03 285.73C399.3 285.9 399.7 286.68 399.62 285.93C399.55 285.52 399.19 285.36 399.31 285.14C399.67 285.36 400.22 285.71 400.58 285.72C400.33 285.2 400.42 285.19 400.45 285.05L400.65 285.51C400.7 284.74 401.19 286.47 401.29 285.83L401.4 286.16L401.08 285.17C400.98 284.14 401.63 286.06 401.42 284.69C401.33 284.82 400.93 283.7 401.17 283.84L401.32 284.3C401.36 284.17 401.32 283.97 401.41 284.04C401.46 284.3 401.66 284.69 401.75 284.57L401.9 285.16L401.79 284.25C402.17 284.65 402.2 283.93 402.54 284.52C402.54 284.52 403.06 284.66 402.85 283.94C402.95 284.4 403.24 284.47 403.39 284.99C403.28 284.47 403.41 283.95 403.75 284.41V284.48C404.42 284.81 404.19 283.44 404.86 283.9C404.61 283.38 404.94 283.58 404.6 282.92C404.71 282.08 405.94 283.97 405.17 281.82C405.3 281.63 405.6 282.21 405.75 282.28V282.41C406.02 282.09 406.11 282.02 406.39 281.96C406.43 281.7 406.02 280.72 406.35 280.86C406.45 281.28 406.51 281.17 406.59 281.13C406.56 281.22 406.61 281.36 406.84 281.57C406.8 281.44 406.79 281.36 406.79 281.29C406.8 281.32 406.82 281.34 406.84 281.38C406.92 281.18 406.84 281.07 406.75 281.05C406.73 280.99 406.69 280.92 406.62 280.82C406.99 281.25 407.02 280.6 407.33 281.25C407.69 280.9 407.69 280.09 407.92 279.67C408.11 279.99 408.17 280.33 408.12 280.51L408.32 280.27C408.54 280.76 408.3 280.62 408.27 280.75C408.93 281.4 408.53 279.68 409.21 280.24L409.11 279.82L409.16 279.87C409.07 279.67 409.02 279.35 409.04 279.26C409.28 279.66 409.49 280.24 409.65 280.13C409.98 280.48 409.95 279.75 410.02 279.43C409.89 279.4 409.81 279.15 409.79 278.98C409.87 278.93 410.12 279.33 410.1 279.11L410.37 279.68C410.09 279.16 410.33 278.99 410.25 278.74C410.5 279.14 410.28 279.17 410.41 279.5C410.73 279.29 410.57 279.39 410.89 279.18C410.87 278.66 410.6 278.66 410.46 278.11C410.57 277.92 410.54 277.45 410.89 277.71L410.59 277.23C410.71 276.69 410.92 276.67 411.37 277.08C411.53 274.48 410.98 273.03 410.39 272.21C409.8 271.4 409.19 271.23 409.19 271.23C407.79 270.53 408.03 272.21 407.16 273.09L407.13 273.05Z" fill="#20BB65"/>
<path d="M361.96 297.3L361.82 297.1C361.85 297.2 361.89 297.29 361.96 297.3Z" fill="#20BB65"/>
<path d="M360.9 290.11C359.84 290.11 359.29 289.14 358.4 289.85C357.89 289.9 357.44 290.28 357 290.53C357 291.41 356.38 290.71 356.3 291.46L356.07 291.02C356.04 291.28 355.97 291.47 355.82 291.24L355.79 291.1C355.75 291.49 355.54 291.32 355.51 291.51L355.48 291.37L355.33 291.47L355.31 291.27C355.17 291.71 354.93 291.79 354.67 291.68L354.83 292.24C354.2 291.73 354.33 292.94 353.72 292.31L353.69 292.17C353.54 293.79 352.59 291.37 352.4 292.92C352.42 292.73 352.3 292.64 352.27 292.5C352.06 292.73 351.81 292.88 352.08 293.98C351.89 294.01 351.84 293.67 351.71 293.25C351.83 293.73 351.72 293.98 351.59 294.04L351.61 293.84L351.24 294.11L351.55 295C351.26 294.79 351.22 293.9 351.06 294.17L351.25 294.93C350.91 294.86 350.45 293.75 350.02 293.26C348.73 293.23 347.87 295.49 346.41 294.41L346.23 293.85C346.01 293.02 346.2 295.16 345.98 294.4L345.94 294.81C345.87 294.67 345.75 294.53 345.78 294.32C345.65 294.32 345.68 294.45 345.65 294.73L345.4 294.24C344.83 293.95 344.64 295.05 344.09 294.96C343.24 294.04 342.31 295.27 341.77 295.98C341.1 297.44 339.3 294.33 338.65 295.96C338.59 295.85 338.57 296.13 338.59 296.23L337.69 296.29C337.69 296.29 336.61 296.42 336.11 297.35C335.61 298.27 335.66 299.99 338 303.14V303.33C338.59 303.68 338.93 303.71 339.08 302.72C339.36 303.84 339.51 302.75 339.7 303.1V303.19C339.83 302.26 340.47 303.78 340.6 302.95C340.6 303.04 340.67 303.35 340.6 303.39C340.78 303.2 341.02 302.89 341.17 303.54C341.64 303.26 342.4 303.42 342.5 302.3L342.52 302.49C342.55 301.74 342.73 302.33 342.86 301.93C342.89 302.01 342.91 302.05 342.92 302.09C342.97 301.35 343.48 301.85 343.57 301.52L343.68 301.95L344.05 301.76L343.88 301.7C343.67 300.49 344.35 302.39 344.46 301.55C344.76 301.64 344.46 298.94 344.86 299.47C344.86 298.88 344.95 300.41 345.05 299.93C345.2 300.55 345.05 300.34 345.21 300.83C345.34 300.49 345.67 301.39 345.82 300.92L345.94 301.4C346.05 300.44 346.68 301.9 346.69 301.01C346.92 300.54 347.24 302.4 347.36 301.37L347.64 302C347.81 302.07 347.56 301.17 347.79 301.45C347.88 301.87 348.07 301.73 348.07 302.15C348.58 302.71 348.59 301.06 349.33 302.04C349.24 301.21 349.6 301.63 349.53 301.01C349.63 301.36 350.02 300.95 349.94 301.78C349.94 301.85 349.89 301.85 349.86 301.71L349.94 302.19C350.43 303.02 350.32 301.58 350.62 301.65C350.5 301.51 350.41 301.58 350.4 301.24H350.67L350.71 301.66L351.14 301.8L350.97 301.32C351.21 301.53 351.48 302.36 351.52 301.6C351.52 301.19 351.19 300.98 351.34 300.77C351.67 301.05 352.16 301.47 352.5 301.54C352.33 300.99 352.42 300.99 352.48 300.85L352.61 301.33C352.77 300.58 352.99 302.36 353.19 301.75L353.24 302.09L353.08 301.06C353.14 300.03 353.49 302.02 353.49 300.63C353.38 300.74 353.16 299.58 353.37 299.75L353.45 300.23C353.51 300.11 353.49 299.91 353.58 299.99C353.59 300.25 353.72 300.68 353.83 300.56L353.89 301.16L353.92 300.24C354.24 300.69 354.38 299.99 354.62 300.63C354.62 300.63 355.11 300.85 355.02 300.1C355.05 300.57 355.32 300.68 355.39 301.22C355.37 300.69 355.57 300.19 355.84 300.7V300.77C356.44 301.2 356.43 299.81 357.01 300.37C356.84 299.82 357.14 300.06 356.9 299.36C357.14 298.54 358.06 300.61 357.63 298.36C357.79 298.19 358 298.82 358.13 298.9L358.11 299.03C358.43 298.75 358.52 298.7 358.81 298.68C358.89 298.43 358.63 297.4 358.94 297.58C358.97 298.01 359.05 297.91 359.14 297.88C359.1 297.96 359.12 298.11 359.31 298.35C359.29 298.22 359.3 298.13 359.31 298.06C359.31 298.09 359.33 298.12 359.34 298.16C359.45 297.98 359.39 297.86 359.31 297.82C359.3 297.76 359.27 297.68 359.22 297.57C359.52 298.05 359.64 297.42 359.85 298.11C360.26 297.82 360.38 297.02 360.68 296.64C360.82 296.99 360.82 297.33 360.75 297.5L360.98 297.29C361.12 297.81 360.91 297.63 360.86 297.76C361.41 298.51 361.28 296.74 361.87 297.41L361.83 296.98L361.87 297.04C361.81 296.82 361.81 296.51 361.85 296.42C362.03 296.85 362.14 297.46 362.31 297.38C362.58 297.77 362.66 297.05 362.78 296.75C362.66 296.7 362.62 296.44 362.62 296.27C362.71 296.23 362.89 296.66 362.9 296.45L363.08 297.05C362.88 296.49 363.14 296.37 363.11 296.11C363.29 296.54 363.08 296.54 363.15 296.88C363.5 296.72 363.33 296.8 363.68 296.64C363.75 296.13 363.48 296.08 363.42 295.52C363.56 295.35 363.61 294.88 363.91 295.19L363.69 294.67C363.89 294.16 364.1 294.16 364.48 294.65C365.05 292.11 364.73 290.58 364.28 289.69C363.83 288.79 363.25 288.53 363.25 288.53C361.97 287.61 361.95 289.32 360.95 290.05L360.9 290.11Z" fill="#20BB65"/>
<path d="M312.53 307.13L312.43 306.91C312.44 307.02 312.47 307.11 312.53 307.13Z" fill="#20BB65"/>
<path d="M292.94 309C292.94 309 292.94 309.03 292.92 309.05C292.93 309.03 292.94 309.01 292.94 309Z" fill="#20BB65"/>
<path d="M308.66 299.69C308.66 299.69 308.66 299.65 308.67 299.63L308.65 299.69H308.66Z" fill="#20BB65"/>
<path d="M312.58 299.87C311.53 299.71 311.14 298.67 310.15 299.23C309.64 299.2 309.14 299.51 308.66 299.69C308.52 300.56 308.02 299.77 307.82 300.51L307.66 300.05C307.59 300.3 307.5 300.48 307.38 300.23V300.09C307.27 300.47 307.09 300.27 307.04 300.46V300.32L306.87 300.4V300.2C306.67 300.61 306.42 300.66 306.18 300.51L306.26 301.09C305.71 300.49 305.66 301.71 305.15 300.99V300.85C304.75 302.43 304.18 299.9 303.75 301.4C303.8 301.21 303.69 301.11 303.68 300.96C303.44 301.15 303.17 301.26 303.27 302.4C303.08 302.4 303.08 302.06 303.02 301.62C303.07 302.12 302.92 302.34 302.78 302.38L302.83 302.18L302.42 302.39L302.59 303.32C302.34 303.07 302.43 302.18 302.23 302.43L302.3 303.21C301.97 303.09 301.68 301.92 301.33 301.38C300.05 301.16 298.87 303.25 297.59 301.97L297.49 301.39C297.4 300.54 297.26 302.68 297.16 301.89L297.05 302.29C297 302.14 296.91 301.98 296.96 301.78C296.83 301.76 296.84 301.9 296.77 302.16L296.6 301.64C296.08 301.26 295.73 302.32 295.19 302.15C294.49 301.11 293.38 302.18 292.74 302.81C291.86 304.15 290.55 300.8 289.66 302.32C289.62 302.2 289.55 302.48 289.56 302.58L288.66 302.5C288.66 302.5 287.57 302.47 286.93 303.3C286.3 304.14 286.08 305.84 287.92 309.31V309.5C288.43 309.93 288.75 310.02 289.05 309.06C289.16 310.21 289.47 309.16 289.6 309.52V309.61C289.85 308.71 290.26 310.31 290.51 309.51C290.51 309.6 290.51 309.92 290.45 309.94C290.66 309.78 290.94 309.51 290.99 310.18C291.49 309.98 292.23 310.24 292.49 309.16V309.35C292.62 308.62 292.71 309.23 292.9 308.85C292.92 308.94 292.93 308.98 292.93 309.02C293.09 308.29 293.52 308.87 293.66 308.56L293.7 309L294.1 308.87L293.94 308.78C293.91 307.55 294.3 309.53 294.54 308.72C294.83 308.86 294.93 306.14 295.25 306.72C295.35 306.14 295.19 307.66 295.37 307.2C295.42 307.84 295.3 307.61 295.39 308.11C295.57 307.79 295.76 308.74 295.98 308.29L296.02 308.79C296.28 307.86 296.67 309.4 296.82 308.52C297.12 308.09 297.15 309.98 297.42 308.98L297.6 309.64C297.76 309.74 297.64 308.81 297.83 309.12C297.85 309.54 298.06 309.44 298 309.85C298.42 310.48 298.68 308.85 299.26 309.93C299.3 309.1 299.59 309.57 299.61 308.95C299.65 309.31 300.11 308.97 299.89 309.77C299.87 309.84 299.83 309.83 299.82 309.69V310.18C300.18 311.08 300.29 309.63 300.58 309.75C300.48 309.6 300.38 309.65 300.42 309.31L300.68 309.35L300.66 309.77L301.06 309.98L300.96 309.48C301.17 309.72 301.31 310.58 301.46 309.84C301.52 309.43 301.22 309.17 301.41 309C301.69 309.32 302.11 309.81 302.44 309.94C302.36 309.37 302.44 309.38 302.52 309.26L302.57 309.76C302.85 309.04 302.79 310.84 303.08 310.26V310.61V309.57C303.29 308.56 303.34 310.58 303.55 309.21C303.42 309.31 303.39 308.12 303.57 308.32V308.8C303.65 308.69 303.67 308.49 303.74 308.58C303.71 308.84 303.78 309.28 303.9 309.18L303.87 309.79L304.04 308.89C304.28 309.38 304.53 308.71 304.67 309.38C304.67 309.38 305.12 309.67 305.14 308.92C305.1 309.39 305.35 309.54 305.34 310.08C305.4 309.55 305.68 309.09 305.86 309.63L305.84 309.69C306.37 310.21 306.57 308.83 307.07 309.48C306.99 308.91 307.25 309.2 307.12 308.47C307.48 307.7 308.08 309.88 308 307.59C308.19 307.45 308.29 308.1 308.41 308.2L308.38 308.33C308.73 308.1 308.84 308.07 309.12 308.09C309.23 307.85 309.14 306.8 309.41 307.02C309.38 307.45 309.47 307.36 309.56 307.35C309.51 307.42 309.51 307.58 309.66 307.85C309.66 307.72 309.68 307.64 309.7 307.57C309.7 307.6 309.71 307.63 309.72 307.67C309.86 307.5 309.82 307.38 309.74 307.33C309.74 307.27 309.72 307.18 309.69 307.07C309.91 307.59 310.13 306.98 310.23 307.7C310.68 307.48 310.92 306.7 311.28 306.38C311.37 306.74 311.32 307.08 311.22 307.24L311.48 307.07C311.54 307.6 311.36 307.4 311.29 307.51C311.72 308.33 311.86 306.57 312.34 307.31L312.37 306.88L312.4 306.95C312.37 306.73 312.42 306.41 312.47 306.34C312.58 306.8 312.6 307.41 312.78 307.36C312.98 307.79 313.18 307.08 313.34 306.81C313.22 306.75 313.23 306.48 313.25 306.31C313.34 306.28 313.45 306.74 313.5 306.53L313.59 307.15C313.48 306.57 313.76 306.48 313.76 306.22C313.87 306.68 313.66 306.64 313.68 306.99C314.05 306.88 313.87 306.94 314.24 306.83C314.38 306.33 314.13 306.24 314.16 305.68C314.32 305.54 314.44 305.08 314.69 305.43L314.55 304.88C314.83 304.41 315.04 304.44 315.33 304.98C316.28 302.56 316.19 301 315.89 300.05C315.58 299.1 315.04 298.75 315.04 298.75C313.92 297.65 313.63 299.33 312.54 299.91L312.58 299.87Z" fill="#20BB65"/>
</svg>
