<svg width="247" height="177" viewBox="0 0 247 177" fill="none" xmlns="http://www.w3.org/2000/svg">
<path d="M8.75 6.08008L8.51001 6.12988C8.62001 6.13988 8.71 6.13008 8.75 6.08008Z" fill="#20BB65"/>
<path d="M0.650085 8.33008C0.650085 8.33008 0.620088 8.31005 0.590088 8.30005L0.650085 8.33008Z" fill="#20BB65"/>
<path d="M1.72996 4.21989C1.29996 5.25989 0.189985 5.4298 0.509985 6.6298C0.359985 7.1698 0.55 7.77999 0.65 8.31999C1.47 8.63999 0.609963 9.02004 1.29996 9.37004L0.809973 9.45988C1.03997 9.57988 1.19997 9.70997 0.929968 9.79997H0.789953C1.14995 9.95997 0.919951 10.1199 1.09995 10.2099H0.959997L1.00999 10.3898L0.809973 10.35C1.17997 10.64 1.19999 10.9098 1.00999 11.1498H1.59C0.920002 11.6498 2.11 11.87 1.34 12.33H1.19999C2.72999 12.93 0.149951 13.2698 1.59995 13.8798C1.41995 13.8098 1.29995 13.9198 1.15995 13.9098C1.31995 14.1898 1.42998 14.4999 2.56998 14.4699C2.56998 14.6699 2.22 14.6399 1.78 14.6799C2.28 14.6699 2.49 14.8399 2.53 14.9899L2.32999 14.9198L2.50999 15.37L3.44999 15.2499C3.18999 15.4999 2.29995 15.36 2.53995 15.58L3.31998 15.54C3.17998 15.87 1.99999 16.1299 1.44999 16.4899C1.19999 17.9099 3.31999 19.15 2.13999 20.57L1.56998 20.7099C0.729983 20.8599 2.87995 20.88 2.09995 21.04L2.50999 21.1298C2.35999 21.1898 2.21999 21.3099 2.00999 21.2599C1.99999 21.3999 2.13995 21.3799 2.40995 21.4399L1.90995 21.6698C1.57995 22.2898 2.69995 22.5598 2.59995 23.1598C1.64995 24.0598 2.94998 25.1499 3.68998 25.7099C4.44998 26.0499 4.07999 26.7198 3.75999 27.4198C3.44999 28.1098 3.17995 28.84 4.03995 29.12C3.93995 29.19 4.22998 29.1898 4.31998 29.1598L4.55997 30.1298C4.55997 30.1298 4.64996 30.4199 4.85996 30.7599C5.08996 31.0999 5.45 31.4798 5.96 31.6498C6.48 31.8298 7.13998 31.8 7.99998 31.34C8.85998 30.89 9.89997 30 11.24 28.61L11.42 28.56C11.65 27.97 11.67 27.6799 10.67 27.7199C11.73 27.2699 10.65 27.33 10.96 27.1L11.05 27.08C10.11 27.12 11.5499 26.3 10.7199 26.31C10.8099 26.29 11.11 26.1899 11.15 26.2499C10.95 26.1199 10.63 25.9399 11.26 25.7199C10.94 25.3399 11.07 24.6498 9.96 24.6498L10.14 24.62C9.39999 24.65 9.97998 24.44 9.56998 24.35C9.64998 24.32 9.68996 24.29 9.72996 24.28C8.97996 24.28 9.48 23.7799 9.15 23.7099L9.57999 23.59L9.38999 23.2499L9.32999 23.4098C8.12999 23.6498 10.01 22.9598 9.17997 22.8798C9.26997 22.6098 6.56996 22.9099 7.10996 22.5099C6.51996 22.4999 8.03999 22.44 7.57999 22.33C8.19999 22.2 7.98996 22.3299 8.47996 22.1899C8.14996 22.0599 9.05995 21.76 8.59995 21.62L9.09 21.5199C8.14 21.3899 9.62997 20.86 8.73997 20.81C8.28997 20.57 10.1699 20.3699 9.15995 20.2099L9.80997 19.9899C9.89997 19.8399 8.98 20.02 9.28 19.82C9.7 19.77 9.58998 19.59 9.99998 19.61C10.61 19.2 8.96 19.0599 10.03 18.4799C9.2 18.4799 9.65995 18.1999 9.03995 18.1999C9.39995 18.1499 9.03995 17.7498 9.84995 17.9198C9.91995 17.9298 9.90999 17.9699 9.76999 17.9899L10.26 17.9699C11.15 17.6299 9.69998 17.57 9.81998 17.31C9.65998 17.4 9.71998 17.4899 9.37998 17.4599L9.42997 17.2199H9.84L10.06 16.87L9.55997 16.9599C9.80997 16.7699 10.67 16.6499 9.92997 16.5099C9.51997 16.4499 9.25999 16.72 9.07999 16.55C9.40999 16.3 9.90995 15.9298 10.04 15.6298C9.46995 15.6898 9.48997 15.61 9.36997 15.53L9.86997 15.4999C9.16997 15.2199 10.96 15.34 10.4 15.06H10.75L9.71 15.03C8.71 14.79 10.74 14.85 9.37998 14.58C9.46998 14.7 8.27998 14.6699 8.49998 14.5099L8.97996 14.54C8.87996 14.46 8.66999 14.4398 8.76999 14.3798C9.02999 14.4198 9.46998 14.3799 9.37998 14.2699L9.97996 14.34L9.09 14.1298C9.6 13.9398 8.94998 13.67 9.62998 13.59C9.62998 13.59 9.95995 13.21 9.21995 13.12C9.67995 13.2 9.86 12.99 10.4 13.05C9.88 12.95 9.44998 12.65 10.01 12.54L10.07 12.56C10.63 12.14 9.30998 11.7999 10.01 11.4299C9.42998 11.4299 9.74998 11.2299 9.00998 11.2599C8.29998 10.8099 10.54 10.59 8.25998 10.32C8.13998 10.12 8.80997 10.13 8.92997 10.04L9.04996 10.09C8.88996 9.73001 8.86999 9.62004 8.94999 9.37004C8.73999 9.22004 7.67999 9.12983 7.94999 8.90983C8.35999 9.01983 8.28996 8.91 8.29996 8.83C8.35996 8.89 8.50997 8.92 8.80997 8.83C8.67997 8.8 8.59995 8.76991 8.53995 8.73991C8.56995 8.73991 8.59999 8.73991 8.63999 8.73991C8.49999 8.57991 8.36997 8.59983 8.30997 8.65983C8.24997 8.65983 8.15996 8.65983 8.04996 8.65983C8.59996 8.54983 8.04999 8.22994 8.76999 8.26994C8.64999 7.81994 7.93999 7.42994 7.69999 7.01994C8.07999 7.01994 8.39 7.13993 8.53 7.25993L8.41996 6.9799C8.94996 7.0399 8.70997 7.15992 8.80997 7.24992C9.69997 7.03992 8.01995 6.51991 8.84995 6.23991L8.43998 6.11003H8.50998C8.28998 6.07003 7.99997 5.94981 7.92997 5.88981C8.39997 5.88981 8.99997 6.03001 8.98997 5.84001C9.45997 5.76001 8.81995 5.40986 8.59995 5.18986C8.50995 5.27986 8.25995 5.20982 8.09995 5.14982C8.09995 5.05982 8.56998 5.06989 8.37998 4.96989L9.00998 5.04997C8.41998 4.99997 8.40995 4.72983 8.15995 4.65983C8.62995 4.66983 8.53998 4.85985 8.87998 4.92985C8.87998 4.55985 8.87997 4.7498 8.86997 4.3798C8.42997 4.1198 8.27997 4.32982 7.73997 4.14982C7.63997 3.95982 7.22999 3.72 7.63999 3.58L7.07999 3.55998C6.70999 3.16998 6.8 2.98002 7.4 2.85002C5.36 1.25002 3.85995 0.80999 2.84995 0.81999C1.84995 0.82999 1.34995 1.27995 1.34995 1.27995C-0.0400491 2.11995 1.45997 2.91988 1.73997 4.20988L1.72996 4.21989Z" fill="#20BB65"/>
<path d="M26.6799 46.0901L26.6199 46.3301C26.6799 46.2401 26.7099 46.1501 26.6799 46.0901Z" fill="#20BB65"/>
<path d="M43.7998 53.6799C43.7998 53.6799 43.8198 53.6499 43.8298 53.6399C43.8098 53.6499 43.7998 53.6699 43.7998 53.6799Z" fill="#20BB65"/>
<path d="M25.31 54.3799C25.31 54.3799 25.28 54.3999 25.26 54.4199L25.31 54.3799Z" fill="#20BB65"/>
<path d="M22.01 51.6599C22.79 52.4799 22.48 53.59 23.71 53.8C24.14 54.15 24.7799 54.2499 25.3099 54.3899C25.9399 53.7699 25.93 54.72 26.53 54.24L26.4 54.72C26.61 54.56 26.79 54.47 26.76 54.75L26.69 54.8701C27 54.6201 27.05 54.89 27.2 54.77L27.13 54.8899L27.32 54.9199L27.2 55.0801C27.62 54.8601 27.87 54.96 28.01 55.23L28.26 54.7C28.43 55.52 29.13 54.5299 29.21 55.4199L29.14 55.54C30.33 54.41 29.53 56.8901 30.7 55.8301C30.55 55.9601 30.5999 56.11 30.5399 56.24C30.8599 56.2 31.17 56.24 31.65 55.21C31.83 55.31 31.6499 55.6 31.4899 56.01C31.6999 55.55 31.94 55.44 32.09 55.47L31.95 55.6201L32.4299 55.6499L32.7299 54.75C32.8299 55.09 32.3199 55.83 32.6199 55.71L32.9299 54.99C33.1599 55.27 32.8699 56.4201 32.9299 57.0801C34.0399 57.9201 36.0899 56.6001 36.7299 58.3101L36.57 58.8799C36.29 59.6899 37.3399 57.8101 37.0999 58.5701L37.3699 58.25C37.3499 58.41 37.3699 58.59 37.2399 58.75C37.3499 58.83 37.4 58.7 37.58 58.49L37.53 59.04C37.88 59.62 38.65 58.7899 39.09 59.1699C39.35 60.4199 40.86 59.87 41.71 59.54C43.04 58.62 43.1299 62.2401 44.5399 61.1201C44.5399 61.2501 44.6999 61.0099 44.7199 60.9099L45.58 61.29C45.58 61.29 46.65 61.6801 47.53 61.0901C48.42 60.5001 49.08 58.9301 48.45 55.0601L48.52 54.8899C48.18 54.3199 47.91 54.15 47.33 54.96C47.6 53.84 46.9799 54.7301 46.9799 54.3401L47.02 54.25C46.49 55.02 46.65 53.37 46.15 54.05C46.19 53.97 46.2799 53.6599 46.3499 53.6599C46.1099 53.7399 45.76 53.91 45.95 53.26C45.43 53.28 44.8699 52.78 44.2399 53.71L44.32 53.54C43.93 54.17 44.06 53.5701 43.76 53.8601C43.78 53.7701 43.7799 53.7299 43.7899 53.6899C43.3799 54.3099 43.21 53.6101 42.96 53.8501L43.09 53.4199L42.69 53.3899L42.7999 53.53C42.3599 54.68 42.7599 52.7101 42.2399 53.3701C42.0399 53.1401 40.9 55.5999 40.83 54.9399C40.51 55.4399 41.2499 54.1 40.9099 54.45C41.1099 53.85 41.13 54.1001 41.25 53.6001C40.97 53.8201 41.1699 52.88 40.7999 53.21L40.96 52.74C40.36 53.49 40.63 51.9299 40.14 52.6799C39.7 52.9499 40.4499 51.22 39.7999 52.02L39.9099 51.3401C39.8199 51.1901 39.5299 52.08 39.4899 51.72C39.6499 51.33 39.42 51.33 39.65 50.99C39.56 50.25 38.6399 51.6199 38.6199 50.3999C38.2299 51.1299 38.19 50.5899 37.89 51.1299C38.01 50.7899 37.48 50.9 38.01 50.28C38.05 50.23 38.09 50.2499 38.03 50.3799L38.2399 49.9399C38.3399 48.9899 37.6099 50.23 37.4199 50.01C37.4299 50.19 37.5399 50.19 37.3499 50.47L37.15 50.3201L37.3499 49.96L37.1099 49.6001L36.96 50.0901C36.9 49.7801 37.18 48.96 36.71 49.55C36.47 49.89 36.5999 50.2501 36.3599 50.3201C36.2799 49.9101 36.16 49.29 35.94 49.03C35.74 49.57 35.6699 49.5201 35.5499 49.5901L35.7399 49.1299C35.1699 49.6399 36.07 48.08 35.57 48.46L35.7399 48.1499L35.2399 49.0701C34.5799 49.8501 35.5199 48.0599 34.6799 49.1599C34.8299 49.1299 34.2799 50.1899 34.2299 49.9199L34.46 49.5C34.34 49.56 34.2299 49.7301 34.2199 49.6101C34.3699 49.4001 34.53 48.98 34.39 49.01L34.7199 48.5L34.14 49.21C34.19 48.67 33.6499 49.13 33.8699 48.49C33.8699 48.49 33.66 48.0199 33.26 48.6499C33.53 48.2699 33.41 48.02 33.7 47.55C33.39 47.98 32.9299 48.2299 33.0599 47.6799L33.1099 47.6299C32.9599 46.9299 32.0899 48 32.0499 47.2C31.7999 47.72 31.7599 47.35 31.4699 48.03C30.7599 48.49 31.4999 46.3601 30.2999 48.3101C30.0699 48.3301 30.35 47.7301 30.32 47.5801L30.4199 47.5C30.0199 47.5 29.9199 47.47 29.7199 47.29C29.4999 47.42 28.97 48.34 28.88 48C29.15 47.67 29.03 47.6899 28.95 47.6499C29.03 47.6199 29.1199 47.4899 29.1599 47.1899C29.0799 47.2999 29.0199 47.3499 28.9699 47.3999C28.9899 47.3699 28.99 47.3501 29.02 47.3101C28.82 47.3701 28.7799 47.5001 28.8099 47.5801C28.7799 47.6301 28.74 47.7101 28.7 47.8201C28.83 47.2701 28.31 47.64 28.65 47C28.19 46.92 27.54 47.41 27.07 47.46C27.23 47.12 27.47 46.8801 27.64 46.8101L27.34 46.79C27.62 46.33 27.63 46.6 27.75 46.55C27.93 45.66 26.7499 46.9601 26.8599 46.0901L26.57 46.4099L26.59 46.3401C26.47 46.5301 26.2399 46.75 26.1599 46.78C26.3599 46.36 26.74 45.87 26.57 45.8C26.69 45.34 26.1099 45.7799 25.8099 45.8899C25.8499 46.0099 25.6799 46.2101 25.5599 46.3301C25.4799 46.2901 25.69 45.87 25.52 46L25.8599 45.47C25.5699 45.99 25.31 45.8801 25.14 46.0701C25.35 45.6501 25.48 45.81 25.69 45.53C25.36 45.38 25.52 45.45 25.19 45.3C24.76 45.59 24.89 45.81 24.5 46.22C24.29 46.22 23.9 46.4901 23.95 46.0701L23.69 46.5701C23.17 46.7501 23.04 46.57 23.19 45.98C20.86 47.12 19.7899 48.2499 19.3599 49.1599C18.9299 50.0599 19.13 50.72 19.13 50.72C19.29 52.37 20.7099 51.3499 21.9899 51.6799L22.01 51.6599Z" fill="#20BB65"/>
<path d="M73.0601 60.1201L73.1 60.3601C73.11 60.2501 73.1001 60.1601 73.0601 60.1201Z" fill="#20BB65"/>
<path d="M92.27 62.25C92.27 62.25 92.28 62.22 92.29 62.2C92.28 62.22 92.27 62.23 92.27 62.25Z" fill="#20BB65"/>
<path d="M74.9602 68.3C74.9602 68.3 74.9402 68.3301 74.9302 68.3601L74.9602 68.3Z" fill="#20BB65"/>
<path d="M71.1 67.1201C72.09 67.5501 72.22 68.6599 73.35 68.3799C73.85 68.5399 74.4301 68.36 74.9501 68.3C75.3001 67.49 75.61 68.37 75.98 67.71L76.0301 68.2C76.1601 67.97 76.2901 67.8201 76.3601 68.0901L76.3401 68.23C76.5301 67.89 76.6701 68.12 76.7601 67.95L76.7401 68.0901L76.92 68.05L76.8601 68.24C77.1601 67.89 77.4201 67.9001 77.6301 68.1001L77.6801 67.52C78.0901 68.23 78.4201 67.0501 78.7601 67.8701L78.7401 68.01C79.4801 66.56 79.5001 69.15 80.2501 67.78C80.1601 67.95 80.25 68.08 80.22 68.22C80.5 68.09 80.8001 68.0299 80.9301 66.8999C81.1201 66.9399 81.0501 67.27 81.0201 67.71C81.0801 67.21 81.27 67.03 81.42 67.01L81.3301 67.1899L81.7801 67.0701L81.8001 66.1201C82.0001 66.4201 81.73 67.2701 81.97 67.0701L82.0601 66.29C82.3601 66.48 82.4101 67.68 82.6501 68.28C83.8901 68.75 85.4701 66.9199 86.5101 68.4099V69C86.4401 69.86 86.96 67.7701 86.92 68.5601L87.1 68.1799C87.12 68.3399 87.19 68.5099 87.1 68.6899C87.22 68.7399 87.2401 68.6001 87.3601 68.3501L87.4401 68.8899C87.9001 69.3499 88.4301 68.3699 88.9401 68.6299C89.4701 69.7799 90.7601 68.8999 91.5101 68.3799C92.5901 67.1999 93.4101 70.7001 94.5301 69.3301C94.5501 69.4501 94.66 69.1901 94.67 69.0901L95.5701 69.29C95.5701 69.29 99.9301 69.9899 97.2001 62.6299L97.2401 62.45C96.7901 61.96 96.4901 61.83 96.0701 62.74C96.1201 61.59 95.6801 62.59 95.5901 62.2L95.6101 62.1101C95.2301 62.9701 95.0601 61.3201 94.7001 62.0901C94.7201 62.0001 94.7501 61.6899 94.8201 61.6699C94.6001 61.7999 94.2901 62.0201 94.3301 61.3601C93.8101 61.4901 93.14 61.1199 92.72 62.1499L92.7601 61.97C92.5101 62.67 92.5101 62.0499 92.2701 62.3999C92.2701 62.3099 92.2601 62.27 92.2701 62.23C92.0001 62.92 91.6801 62.2901 91.4901 62.5701L91.5201 62.1299L91.1101 62.2L91.2501 62.3101C91.0801 63.5201 91.02 61.52 90.66 62.28C90.41 62.1 89.8701 64.7599 89.6401 64.1399C89.4501 64.6999 89.8501 63.2199 89.6101 63.6399C89.6701 62.9999 89.7401 63.25 89.7401 62.74C89.5101 63.02 89.4801 62.06 89.2001 62.46L89.2401 61.96C88.8301 62.83 88.71 61.2501 88.41 62.0901C88.04 62.4701 88.3401 60.6 87.9001 61.53L87.8401 60.8501C87.7101 60.7301 87.6501 61.6601 87.5301 61.3201C87.5801 60.9001 87.3601 60.9601 87.5001 60.5701C87.2101 59.8701 86.6701 61.43 86.3101 60.26C86.1201 61.07 85.93 60.5599 85.79 61.1599C85.82 60.7999 85.31 61.05 85.67 60.3C85.7 60.24 85.74 60.2599 85.72 60.3899L85.8001 59.9099C85.6301 58.9599 85.2501 60.3599 85.0001 60.1899C85.0601 60.3599 85.1701 60.3299 85.0701 60.6599L84.8301 60.5701L84.9301 60.1699L84.5801 59.8899V60.3999C84.4201 60.1199 84.45 59.25 84.17 59.95C84.03 60.34 84.2701 60.65 84.0601 60.79C83.8501 60.42 83.5501 59.8599 83.2501 59.6699C83.2101 60.2399 83.1301 60.2101 83.0301 60.3201L83.0801 59.8201C82.6701 60.4701 83.0801 58.72 82.6901 59.23L82.7601 58.8899L82.5601 59.9099C82.1501 60.8599 82.52 58.8699 82.04 60.1699C82.18 60.0999 81.9701 61.27 81.8401 61.03L81.9401 60.5601C81.8401 60.6501 81.7901 60.85 81.7401 60.74C81.8201 60.49 81.8501 60.0501 81.7101 60.1201L81.8701 59.53L81.5201 60.3799C81.3901 59.8499 81.0101 60.45 81.0201 59.77C81.0201 59.77 80.65 59.3901 80.47 60.1201C80.61 59.6701 80.4001 59.4699 80.5301 58.9399C80.3601 59.4499 80.0001 59.83 79.9401 59.27L79.97 59.21C79.58 58.59 79.0901 59.8799 78.7601 59.1499C78.7101 59.7299 78.5301 59.3899 78.4901 60.1299C77.9701 60.7999 77.9001 58.54 77.4601 60.79C77.2501 60.89 77.3001 60.2301 77.2101 60.1001L77.2701 59.99C76.8801 60.13 76.7701 60.14 76.5101 60.05C76.3501 60.25 76.19 61.3 75.98 61.02C76.11 60.61 76 60.6799 75.91 60.6599C75.98 60.5999 76.0101 60.4499 75.9301 60.1499C75.9001 60.2799 75.8601 60.3499 75.8301 60.4199C75.8301 60.3899 75.8301 60.3601 75.8401 60.3201C75.6701 60.4501 75.6801 60.5799 75.7401 60.6499C75.7301 60.7099 75.72 60.7999 75.73 60.9099C75.65 60.3499 75.2901 60.8899 75.3601 60.1699C74.8801 60.2699 74.46 60.97 74.04 61.2C74.04 60.82 74.1801 60.5099 74.3101 60.3799L74.0201 60.48C74.1001 59.95 74.2201 60.2001 74.3101 60.1001C74.1101 59.2001 73.5301 60.86 73.2701 60.02L73.1301 60.4299V60.3601C73.0901 60.5801 72.9601 60.8699 72.8901 60.9399C72.9001 60.4699 73.0501 59.8699 72.8601 59.8799C72.7801 59.4099 72.4101 60.04 72.1801 60.26C72.2701 60.35 72.2001 60.6 72.1301 60.76C72.0301 60.76 72.0501 60.29 71.9501 60.48L72.0301 59.8501C71.9801 60.4401 71.6901 60.45 71.6201 60.7C71.6401 60.23 71.8201 60.32 71.9001 59.98C71.5201 59.98 71.7101 59.98 71.3301 59.98C71.0601 60.42 71.28 60.5701 71.1 61.1101C70.91 61.2101 70.6701 61.61 70.5201 61.21L70.5001 61.77C70.1001 62.15 69.9101 62.05 69.7801 61.46C68.2001 63.52 67.8201 65.03 67.8401 66.04C67.8701 67.04 68.3001 67.53 68.3001 67.53C69.1001 68.91 69.87 67.3701 71.1 67.1201Z" fill="#20BB65"/>
<path d="M122.6 64.6399L122.66 64.8799C122.66 64.7699 122.66 64.6799 122.6 64.6399Z" fill="#20BB65"/>
<path d="M142.09 65.9099C142.09 65.9099 142.1 65.8801 142.11 65.8601C142.1 65.8801 142.09 65.8899 142.09 65.9099Z" fill="#20BB65"/>
<path d="M125.05 72.6699C125.05 72.6699 125.04 72.7 125.03 72.73L125.06 72.6699H125.05Z" fill="#20BB65"/>
<path d="M121.18 71.77C122.19 72.12 122.39 73.2201 123.48 72.8601C123.98 72.9801 124.54 72.7699 125.05 72.6799C125.34 71.8499 125.7 72.71 126.03 72.03L126.1 72.52C126.21 72.29 126.34 72.1299 126.42 72.3899L126.4 72.53C126.57 72.18 126.72 72.41 126.8 72.23L126.78 72.3701L126.96 72.3201L126.92 72.52C127.2 72.15 127.46 72.1501 127.67 72.3401L127.69 71.76C128.13 72.44 128.39 71.25 128.78 72.05L128.76 72.1899C129.42 70.6999 129.56 73.2899 130.24 71.8799C130.16 72.0599 130.24 72.1801 130.24 72.3201C130.52 72.1701 130.8 72.11 130.89 70.97C131.08 71 131.02 71.34 131.01 71.78C131.05 71.28 131.23 71.0901 131.38 71.0701L131.3 71.26L131.74 71.1201L131.72 70.1699C131.93 70.4599 131.69 71.3201 131.93 71.1101L131.98 70.3301C132.28 70.5101 132.38 71.7 132.64 72.29C133.88 72.71 135.39 70.82 136.46 72.27V72.8601C136.43 73.7201 136.89 71.6199 136.87 72.4099L137.04 72.03C137.07 72.19 137.14 72.36 137.05 72.54C137.17 72.58 137.19 72.4399 137.3 72.1899L137.4 72.73C137.87 73.18 138.37 72.1799 138.88 72.4299C139.43 73.5599 140.69 72.6401 141.42 72.1101C142.48 70.9001 143.34 74.38 144.44 72.99C144.46 73.11 144.57 72.85 144.57 72.75L145.46 72.9299C145.46 72.9299 149.81 73.56 147.05 66.25L147.09 66.0701C146.63 65.5801 146.33 65.4599 145.91 66.3799C145.95 65.2299 145.51 66.2301 145.43 65.8501L145.45 65.76C145.08 66.62 144.89 64.98 144.53 65.76C144.55 65.67 144.58 65.3501 144.65 65.3401C144.43 65.4701 144.12 65.71 144.15 65.04C143.63 65.18 142.95 64.8201 142.54 65.8701L142.58 65.6899C142.34 66.3999 142.33 65.7799 142.1 66.1299C142.1 66.0399 142.08 66 142.09 65.96C141.83 66.66 141.49 66.0301 141.31 66.3201L141.33 65.8799L140.92 65.96L141.06 66.0701C140.91 67.2901 140.82 65.28 140.46 66.05C140.2 65.88 139.71 68.5499 139.48 67.9299C139.3 68.4899 139.67 67.0099 139.43 67.4399C139.47 66.7999 139.55 67.05 139.54 66.54C139.32 66.83 139.26 65.87 138.99 66.28L139.02 65.78C138.63 66.66 138.47 65.0899 138.19 65.9399C137.83 66.3299 138.08 64.4499 137.67 65.3999L137.59 64.72C137.45 64.6 137.42 65.54 137.29 65.2C137.33 64.78 137.11 64.85 137.24 64.45C136.92 63.76 136.42 65.3399 136.02 64.1799C135.85 64.9899 135.65 64.4901 135.52 65.1001C135.53 64.7401 135.04 65.01 135.37 64.25C135.4 64.19 135.44 64.2001 135.43 64.3401L135.5 63.8501C135.29 62.9101 134.96 64.3199 134.7 64.1599C134.77 64.3299 134.88 64.2901 134.78 64.6201L134.53 64.54L134.61 64.1299L134.25 63.8601V64.3701C134.1 64.1001 134.1 63.2299 133.84 63.9299C133.72 64.3299 133.96 64.63 133.76 64.77C133.54 64.41 133.21 63.8599 132.9 63.6799C132.89 64.2499 132.8 64.2301 132.71 64.3401L132.74 63.8401C132.35 64.5101 132.7 62.74 132.32 63.26L132.37 62.9199L132.21 63.95C131.84 64.91 132.12 62.91 131.69 64.23C131.83 64.15 131.67 65.3301 131.53 65.1001L131.61 64.6201C131.51 64.7101 131.47 64.9101 131.42 64.8101C131.49 64.5601 131.5 64.1099 131.36 64.1899L131.49 63.6001L131.18 64.46C131.02 63.93 130.67 64.5601 130.64 63.8701C130.64 63.8701 130.25 63.51 130.1 64.24C130.22 63.79 130 63.5901 130.1 63.0601C129.96 63.5701 129.61 63.9799 129.52 63.4099L129.55 63.3501C129.12 62.7501 128.69 64.0701 128.32 63.3501C128.3 63.9301 128.1 63.6001 128.1 64.3401C127.61 65.0401 127.41 62.79 127.09 65.05C126.88 65.16 126.89 64.4999 126.8 64.3799L126.86 64.26C126.48 64.42 126.37 64.4301 126.09 64.3601C125.94 64.5701 125.84 65.6301 125.61 65.3601C125.72 64.9501 125.61 65.02 125.52 65.01C125.58 64.95 125.61 64.8 125.52 64.5C125.49 64.63 125.46 64.71 125.43 64.77C125.43 64.74 125.43 64.7099 125.43 64.6699C125.27 64.8099 125.28 64.94 125.35 65C125.35 65.06 125.35 65.15 125.35 65.26C125.23 64.71 124.9 65.26 124.93 64.54C124.45 64.68 124.07 65.3999 123.67 65.6499C123.65 65.2699 123.77 64.9501 123.89 64.8201L123.61 64.9399C123.65 64.4099 123.79 64.64 123.88 64.54C123.61 63.65 123.15 65.36 122.82 64.54L122.71 64.96L122.69 64.8899C122.68 65.1099 122.57 65.41 122.51 65.48C122.49 65.01 122.59 64.4099 122.4 64.4199C122.28 63.9599 121.96 64.6201 121.75 64.8501C121.85 64.9401 121.8 65.1901 121.75 65.3501C121.65 65.3501 121.63 64.8901 121.55 65.0901L121.58 64.46C121.58 65.06 121.29 65.0801 121.24 65.3401C121.22 64.8701 121.41 64.9501 121.46 64.6001C121.08 64.6301 121.27 64.6199 120.89 64.6499C120.66 65.1099 120.89 65.25 120.75 65.79C120.56 65.9 120.36 66.3299 120.18 65.9299L120.21 66.49C119.85 66.9 119.65 66.82 119.46 66.24C116.66 70.61 118.52 72.4099 118.52 72.4099C119.42 73.7099 120.03 72.12 121.23 71.77H121.18Z" fill="#20BB65"/>
<path d="M172.59 68.8899L172.64 69.1299C172.65 69.0199 172.64 68.9299 172.59 68.8899Z" fill="#20BB65"/>
<path d="M192.07 72.0601C192.07 72.0601 192.09 72.03 192.1 72.01C192.08 72.03 192.08 72.0401 192.07 72.0601Z" fill="#20BB65"/>
<path d="M174.51 77.0601C174.51 77.0601 174.49 77.0901 174.48 77.1201L174.51 77.0601Z" fill="#20BB65"/>
<path d="M170.75 75.9199C171.73 76.3299 171.85 77.4399 172.95 77.1399C173.44 77.2899 174 77.1201 174.5 77.0601C174.85 76.2501 175.14 77.14 175.51 76.47L175.55 76.96C175.68 76.73 175.81 76.5901 175.87 76.8601L175.84 77C176.03 76.66 176.16 76.9 176.26 76.73L176.23 76.8701L176.41 76.8301L176.35 77.02C176.65 76.67 176.91 76.6899 177.1 76.8899L177.17 76.3101C177.55 77.0201 177.9 75.8599 178.22 76.6899L178.19 76.8301C178.97 75.4001 178.89 77.9899 179.67 76.6399C179.57 76.8099 179.65 76.9401 179.63 77.0801C179.91 76.9601 180.2 76.92 180.39 75.79C180.58 75.84 180.49 76.1701 180.44 76.6101C180.52 76.1201 180.71 75.9399 180.87 75.9299L180.77 76.1101L181.22 76.01L181.29 75.0701C181.47 75.3801 181.16 76.21 181.41 76.02L181.53 75.25C181.81 75.45 181.8 76.65 182 77.27C183.17 77.8 184.85 76.0799 185.75 77.6399L185.69 78.23C185.55 79.08 186.24 77.0401 186.14 77.8301L186.35 77.47C186.35 77.63 186.41 77.8 186.31 77.98C186.43 78.04 186.46 77.8999 186.59 77.6599L186.62 78.21C187.02 78.71 187.63 77.7801 188.1 78.0801C188.5 79.2701 189.84 78.5201 190.62 78.0901C191.83 77.0301 192.17 80.6099 193.43 79.3899C193.43 79.5199 193.57 79.2699 193.6 79.1699L194.44 79.49C194.44 79.49 195.46 79.82 196.3 79.2C197.13 78.57 197.84 76.9999 197.04 73.1499L197.11 72.98C196.73 72.42 196.43 72.2501 195.88 73.0801C196.09 71.9501 195.5 72.87 195.47 72.48L195.5 72.3899C195 73.1799 195.05 71.53 194.58 72.24C194.61 72.15 194.69 71.8501 194.76 71.8401C194.52 71.9301 194.17 72.12 194.3 71.46C193.76 71.52 193.11 71.06 192.56 72.04L192.62 71.8601C192.28 72.5301 192.36 71.91 192.08 72.23C192.08 72.14 192.08 72.0901 192.09 72.0601C191.74 72.7201 191.48 72.0501 191.26 72.3101L191.34 71.8701L190.92 71.8899L191.05 72.01C190.75 73.2 190.9 71.1999 190.45 71.9199C190.21 71.7099 189.4 74.2999 189.24 73.6599C189 74.1999 189.54 72.7699 189.25 73.1599C189.37 72.5299 189.42 72.79 189.47 72.28C189.21 72.54 189.27 71.58 188.95 71.95L189.04 71.46C188.55 72.29 188.56 70.7 188.19 71.51C187.79 71.85 188.25 70.0199 187.72 70.9099V70.22C187.58 70.09 187.45 71.0099 187.35 70.6599C187.44 70.2399 187.21 70.2899 187.38 69.9099C187.13 69.1899 186.46 70.7 186.18 69.51C185.93 70.3 185.77 69.7701 185.58 70.3701C185.63 70.0101 185.1 70.23 185.51 69.51C185.54 69.45 185.58 69.4701 185.56 69.6101L185.68 69.1299C185.56 68.1699 185.09 69.5401 184.84 69.3501C184.89 69.5201 185.01 69.5001 184.88 69.8201L184.64 69.71L184.76 69.3101L184.42 69.01L184.39 69.52C184.25 69.23 184.33 68.36 184 69.04C183.84 69.42 184.06 69.7501 183.84 69.8701C183.65 69.4901 183.37 68.91 183.07 68.7C183.01 69.27 182.92 69.2401 182.82 69.3401L182.89 68.8501C182.44 69.4801 182.94 67.75 182.52 68.24L182.61 67.8999L182.35 68.9099C181.89 69.8299 182.35 67.8599 181.8 69.1399C181.95 69.0799 181.69 70.23 181.56 69.99L181.68 69.52C181.57 69.61 181.51 69.7999 181.47 69.6899C181.56 69.4399 181.61 69.0001 181.47 69.0601L181.65 68.48L181.26 69.3101C181.15 68.7701 180.74 69.3599 180.77 68.6799C180.77 68.6799 180.4 68.29 180.19 69C180.34 68.56 180.14 68.3501 180.29 67.8201C180.1 68.3201 179.72 68.6901 179.67 68.1201L179.7 68.0601C179.31 67.4301 178.78 68.71 178.45 67.96C178.38 68.53 178.21 68.1899 178.15 68.9299C177.61 69.5899 177.57 67.3301 177.08 69.5601C176.86 69.6501 176.92 69.0001 176.83 68.8701L176.89 68.76C176.49 68.89 176.38 68.9001 176.11 68.8101C175.94 69.0101 175.77 70.06 175.56 69.77C175.7 69.36 175.59 69.4299 175.49 69.4099C175.56 69.3499 175.6 69.1999 175.52 68.8999C175.48 69.0299 175.45 69.0999 175.41 69.1699C175.41 69.1399 175.41 69.1101 175.42 69.0701C175.25 69.2001 175.25 69.3299 175.32 69.3999C175.31 69.4599 175.3 69.5499 175.31 69.6599C175.22 69.0999 174.86 69.6299 174.94 68.9099C174.45 69.0099 174.02 69.7099 173.6 69.9399C173.6 69.5599 173.74 69.2501 173.87 69.1201L173.58 69.22C173.65 68.69 173.78 68.9401 173.88 68.8401C173.67 67.9401 173.09 69.61 172.81 68.77L172.68 69.1799V69.1101C172.64 69.3301 172.51 69.6199 172.45 69.6899C172.45 69.2199 172.59 68.6199 172.4 68.6299C172.31 68.1599 171.95 68.8 171.72 69.02C171.82 69.11 171.75 69.36 171.68 69.52C171.58 69.52 171.59 69.05 171.49 69.24L171.56 68.6101C171.52 69.2001 171.23 69.21 171.17 69.47C171.17 69 171.37 69.09 171.43 68.74C171.04 68.75 171.24 68.74 170.85 68.76C170.59 69.21 170.81 69.3599 170.65 69.8899C170.46 69.9899 170.23 70.4 170.07 70V70.5601C169.68 70.9501 169.49 70.86 169.33 70.27C166.31 74.5 168.07 76.3899 168.07 76.3899C168.89 77.7299 169.58 76.1799 170.78 75.8899L170.75 75.9199Z" fill="#20BB65"/>
<path d="M221.61 82.24L221.57 82.48C221.62 82.39 221.65 82.29 221.61 82.24Z" fill="#20BB65"/>
<path d="M237.56 95.25C237.56 95.25 237.59 95.25 237.61 95.23C237.59 95.23 237.57 95.23 237.56 95.25Z" fill="#20BB65"/>
<path d="M220.25 90.51C220.25 90.51 220.22 90.53 220.2 90.55L220.25 90.51Z" fill="#20BB65"/>
<path d="M217.39 88.1699C218.12 88.8599 217.8 89.95 218.87 90.04C219.24 90.34 219.78 90.39 220.24 90.51C220.87 89.9 220.77 90.8001 221.35 90.3501L221.18 90.8101C221.38 90.6501 221.56 90.5701 221.49 90.8401L221.41 90.95C221.72 90.72 221.73 90.9801 221.88 90.8601L221.8 90.97L221.97 91.01L221.84 91.1599C222.24 90.9599 222.46 91.0701 222.54 91.3301L222.85 90.8401C222.85 91.6301 223.67 90.7401 223.57 91.6001L223.48 91.71C224.8 90.76 223.53 93.0099 224.81 92.1599C224.65 92.2699 224.65 92.42 224.56 92.53C224.85 92.54 225.11 92.63 225.81 91.73C225.95 91.85 225.71 92.1 225.46 92.46C225.76 92.06 226.02 92.0001 226.15 92.0601L225.98 92.1699L226.4 92.29L226.92 91.5C226.92 91.85 226.25 92.4399 226.55 92.3899L227.04 91.78C227.18 92.09 226.56 93.12 226.41 93.74C227.07 94.71 229.36 94.1101 229.18 95.8701L228.8 96.3201C228.21 96.9401 229.91 95.63 229.38 96.22L229.75 96.03C229.66 96.16 229.6 96.3299 229.42 96.4199C229.47 96.5299 229.58 96.4301 229.82 96.3101L229.52 96.77C229.52 97.38 230.54 96.96 230.71 97.45C230.26 98.61 231.71 98.7299 232.55 98.8999C233.33 98.8599 233.22 99.57 233.06 100.25C232.91 100.94 232.78 101.57 233.63 101.55C233.54 101.64 233.81 101.55 233.89 101.5L234.22 102.25C234.22 102.25 234.34 102.46 234.57 102.7C234.8 102.94 235.15 103.2 235.65 103.28C236.16 103.36 236.82 103.26 237.65 102.76C238.48 102.26 239.48 101.36 240.58 99.6899L240.75 99.6201C240.89 98.9201 240.78 98.56 239.78 98.74C240.73 98.08 239.65 98.3 239.89 98L239.98 97.96C239.06 98.17 240.24 96.9699 239.39 97.1499C239.47 97.1099 239.74 96.94 239.8 96.99C239.54 96.88 239.15 96.7601 239.69 96.3701C239.22 96.0101 239.03 95.17 237.94 95.54L238.1 95.45C237.4 95.73 237.86 95.3101 237.43 95.3501C237.49 95.2901 237.52 95.25 237.55 95.23C236.85 95.5 237.07 94.8001 236.73 94.8501L237.07 94.5601C236.96 94.4701 236.84 94.38 236.72 94.29L236.75 94.47C235.77 95.21 237.13 93.73 236.32 94C236.24 93.67 234.01 95.2101 234.28 94.6001C233.76 94.8701 235.06 94.08 234.59 94.21C235.06 93.78 234.95 94.0199 235.3 93.6399C234.94 93.6799 235.56 92.94 235.06 93.04L235.42 92.7C234.52 93.07 235.46 91.78 234.67 92.21C234.13 92.24 235.57 91.0099 234.62 91.4199L235 90.8401C234.96 90.6501 234.33 91.34 234.44 90.99C234.75 90.7 234.52 90.5899 234.88 90.3799C235.05 89.6199 233.64 90.48 234.03 89.3C233.38 89.82 233.52 89.2799 233.04 89.6799C233.27 89.4099 232.69 89.2799 233.43 88.9099C233.49 88.8799 233.52 88.91 233.43 89.02L233.79 88.6799C234.18 87.7899 233.03 88.6799 232.91 88.3799C232.87 88.5599 232.99 88.6101 232.7 88.8101L232.54 88.5801L232.86 88.3101L232.71 87.8501L232.42 88.27C232.44 87.94 232.95 87.2299 232.3 87.6299C231.96 87.8699 232 88.27 231.73 88.26C231.75 87.83 231.77 87.1701 231.6 86.8301C231.26 87.3001 231.2 87.22 231.06 87.25L231.37 86.8601C230.65 87.1601 231.95 85.9201 231.32 86.1201L231.56 85.8701L230.84 86.6201C229.97 87.1901 231.34 85.7 230.22 86.54C230.39 86.56 229.6 87.4499 229.59 87.1699L229.92 86.8201C229.78 86.8401 229.63 86.9801 229.64 86.8601C229.84 86.6901 230.09 86.32 229.93 86.3L230.37 85.8799L229.62 86.4199C229.77 85.8799 229.11 86.2001 229.45 85.6001C229.45 85.6001 229.29 85.0601 228.76 85.6001C229.1 85.2801 229.01 84.9901 229.38 84.6001C228.98 84.9501 228.45 85.1101 228.66 84.5701L228.72 84.53C228.62 83.77 227.56 84.6601 227.57 83.8401C227.26 84.3301 227.24 83.9401 226.88 84.5801C226.09 84.9401 226.99 82.8599 225.6 84.6799C225.36 84.6699 225.68 84.0899 225.65 83.9399L225.76 83.8701C225.33 83.8101 225.22 83.7701 225 83.5701C224.76 83.6801 224.18 84.58 224.1 84.22C224.39 83.9 224.26 83.9201 224.18 83.8701C224.27 83.8501 224.36 83.7199 224.4 83.4199C224.32 83.5199 224.25 83.5801 224.19 83.6201C224.21 83.5901 224.22 83.57 224.24 83.53C224.02 83.57 223.98 83.7 224.02 83.79C223.98 83.84 223.95 83.92 223.91 84.03C224.05 83.48 223.49 83.8199 223.84 83.1899C223.34 83.0799 222.66 83.5601 222.17 83.6101C222.31 83.2601 222.56 83.02 222.73 82.95L222.41 82.9299C222.68 82.4599 222.71 82.7399 222.84 82.6899C222.97 81.7699 221.8 83.1 221.84 82.21L221.56 82.54V82.47C221.47 82.67 221.24 82.8899 221.16 82.9299C221.33 82.4899 221.68 81.9799 221.49 81.9099C221.56 81.4399 220.99 81.91 220.69 82.03C220.75 82.15 220.6 82.36 220.48 82.49C220.39 82.46 220.55 82.0199 220.39 82.1599L220.67 81.6001C220.43 82.1401 220.15 82.05 220 82.26C220.17 81.82 220.32 81.9699 220.5 81.6699C220.12 81.5399 220.31 81.6 219.93 81.47C219.53 81.8 219.69 82.02 219.35 82.46C219.13 82.49 218.78 82.7901 218.76 82.3601L218.57 82.8899C218.07 83.1299 217.92 82.9899 217.96 82.3799C215.83 83.8799 215.08 85.25 214.82 86.22C214.56 87.19 214.79 87.77 214.79 87.77C215.07 89.28 216.2 88.0099 217.39 88.1499V88.1699Z" fill="#20BB65"/>
<path d="M245.74 126.08L245.5 126.14C245.61 126.14 245.7 126.14 245.74 126.08Z" fill="#20BB65"/>
<path d="M241.79 145.84C241.79 145.84 241.82 145.86 241.83 145.87C241.82 145.85 241.8 145.84 241.79 145.84Z" fill="#20BB65"/>
<path d="M237.65 128.26C237.65 128.26 237.62 128.24 237.59 128.23L237.65 128.26Z" fill="#20BB65"/>
<path d="M238.61 124.69C238.26 125.63 237.17 125.79 237.51 126.81C237.38 127.27 237.58 127.79 237.65 128.27C238.46 128.59 237.59 128.87 238.26 129.23L237.77 129.27C238 129.39 238.14 129.52 237.87 129.57L237.73 129.55C238.07 129.73 237.83 129.85 238 129.95L237.86 129.92L237.9 130.09L237.71 130.03C238.06 130.32 238.05 130.57 237.84 130.75L238.42 130.82C237.71 131.17 238.86 131.54 238.03 131.82L237.89 131.79C239.31 132.58 236.73 132.42 238.05 133.22C237.88 133.12 237.75 133.19 237.61 133.16C237.73 133.44 237.76 133.72 238.88 133.94C238.83 134.12 238.5 134.02 238.06 133.96C238.55 134.06 238.72 134.26 238.73 134.4L238.55 134.3L238.63 134.74L239.57 134.85C239.26 135.01 238.43 134.67 238.61 134.92L239.38 135.08C239.16 135.35 237.97 135.28 237.34 135.44C236.76 136.54 238.38 138.3 236.75 139.07L236.17 138.97C235.34 138.77 237.32 139.6 236.54 139.44L236.88 139.67C236.72 139.67 236.54 139.7 236.37 139.59C236.31 139.7 236.44 139.74 236.67 139.89H236.12C235.59 140.23 236.47 140.9 236.13 141.34C234.92 141.62 235.54 143 235.9 143.82C236.83 145.12 233.26 145.09 234.33 146.45C234.21 146.45 234.44 146.61 234.53 146.64L234.13 147.43C234.13 147.43 233.69 148.4 234.22 149.31C234.75 150.2 236.24 151.08 240.16 150.69L240.33 150.77C240.93 150.45 241.14 150.18 240.36 149.53C241.47 149.86 240.61 149.17 241 149.18L241.09 149.22C240.35 148.64 241.99 148.85 241.34 148.31C241.42 148.35 241.72 148.46 241.72 148.53C241.65 148.28 241.51 147.91 242.15 148.11C242.15 147.56 242.67 146.95 241.75 146.31L241.92 146.39C241.29 145.99 241.89 146.12 241.61 145.81C241.7 145.83 241.74 145.82 241.78 145.84C241.16 145.43 241.85 145.23 241.61 144.98L242.04 145.1L242.06 144.67L241.92 144.79C240.76 144.38 242.75 144.71 242.07 144.2C242.3 143.97 239.79 142.94 240.45 142.83C239.94 142.54 241.31 143.21 240.94 142.89C241.55 143.06 241.3 143.09 241.8 143.19C241.56 142.91 242.52 143.05 242.17 142.69L242.65 142.82C241.86 142.26 243.45 142.4 242.67 141.96C242.37 141.53 244.16 142.13 243.31 141.53L243.99 141.57C244.13 141.45 243.22 141.25 243.58 141.17C243.99 141.29 243.96 141.05 244.32 141.25C245.06 141.04 243.61 140.26 244.82 140.05C244.05 139.74 244.59 139.62 244 139.39C244.35 139.46 244.17 138.91 244.87 139.37C244.93 139.41 244.9 139.45 244.77 139.41L245.24 139.56C246.2 139.5 244.87 138.93 245.07 138.68C244.89 138.73 244.91 138.84 244.6 138.69L244.73 138.45L245.12 138.6L245.45 138.27L244.94 138.21C245.24 138.08 246.1 138.21 245.44 137.83C245.07 137.64 244.73 137.86 244.62 137.62C245.01 137.45 245.61 137.18 245.83 136.88C245.26 136.79 245.3 136.71 245.21 136.59L245.7 136.68C245.1 136.19 246.8 136.78 246.34 136.32L246.67 136.42L245.67 136.12C244.77 135.61 246.72 136.16 245.47 135.55C245.53 135.7 244.38 135.4 244.63 135.27L245.09 135.41C245.01 135.3 244.82 135.23 244.93 135.19C245.17 135.3 245.61 135.36 245.56 135.2L246.13 135.41L245.31 134.98C245.85 134.88 245.28 134.44 245.96 134.49C245.96 134.49 246.37 134.12 245.66 133.89C246.1 134.06 246.31 133.85 246.83 134.02C246.34 133.81 245.97 133.41 246.54 133.37L246.6 133.41C247.24 133.01 245.98 132.44 246.73 132.11C246.16 132.04 246.5 131.86 245.76 131.8C245.1 131.24 247.37 131.19 245.13 130.7C245.04 130.48 245.7 130.53 245.83 130.44L245.94 130.51C245.81 130.1 245.8 129.98 245.89 129.7C245.69 129.53 244.64 129.38 244.92 129.15C245.33 129.28 245.26 129.17 245.28 129.07C245.34 129.14 245.49 129.18 245.79 129.08C245.66 129.05 245.59 129.01 245.52 128.98C245.55 128.98 245.58 128.98 245.62 128.98C245.49 128.8 245.36 128.82 245.29 128.88C245.23 128.87 245.14 128.87 245.02 128.88C245.58 128.78 245.04 128.42 245.76 128.48C245.64 127.98 244.93 127.56 244.69 127.14C245.07 127.13 245.39 127.25 245.52 127.38L245.41 127.08C245.94 127.13 245.7 127.27 245.8 127.37C246.7 127.1 245.01 126.6 245.83 126.26L245.41 126.15L245.48 126.13C245.26 126.11 244.96 126 244.89 125.94C245.36 125.92 245.96 126.02 245.95 125.82C246.41 125.69 245.76 125.36 245.52 125.14C245.43 125.25 245.18 125.19 245.02 125.14C245.02 125.04 245.48 125.01 245.29 124.92L245.92 124.95C245.33 124.95 245.29 124.66 245.04 124.61C245.51 124.58 245.43 124.78 245.79 124.83C245.75 124.43 245.77 124.63 245.73 124.23C245.26 124 245.13 124.24 244.59 124.12C244.47 123.93 244.04 123.74 244.43 123.54L243.87 123.59C243.45 123.23 243.52 123.04 244.09 122.82C241.83 121.51 240.27 121.43 239.29 121.59C238.3 121.76 237.88 122.2 237.88 122.2C236.64 123.06 238.24 123.55 238.62 124.68L238.61 124.69Z" fill="#20BB65"/>
<path d="M230.96 171.34L230.74 171.25C230.84 171.3 230.92 171.34 230.96 171.34Z" fill="#20BB65"/>
<path d="M228.84 175.59C228.84 175.59 228.86 175.61 228.88 175.62L228.84 175.59Z" fill="#20BB65"/>
<path d="M223.65 168.41C223.65 168.41 223.62 168.39 223.6 168.38L223.65 168.41Z" fill="#20BB65"/>
<path d="M224.64 167.88C224.28 167.97 223.28 167.53 223.56 167.95C223.43 168.02 223.59 168.24 223.65 168.41C224.38 168.85 223.59 168.55 224.19 168.93L223.75 168.73C223.95 168.86 224.09 168.96 223.85 168.86L223.73 168.8C224.04 169 223.83 168.93 223.98 169.03L223.86 168.96L223.9 169.03L223.73 168.93C224.04 169.16 224.04 169.22 223.86 169.19L224.38 169.45C223.75 169.25 224.8 169.84 224.07 169.58L223.95 169.51C225.25 170.33 222.93 169.21 224.15 170C224 169.9 223.88 169.87 223.76 169.8C223.88 169.93 223.92 170.03 224.94 170.56C224.9 170.59 224.61 170.43 224.21 170.23C224.65 170.46 224.82 170.59 224.83 170.64L224.67 170.54L224.77 170.71L225.62 171.13C225.35 171.05 224.59 170.61 224.77 170.76L225.46 171.12C225.29 171.12 224.22 170.61 223.67 170.4C223.24 170.51 224.85 171.72 223.5 171.33L222.97 171.07C222.21 170.67 224.06 171.73 223.35 171.37L223.68 171.58C223.54 171.52 223.39 171.46 223.22 171.35C223.18 171.36 223.3 171.43 223.52 171.57L223.03 171.35C222.61 171.26 223.47 171.83 223.23 171.85C222.2 171.47 222.95 172.19 223.39 172.61C224.41 173.42 221.28 172.04 222.46 172.94C222.35 172.89 222.58 173.04 222.67 173.08L222.46 173.21C222.46 173.21 221.69 173.98 228.31 176.65L228.47 176.74C228.93 176.85 229.05 176.83 228.26 176.31C229.28 176.84 228.41 176.28 228.75 176.43L228.83 176.48C228.08 175.99 229.55 176.69 228.88 176.26C228.96 176.31 229.24 176.46 229.25 176.48C229.15 176.37 228.95 176.18 229.55 176.49C229.45 176.3 229.81 176.29 228.9 175.72L229.06 175.81C228.44 175.43 228.99 175.71 228.69 175.49C228.77 175.53 228.81 175.55 228.84 175.56C228.23 175.18 228.81 175.38 228.56 175.2L228.95 175.41L228.9 175.27H228.8C227.72 174.67 229.51 175.55 228.84 175.12C229.01 175.13 226.65 173.81 227.22 174.03C226.73 173.73 228.03 174.49 227.66 174.24C228.22 174.54 228 174.45 228.46 174.68C228.21 174.5 229.07 174.92 228.72 174.66L229.16 174.89C228.39 174.4 229.81 175.07 229.06 174.62C228.73 174.36 230.39 175.26 229.57 174.73L230.18 175.02C230.29 175.04 229.46 174.61 229.77 174.73C230.14 174.93 230.09 174.84 230.44 175.05C231.07 175.28 229.69 174.45 230.74 174.87C230.02 174.46 230.48 174.64 229.94 174.33C230.26 174.49 230.05 174.25 230.71 174.67C230.76 174.7 230.75 174.71 230.62 174.64L231.05 174.87C231.9 175.24 230.66 174.52 230.81 174.53C230.66 174.47 230.68 174.52 230.39 174.34L230.48 174.32L230.84 174.52L231.1 174.55L230.64 174.32C230.89 174.4 231.67 174.79 231.05 174.41C230.7 174.2 230.42 174.13 230.3 174.01C230.64 174.12 231.14 174.28 231.31 174.28C230.8 174.02 230.83 174.01 230.73 173.94L231.17 174.17C230.59 173.78 232.16 174.65 231.71 174.32L232.01 174.49L231.1 173.99C230.26 173.47 232.03 174.43 230.88 173.74C230.94 173.81 229.9 173.25 230.11 173.31L230.53 173.54C230.45 173.47 230.28 173.37 230.37 173.41C230.59 173.54 230.99 173.74 230.93 173.67L231.45 173.97L230.69 173.51C231.17 173.71 230.63 173.34 231.24 173.64C231.24 173.64 231.58 173.7 230.93 173.34C231.33 173.57 231.51 173.6 231.98 173.87C231.53 173.61 231.19 173.34 231.69 173.57L231.74 173.6C232.3 173.76 231.14 173.07 231.8 173.29C231.28 173.03 231.59 173.13 230.93 172.8C230.33 172.37 232.36 173.32 230.34 172.24C230.25 172.14 230.84 172.43 230.96 172.47L231.06 172.54C230.94 172.37 230.93 172.34 231.01 172.31C230.83 172.18 229.89 171.69 230.14 171.75C230.51 171.96 230.45 171.9 230.46 171.88C230.51 171.92 230.65 172 230.91 172.1C230.8 172.03 230.73 171.99 230.67 171.96C230.7 171.98 230.72 171.99 230.76 172.01C230.64 171.91 230.53 171.85 230.47 171.84C230.41 171.81 230.34 171.78 230.23 171.72C230.73 171.93 230.25 171.61 230.89 171.93C230.79 171.75 230.16 171.34 229.96 171.13C230.3 171.29 230.58 171.46 230.7 171.55L230.61 171.43C231.09 171.67 230.87 171.6 230.95 171.67C231.76 171.99 230.26 171.13 231.01 171.41L230.64 171.2L230.71 171.23C230.51 171.13 230.25 170.97 230.19 170.93C230.61 171.13 231.15 171.42 231.14 171.37C231.56 171.54 230.99 171.18 230.78 171.02C230.7 171.01 230.47 170.88 230.33 170.8C230.33 170.77 230.75 170.97 230.58 170.87L231.14 171.15C230.61 170.89 230.6 170.81 230.37 170.68C230.79 170.88 230.71 170.89 231.02 171.06C231.02 170.95 231.02 171.01 231.01 170.9C230.61 170.64 230.47 170.64 229.99 170.37C229.9 170.28 229.53 170.04 229.89 170.17L229.38 169.93C229.03 169.66 229.11 169.65 229.64 169.86C225.85 167.27 224.14 166.94 224.14 166.94C222.93 166.59 224.33 167.43 224.59 167.87L224.64 167.88Z" fill="#20BB65"/>
</svg>
