<svg width="472" height="387" viewBox="0 0 472 387" fill="none" xmlns="http://www.w3.org/2000/svg">
<path d="M260.81 322.6C260.64 325.3 260.93 328.08 260.81 330.78L288.49 331.28C289.99 330.78 289.02 325.3 288.87 323.77C298.57 324.03 308.41 323.88 318.09 324.35C320.7 324.48 325.25 325.52 327.73 325.52H336.5C338.93 325.52 343.39 325.91 346.14 326.1C348.65 326.27 351.42 326.49 354.02 326.69C367.38 327.7 380.8 329.13 394.06 330.77C393.02 335.41 392.43 340.21 391.14 344.79L409.76 346.46C410.55 345.97 410.96 335.32 411 333.48C411.14 332.94 411.79 333.15 412.18 333.11C415.65 332.73 427.31 335.46 431.48 336.31C440.26 338.09 466.48 343.5 470.86 351.27C472.97 355 471.3 356.94 468.58 359.42C456.27 370.66 408.87 376.68 391.42 378.69C319.24 386.98 242.51 387.15 169.95 384.52C125.26 382.9 71.24 380.53 28.2 369.06C9.91999 364.19 -12.67 353.8 18.56 342.45C34.2 336.77 51.61 334.77 67.95 331.94C67.95 332.02 68.59 332.56 68.56 333.36C68.48 335.93 67.39 339.03 67.95 341.88L92.5 339.54C92.78 335.99 92.22 332.52 91.91 329.02C101.45 328.32 110.98 327.06 120.55 326.68C121.72 326.63 123.26 326.68 124.35 326.68H139.54C143.15 326.68 147.45 325.48 150.94 324.93C156.21 324.1 162.43 324 167.89 323.76C182.36 323.13 197.3 322.8 211.72 322.59C228.07 322.35 244.46 322.77 260.81 322.59V322.6Z" fill="#A0D92A"/>
<path d="M228.67 60.1998C208.77 62.1498 192.12 79.1099 190.66 99.0399C189.67 112.54 197.35 124.41 191 137.37C189.1 141.25 185.41 144.96 183.2 148.86C177.85 158.29 176.74 167.51 177.24 178.26C177.27 178.84 177.2 179.43 177.24 180.01C164.92 182.47 154.83 179.11 145.67 170.96C141.92 167.62 139.07 163.41 135.47 160.12C118.5 144.63 94.74 143.34 74.97 154.29C80.15 138 88.24 132.23 98.65 120.4C111.05 106.3 105.02 86.1698 110.04 68.9598C114.38 54.0798 122.26 48.2498 131.07 37.0998C143.05 21.9298 153.65 3.1499 175.8 1.1799C211.69 -2.0201 222.47 31.6898 228.68 60.1998H228.67Z" fill="#A0D92A"/>
<path d="M409.25 115.13C381.75 124.11 377.03 143.85 368.93 168.9C357.98 168.82 346.07 166.3 338.16 158.17C331.64 151.47 331.62 145.07 328.62 137.03C321.42 117.72 302.94 106.38 282.44 108.7C282.36 108.53 281.96 108.35 281.86 108.12C281.76 107.89 281.35 107.71 281.28 107.54C277.71 99.5598 274.95 91.3197 270.76 83.5797C271.75 82.9697 271.85 81.9997 271.94 80.9597C272.89 70.7197 270.97 63.9797 274.84 53.4697C293.56 2.54969 389.24 10.0997 398 65.3297C400.31 79.8697 395.25 91.4998 403.12 105.8C404.93 109.09 407.79 111.64 409.27 115.14L409.25 115.13Z" fill="#A0D92A"/>
<path d="M270.75 83.5697C274.94 91.3197 277.7 99.5498 281.27 107.53L281.85 108.11C281.96 108.35 282.36 108.52 282.43 108.69C285.2 114.89 287.15 121.46 290.39 127.91C296.27 139.6 304.52 150.16 309.9 161.88C297.86 176.98 284.13 192.3 263.43 194.01C229.85 196.79 226.99 165.95 197.41 168.89C189.71 169.66 183.67 174.58 177.24 178.24C176.74 167.49 177.84 158.27 183.2 148.84C185.41 144.95 189.1 141.23 191 137.35C197.35 124.39 189.67 112.52 190.66 99.0198C192.12 79.0898 208.77 62.1298 228.67 60.1798C247.7 58.3098 261.99 67.3498 270.75 83.5598V83.5697Z" fill="#28BD3B"/>
<path d="M410.42 115.13L411 115.71C434.46 115.23 448.74 132.5 450.18 155.13C450.59 161.5 449.58 166.98 451.15 173.45C453.39 182.67 460.1 186.5 464.28 194.22C471.63 207.77 471.83 222.72 468.27 237.27C465.52 237.21 463.02 235.86 460.31 235.59C441.8 233.73 438.34 250.63 424.01 256.42C414.94 260.08 405.78 259.53 397.17 254.91C384.8 248.27 374.31 226.95 357.68 233.34C354.64 234.51 352.53 237.18 349.64 238.45C349.52 236.97 348.95 235.81 349.06 233.77C349.43 226.41 352.46 217.91 354.9 210.98C359.86 196.91 364.36 183.01 368.93 168.9C377.03 143.85 381.75 124.11 409.25 115.13C409.49 115.05 410.07 115.12 410.42 115.13Z" fill="#28BD3B"/>
<path d="M110.03 68.9598C105.01 86.1598 111.04 106.29 98.64 120.4C88.24 132.23 80.14 138 74.96 154.29C69.95 170.03 69.84 189.42 76.71 204.55C48.42 221.26 17.01 203.41 0.73999 178.84C3.09999 160.44 9.63003 157.2 19.34 143.97C29.17 130.58 25.59 122.03 27.7 107.33C33.26 68.6797 77.75 58.9498 110.02 68.9698L110.03 68.9598Z" fill="#28BD3B"/>
<path d="M76.7199 204.55C79.7499 211.23 91.3299 221.02 97.9499 224.52C100.29 225.76 108.05 228.23 108.86 229.68C108.99 229.92 108.82 230.76 109.19 231.37C112.8 237.32 117.94 242.19 121.13 248.38C119.06 248.31 114.45 250.5 111.8 251.03C104.61 252.47 95.7599 252.04 88.9899 248.96C83.2699 246.36 80.6499 242.42 73.2099 241.95C66.1199 241.5 58.3499 245.51 50.9999 244.87C48.4599 244.65 43.0999 243.67 40.4799 243.12C11.0399 236.89 -2.8501 206.82 0.739902 178.83C17.0099 203.41 48.4199 221.26 76.7099 204.54L76.7199 204.55Z" fill="#027D40"/>
<path d="M468.28 237.28C463.16 258.22 441.63 284.92 417.44 277.02C413.43 275.71 411.91 273.73 406.92 272.93C400.54 271.91 397.02 274.8 391.14 275.27C388.59 275.48 385.51 275.06 382.96 274.69C368.58 272.59 356.11 262.15 351.4 248.39C350.03 244.38 349.97 242.56 349.65 238.45C352.54 237.18 354.65 234.51 357.69 233.34C374.32 226.95 384.81 248.27 397.18 254.91C405.79 259.53 414.95 260.08 424.02 256.42C438.35 250.64 441.82 233.73 460.32 235.59C463.03 235.86 465.53 237.21 468.28 237.27V237.28Z" fill="#027D40"/>
<path d="M88.99 248.96C88.02 249.57 88.41 251.18 88.4 252.17C88.27 262.3 88.43 272.46 88.43 282.59C88.43 298.07 90.54 313.59 91.91 329.03C92.22 332.53 92.78 336.01 92.5 339.55L67.95 341.89C67.39 339.04 68.48 335.93 68.56 333.37C68.59 332.57 67.94 332.03 67.95 331.95C68.22 326.04 69.68 320.09 69.09 314.1L70.78 287.94L43.71 262.39L40.48 243.12C43.1 243.67 48.46 244.65 51 244.87C51.46 249.07 51.88 253.48 53.31 257.46C58.53 261.34 63.39 265.77 68.59 269.65C69.14 270.06 71.63 272.22 72.03 271.75L73.2 241.95C80.64 242.42 83.26 246.36 88.98 248.96H88.99Z" fill="#BE6632"/>
<path d="M417.43 277.02L411.58 329.34L412.17 333.12C411.78 333.16 411.13 332.95 410.99 333.49C410.95 335.33 410.54 345.98 409.75 346.47L391.13 344.8C392.43 340.21 393.02 335.41 394.05 330.78C395.98 322.14 398.7 313.63 399.9 304.8L384.57 285.6L382.94 274.67C385.49 275.04 388.57 275.46 391.12 275.25C391.43 277.1 391.33 280.74 392 282.26C392.76 283.96 398.24 288.95 399.87 290.75C401.13 292.15 401.22 294.46 403.39 293.96L406.9 272.92C411.89 273.72 413.41 275.7 417.42 277.01L417.43 277.02Z" fill="#BE6632"/>
<path d="M411.01 115.72L410.43 115.14C410.87 115.15 410.97 115.73 411.01 115.72Z" fill="#A0D92A"/>
<path d="M188.34 224.42L191.27 288.12C193.56 286.16 199.28 283.76 200.24 281.02C201.77 264.97 207.1 247.57 208.23 231.69C208.31 230.57 208.25 229.48 207.63 228.51C208.38 228.68 209.22 228.9 209.97 229.09C213.38 229.97 216.12 231.64 219.32 232.6L217.57 251.3L239.02 238.28L240.36 233.18C244.32 232.09 247.5 229.42 251.46 228.5C250.04 232.47 249.5 240.98 246.79 243.99L217.36 264.82L216.07 266.45L212.9 301.27L211.73 322.6C197.31 322.81 182.37 323.13 167.9 323.77C168.67 301.64 169.86 279.6 170.22 257.45L160.93 244.66C159.77 243.22 159.69 245.17 159.14 245.73C156.97 247.99 147.8 257.62 147.46 259.81C147.12 262 148 263.62 148.04 265.59C148.42 284.93 148.17 304.19 149.14 323.51L150.94 324.93C147.45 325.48 143.16 326.68 139.54 326.68H124.35C123.26 326.68 121.72 326.63 120.55 326.68L129.66 257.98C127.92 256.38 122.88 248.43 121.13 248.37C117.94 242.18 112.8 237.31 109.19 231.36C108.82 230.75 108.99 229.91 108.86 229.67C109.43 228.56 110.83 229.29 111.68 229.47C115.33 230.23 119.17 231.17 122.88 231.42C124.03 233.31 129.82 241.16 131.35 241.37C132.56 241.54 132.66 239.47 132.75 238.66C133.03 236.27 132.7 233.81 132.82 231.42C136.82 231.06 142.86 229.55 146.85 228.5L147.72 241.35C149.08 240.4 153.38 237 153.76 235.67C154.45 233.3 151.97 229.72 151.52 227.33C156.81 225.76 161.45 223.17 167.3 222.07C167.68 224.34 164.23 228.33 164.36 229.92C164.43 230.82 170.53 239 171.1 239.01C171.73 239.01 171.94 237.6 172.01 237C172.54 232.18 171.56 226.42 171.98 221.48C180.02 221.13 181.53 222.54 188.34 224.4V224.42ZM192.44 322.6C193.56 322.4 193.41 321.38 193.63 320.58C195.26 314.66 195.55 307.1 196.82 300.99C195.94 301.97 192.94 303.99 192.39 304.73C190.41 307.41 193.12 318.8 192.44 322.6Z" fill="#BE6632"/>
<path d="M339.71 206.3L341.47 240.2C344.25 238.52 345.93 234.83 349.06 233.77C348.96 235.8 349.53 236.96 349.64 238.45C349.97 242.55 350.02 244.37 351.39 248.39L343.18 256.25C341.59 259.01 343.07 266.45 343.21 269.73C344 288.54 345.04 307.33 346.14 326.12C343.39 325.93 338.92 325.54 336.5 325.54H327.73C325.24 325.54 320.7 324.5 318.09 324.37C319.44 316.76 319.28 308.98 319.85 301.29C321.41 280.41 323.34 259.69 323.96 238.77C324.28 227.94 323.86 217.11 324.52 206.31C330.11 204.8 331.81 203.86 338.14 205.28C339.04 205.48 339.57 206.28 339.71 206.31V206.3Z" fill="#BE6632"/>
<path d="M283.6 221.5L280.07 250.4C283 274.83 286.34 299.31 288.86 323.78C289.02 325.31 289.98 330.79 288.48 331.29L260.8 330.79C260.92 328.08 260.64 325.31 260.8 322.61C260.8 322.52 261.36 321.95 261.41 321.2C263.06 294.92 264.21 268.69 265.95 242.37C265.73 240.94 257 230.49 255.33 228.43C254.71 227.66 254.52 226.67 253.2 226.76C256.36 224.17 259.51 222.85 263.72 222.67C264.21 223.61 266.84 228.18 267.24 228.51C268.96 229.95 268.17 224.24 268.98 223.25C272.34 223.26 280.51 222.42 283.59 221.5H283.6Z" fill="#BE6632"/>
<path d="M177.24 180C178.65 199.6 191.63 217.88 208.42 227.45C209.21 227.9 210.29 227.64 209.96 229.09C209.21 228.9 208.37 228.67 207.62 228.51C201.2 227.07 194.75 226.17 188.33 224.42C181.51 222.56 180 221.14 171.97 221.5C170.11 221.58 169.07 221.75 167.29 222.08C161.44 223.18 156.8 225.77 151.51 227.34C150.2 227.73 148.32 228.12 146.83 228.51C142.84 229.57 136.8 231.07 132.8 231.43C129.99 231.68 125.71 231.62 122.86 231.43C119.14 231.18 115.3 230.24 111.66 229.48C110.81 229.3 109.4 228.57 108.84 229.68C108.03 228.23 100.27 225.76 97.9299 224.52C91.3099 221.02 79.7299 211.23 76.6999 204.55C69.8299 189.42 69.9399 170.03 74.9499 154.29C94.7199 143.34 118.49 144.63 135.45 160.12C139.05 163.41 141.9 167.62 145.65 170.96C154.81 179.11 164.9 182.47 177.22 180.01L177.24 180Z" fill="#62B529"/>
<path d="M309.9 161.89C315.1 173.22 315.31 186.27 310 197.93L301.72 210.39C299.32 210.66 296.05 214.38 293.61 216.02C291.56 217.4 285.5 220.93 283.6 221.5C280.51 222.42 272.35 223.27 268.99 223.25C267.69 223.25 265.78 222.58 263.73 222.67C259.52 222.85 256.37 224.17 253.21 226.76C252.45 227.38 252.26 226.26 251.46 228.51C247.49 229.43 244.31 232.1 240.36 233.19C233.42 235.1 226.19 234.65 219.32 232.61C216.12 231.66 213.38 229.98 209.97 229.1C210.29 227.65 209.21 227.91 208.43 227.46C191.64 217.89 178.66 199.61 177.25 180.01C177.21 179.43 177.28 178.84 177.25 178.26C183.67 174.6 189.72 169.68 197.42 168.91C227 165.96 229.86 196.81 263.44 194.03C284.15 192.32 297.87 177 309.91 161.9L309.9 161.89Z" fill="#027D40"/>
<path d="M282.43 108.7C302.94 106.38 321.41 117.72 328.61 137.03C331.61 145.07 331.63 151.47 338.15 158.17C346.06 166.3 357.97 168.82 368.92 168.9C364.35 183.01 359.86 196.9 354.89 210.98C349.99 208.94 344.76 207.61 339.7 206.3C339.56 206.26 339.03 205.47 338.13 205.27C331.79 203.86 330.09 204.79 324.51 206.3C324.18 206.39 323.68 206.21 323.34 206.3L322.76 206.88C315.01 208.92 309.57 209.51 301.72 210.39L310 197.93C315.3 186.27 315.1 173.21 309.9 161.89C304.52 150.18 296.27 139.61 290.39 127.92C287.15 121.47 285.2 114.9 282.43 108.7Z" fill="#62B529"/>
<path d="M281.85 108.12L281.27 107.54C281.35 107.72 281.75 107.89 281.85 108.12Z" fill="#62B529"/>
<path d="M132.82 231.43C132.7 233.82 133.03 236.28 132.75 238.67C132.66 239.47 132.56 241.55 131.35 241.38C129.82 241.17 124.03 233.32 122.88 231.43C125.73 231.62 130.01 231.68 132.82 231.43Z" fill="#027D40"/>
<path d="M322.76 206.89L323.34 206.31C323.17 206.36 322.94 206.85 322.76 206.89Z" fill="#BE6632"/>
</svg>
